<svg width="463" height="304" viewBox="0 0 463 304" fill="none" xmlns="http://www.w3.org/2000/svg">
<path d="M99.1653 42.5123C88.9694 35.8809 71.0968 36.4848 54.0147 45.1548C36.9583 53.8316 25.8716 67.9245 25.1817 80.0741L22.8464 81.2736L26.9895 89.4913C33.7893 102.929 56.8796 104.884 78.6185 93.867C100.332 82.8426 112.436 62.9936 105.669 49.5374L101.526 41.3197L99.191 42.5192L99.1653 42.5123Z" fill="#FFBE2E"/>
<path d="M78.925 94.4745C56.8923 105.662 33.3129 103.575 26.3575 89.792L21.9082 80.9668L24.5236 79.6488C25.4804 67.0176 37.168 52.9474 53.7345 44.5542C70.308 36.1351 88.5129 35.0118 99.2374 41.7296L101.853 40.4115L106.302 49.2367C113.257 63.0199 100.976 83.3196 78.9438 94.5072L78.925 94.4745ZM23.7853 81.5804L27.6033 89.1579C34.196 102.236 56.933 104.069 78.268 93.2199C99.6031 82.3708 111.597 62.9347 105.005 49.857L101.187 42.2795L99.1126 43.3278L98.7868 43.1023C88.5207 36.4243 70.6592 37.5014 54.34 45.795C38.0208 54.0886 26.5707 67.8905 25.8858 80.1244L25.8593 80.5321L23.7853 81.5804Z" fill="#393939"/>
<path d="M74.4427 85.6633C96.1704 74.6302 108.283 54.786 101.497 41.3401C94.7114 27.8941 71.5965 25.9381 49.8688 36.9711C28.1411 48.0042 16.0284 67.8483 22.8143 81.2943C29.6002 94.7403 52.715 96.6963 74.4427 85.6633Z" fill="#FFBE2E"/>
<path d="M102.469 43.2593C109.268 56.6967 97.1376 76.5388 75.4176 87.5889C53.7045 98.6132 30.5815 96.6764 23.7887 83.2132C16.9889 69.7758 29.1196 49.9337 50.8396 38.8836C72.5526 27.8593 95.6757 29.7961 102.469 43.2593Z" fill="#FFEECC"/>
<path d="M74.7806 86.2562C52.7479 97.4438 29.1685 95.357 22.2131 81.5737C15.2578 67.7904 27.5387 47.4907 49.5713 36.3032C71.604 25.1156 95.1834 27.2024 102.139 40.9857C109.094 54.7689 96.8133 75.0686 74.7806 86.2562ZM50.2025 37.5509C28.8675 48.4 16.8732 67.8361 23.4659 80.9138C30.0585 93.9914 52.7955 95.8248 74.1306 84.9758C95.4656 74.1267 107.46 54.6906 100.867 41.6129C94.2746 28.5352 71.5376 26.7019 50.2025 37.5509Z" fill="#393939"/>
<path d="M70.8293 78.5288C88.1826 69.717 98.1109 54.3719 93.0049 44.2546C87.8989 34.1372 69.6921 33.0788 52.3388 41.8906C34.9856 50.7024 25.0572 66.0474 30.1632 76.1648C35.2692 86.2821 53.4761 87.3405 70.8293 78.5288Z" fill="#FFBE2E"/>
<path d="M71.1682 79.1456C53.5053 88.13 34.8497 86.9201 29.569 76.4617C24.2883 66.0034 34.3704 50.2032 52.0522 41.2514C69.7152 32.267 88.3708 33.4769 93.6514 43.9353C98.9321 54.3937 88.85 70.1938 71.1682 79.1456ZM52.6765 42.525C35.6923 51.1382 25.8899 66.1007 30.8079 75.8534C35.7259 85.6062 53.5459 86.5369 70.5044 77.9168C87.4885 69.3036 97.291 54.3411 92.373 44.5883C87.455 34.8356 69.6349 33.9048 52.6696 42.5508L52.6765 42.525Z" fill="#393939"/>
<path d="M52.3523 41.8883C35.0089 50.7095 25.077 66.0521 30.1764 76.1577C30.6263 77.0526 31.2325 77.8788 31.8852 78.6344C29.6475 68.6596 39.2291 55.242 55.0328 47.2251C70.8107 39.2013 87.2862 39.3845 93.9589 47.1185C93.7238 46.1428 93.4302 45.1792 92.9873 44.2585C87.8879 34.1529 69.6887 33.0929 52.3265 41.8814L52.3523 41.8883Z" fill="#FFBE2E"/>
<path d="M94.2816 48.5878L93.4595 47.5378C86.9323 39.9812 70.5422 40.0973 55.3708 47.8135C40.1995 55.5297 30.4089 68.6977 32.5989 78.4386L32.9463 80.0251L31.3789 79.0796C30.5806 78.1467 30.0001 77.3274 29.569 76.4652C24.2883 66.0068 34.3704 50.2066 52.0522 41.2549C69.7152 32.2704 88.3708 33.4803 93.6514 43.9387C94.0825 44.8009 94.4087 45.7457 94.6915 46.9553L94.249 48.6067L94.2816 48.5878ZM52.7092 42.5095C35.725 51.1227 25.9226 66.0851 30.8406 75.8379C30.8594 75.8706 30.8782 75.9033 30.897 75.936C30.6577 65.9159 40.1679 54.0002 54.7584 46.5985C69.3489 39.1968 84.552 38.569 92.4621 44.671C92.4433 44.6383 92.4244 44.6056 92.4056 44.5729C87.4876 34.8201 69.6676 33.8894 52.7022 42.5353L52.7092 42.5095Z" fill="#393939"/>
<path d="M47.3672 44.9498L49.9793 50.1299L42.0505 56.2468L35.2838 64.3067L31.8432 72.926L31.9187 78.6157L29.2279 74.2441L29.1201 67.4396L31.6115 60.6125L37.4627 52.7774L45.8671 45.7094L47.3672 44.9498Z" fill="#393939"/>
<path d="M83.0073 60.9159C83.6011 59.1114 83.621 57.5957 83.0739 56.3429L83.1512 56.3636L81.3893 52.8494L78.4893 53.0679C77.8062 52.9402 77.0836 52.8572 76.27 52.8051C73.4341 52.6813 70.7223 53.2269 68.102 54.4607C65.4886 55.6686 62.4869 58.0171 59.1225 61.5129L48.8896 61.0941C50.53 59.7083 52.4646 58.8716 54.7449 58.5976L57.4093 52.9783L55.7653 49.7446L51.1179 54.5283L51.1694 54.5421C50.5767 54.7981 50.0027 55.0868 49.4545 55.3824C47.0332 56.6972 44.8874 58.5283 43.0754 60.8636L41.7639 60.8164L42.012 60.3021L41.2559 58.7997L36.8455 60.743L39.4268 65.8319L40.2661 64.038L41.0867 64.0642C40.6784 64.8675 40.4195 65.6278 40.2259 66.3503C39.3638 66.4788 38.7027 66.5782 38.7027 66.5782L40.6033 70.2955C41.5841 71.8858 43.5019 72.7592 46.3704 72.8641C49.1805 72.981 52.016 72.3856 54.8629 71.1296C57.6842 69.8666 60.5 67.8003 63.3035 64.9562L74.2728 65.4064C73.322 66.1749 72.1396 66.8814 70.7067 67.493C69.8013 67.8865 68.8789 68.1372 67.912 68.3482L67.771 67.5361L61.7075 71.2213L63.3515 74.455C67.074 74.1526 70.3804 73.241 73.2708 71.72C76.1611 70.199 78.6078 68.172 80.5849 65.632L85.3331 65.8257L87.3545 62.6062L85.7105 59.3725L83.0142 60.8901L83.0073 60.9159ZM52.5671 66.7256C51.4864 67.1551 50.4611 67.3781 49.5376 67.3242C48.5299 67.2755 47.7785 66.9912 47.2645 66.4386C46.7504 65.8861 46.6075 65.184 46.7911 64.2929L55.855 64.6474C54.746 65.5948 53.6803 66.2772 52.5671 66.7256ZM76.6495 62.1991L66.4423 61.7872C67.7323 60.4735 68.9769 59.5348 70.1951 59.0039C71.4202 58.4472 72.588 58.207 73.7639 58.2455C75.0754 58.2928 75.9863 58.7027 76.5103 59.4239C77.0343 60.1451 77.0893 61.0725 76.6237 62.1922L76.6495 62.1991Z" fill="#FFBE2E"/>
<path d="M85.689 66.5571L80.8824 66.3754C78.8933 68.8569 76.4278 70.8512 73.5701 72.3533C70.6471 73.8931 67.1912 74.8477 63.3846 75.1552L62.9056 75.1928L60.7622 70.9402L68.2435 66.3905L68.451 67.4693C69.1913 67.2805 69.8286 67.0641 70.4213 66.8081C71.0141 66.5521 71.5811 66.2892 72.0709 66.0056L63.5821 65.6669C60.7924 68.4593 57.9509 70.5188 55.1297 71.7818C52.2105 73.1014 49.2394 73.6881 46.3194 73.5694C43.238 73.4351 41.0956 72.4739 39.983 70.6547L38.014 66.7808L38.6509 65.8452L35.8951 60.3777L41.589 57.8656L42.7781 60.1201C44.5951 57.8691 46.7409 56.038 49.1553 54.7491C49.6382 54.4913 50.1468 54.2404 50.6485 54.0153L55.9805 48.53L58.2111 52.9719L55.2245 59.2791L54.8295 59.3116C53.437 59.4639 52.1693 59.8709 51.0402 60.481L58.8441 60.8021C62.1619 57.3768 65.1894 55.0353 67.8028 53.8273C70.5142 52.5626 73.3685 51.9999 76.2885 52.1186C77.0764 52.1638 77.8316 52.2279 78.5147 52.3556L81.7839 52.0977L83.7647 56.0301L83.9999 57.0058C84.1805 57.7732 84.1978 58.6352 84.0399 59.5332L85.9595 58.4435L88.1029 62.696L85.6494 66.6018L85.689 66.5571ZM80.2223 64.9264L84.9448 65.1132L86.534 62.5799L85.4152 60.3718L81.772 62.4377L82.3451 60.7107C82.8578 59.1058 82.8947 57.7329 82.4486 56.6178L82.0829 55.7178L81.0018 53.5751L78.3868 53.7594C77.7295 53.6386 77.0395 53.5367 76.2704 53.5243C73.5702 53.4091 70.9425 53.9495 68.4271 55.1008C65.9117 56.2521 62.9683 58.5885 59.6505 62.0138L59.4269 62.2305L47.0877 61.745L48.4529 60.5621C50.1001 59.1506 52.0674 58.2949 54.3101 57.9556L56.666 52.9727L55.6413 50.9282L52.2443 54.4429L52.5632 54.6942L51.5133 55.215C50.9532 55.4521 50.3862 55.7149 49.8638 56.0175C47.5335 57.3013 45.4599 59.0687 43.7013 61.3078L43.4896 61.583L40.731 61.4799L41.2876 60.3292L40.9814 59.7217L38.4029 61.5198L39.4418 64.2319L39.8778 63.3254L42.2554 63.4094L41.7472 64.3794C41.3991 65.0605 41.1352 65.7365 40.9536 66.5175L40.8291 66.982L39.8245 67.1277L41.2683 69.9759C42.0985 71.3046 43.8242 72.0711 46.4215 72.1587C49.1218 72.2738 51.8662 71.7093 54.5964 70.4773C57.3266 69.2453 60.1028 67.2237 62.8341 64.4432L63.0577 64.2266L76.1848 64.7572L74.7354 65.9452C73.7193 66.7515 72.4716 67.4957 71.0061 68.1263C70.1659 68.482 69.2297 68.7842 68.0876 69.0313L67.38 69.2012L67.2728 68.6747L62.653 71.5022L63.7649 73.736C67.1904 73.4094 70.3217 72.5337 72.932 71.1313C75.7244 69.6671 78.1057 67.6779 79.9968 65.2531L80.2085 64.978L80.2223 64.9264ZM77.1409 62.9392L64.8601 62.4417L65.9918 61.3069C67.347 59.9554 68.6639 58.9531 69.9543 58.3585C71.2704 57.7709 72.5877 57.4878 73.8408 57.547C75.3721 57.5978 76.4819 58.0888 77.1446 59.013C77.8331 59.9442 77.8773 61.1176 77.3495 62.4696L77.1736 62.9203L77.1409 62.9392ZM68.2049 61.1808L76.177 61.4917C76.3568 60.8208 76.308 60.2823 75.9791 59.8623C75.575 59.3115 74.8493 59.0341 73.7644 58.9646C72.6984 58.9279 71.6146 59.163 70.5133 59.6699C69.7642 59.9946 68.9924 60.5069 68.2049 61.1808ZM53.667 67.0479C53.4127 67.1733 53.1326 67.2919 52.8783 67.4173C51.6997 67.9035 50.5972 68.1059 49.5569 68.0761C48.3552 68.0306 47.4375 67.6464 46.7898 66.9751C46.3203 66.4621 45.8378 65.5861 46.1596 64.179L46.3117 63.6113L57.7205 64.0686L56.3622 65.2257C55.4698 65.9822 54.5863 66.6028 53.6927 67.0548L53.667 67.0479ZM52.345 66.1129C52.8398 65.9136 53.3554 65.6369 53.8778 65.3344L47.4627 65.0812C47.467 65.5802 47.6691 65.8556 47.8216 66.0071C48.2088 66.415 48.8127 66.6322 49.6264 66.6843C50.4469 66.7105 51.3743 66.5442 52.3639 66.1456L52.345 66.1129Z" fill="#393939"/>
<path d="M72.6616 62.154L61.6923 61.7038C58.8888 64.5478 56.0729 66.6142 53.2517 67.8771C50.4305 69.14 47.595 69.7354 44.7592 69.6116C41.8906 69.5067 39.9729 68.6334 38.992 67.0431C38.0112 65.4528 38.1833 63.3694 39.4755 60.8118L36.8851 60.6985L38.9064 57.4789L41.4968 57.5922C43.3088 55.2569 45.422 53.4447 47.876 52.111C50.2973 50.7963 52.9683 49.9909 55.8049 49.7001L53.1406 55.3193C50.8672 55.5675 48.9068 56.3973 47.2853 57.8158L57.5182 58.2346C60.8826 54.7388 63.8843 52.3904 66.4977 51.1824C69.1111 49.9744 71.8229 49.4289 74.6656 49.5268C77.8311 49.656 79.9617 50.5587 81.102 52.2747C82.2491 53.9649 82.1574 56.2634 80.8268 59.1702L85.7106 59.3726L83.6893 62.5922L78.9411 62.3985C76.9639 64.9385 74.5172 66.9655 71.6269 68.4864C68.7365 70.0074 65.4301 70.9191 61.7076 71.2214L64.6143 65.4182C66.1494 65.2488 67.6369 64.8453 69.0698 64.2337C70.5026 63.622 71.6781 62.9414 72.6358 62.1471L72.6616 62.154ZM45.2056 61.0474C44.9963 61.9316 45.165 62.6405 45.679 63.1931C46.193 63.7456 46.9444 64.03 47.9521 64.0787C48.8825 64.1068 49.8752 63.9026 50.9815 63.48C52.0622 63.0505 53.1605 62.3492 54.2695 61.4018L45.2056 61.0474ZM75.064 58.9535C75.5295 57.8338 75.4746 56.9064 74.9506 56.1853C74.4265 55.4641 73.5157 55.0541 72.2042 55.0069C71.0282 54.9683 69.8347 55.2016 68.6353 55.7652C67.4103 56.322 66.1725 57.2348 64.8826 58.5485L75.0897 58.9604L75.064 58.9535Z" fill="#FFBE2E"/>
<path d="M73.2223 63.7697L62.253 63.3195C59.4495 66.1635 56.6336 68.2299 53.8124 69.4928C50.9912 70.7558 48.1557 71.3511 45.3199 71.2273C42.4513 71.1225 41.0987 70.0963 40.099 68.4733C39.1251 66.8572 38.7251 64.9524 40.0362 62.4275L38.3589 61.4803L39.4602 59.1204L42.0506 59.2337C43.8626 56.8984 45.9827 55.0604 48.4298 53.7526C50.8511 52.4378 53.1503 52.1965 56.0126 51.9126L53.6944 56.9608C51.421 57.209 49.4606 58.0389 47.8391 59.4573L58.072 59.8761C61.4364 56.3804 64.4381 54.0319 67.0515 52.8239C69.6649 51.616 72.3767 51.0704 75.2194 51.1684C78.3849 51.2975 80.5155 52.2003 81.6558 53.9162C82.8029 55.6064 82.7112 57.9049 81.3806 60.8118L85.9271 61.4492L84.2173 64.2268L79.4691 64.0331C77.4919 66.5731 75.0453 68.6001 72.1549 70.1211C69.2646 71.642 66.8359 72.2634 63.1392 72.5727L65.1681 67.0597C66.7032 66.8903 68.1907 66.4868 69.6236 65.8752C71.0565 65.2635 72.2319 64.5829 73.1896 63.7886L73.2223 63.7697ZM45.7663 62.6631C45.557 63.5473 45.7257 64.2562 46.2397 64.8088C46.7537 65.3613 47.5052 65.6457 48.5128 65.6944C49.4432 65.7225 50.4359 65.5183 51.5423 65.0957C52.6229 64.6662 53.7212 63.9649 54.8302 63.0176L45.7663 62.6631ZM75.6247 60.5693C76.0903 59.4495 76.0353 58.5222 75.5113 57.801C74.9872 57.0798 74.0764 56.6698 72.7649 56.6226C71.589 56.584 70.3954 56.8173 69.1961 57.381C67.971 57.9377 66.7333 58.8506 65.4433 60.1643L75.6504 60.5762L75.6247 60.5693Z" fill="#FFEECC"/>
<path d="M84.0705 63.3301L79.2638 63.1484C77.2748 65.6299 74.8093 67.6242 71.9516 69.1263C69.0028 70.6592 65.5727 71.6207 61.7661 71.9282L61.287 71.9658L60.7876 70.9469L62.0237 69.0104L64.1603 64.7432L64.5295 64.7038C66.0062 64.5464 67.4352 64.1549 68.7771 63.5741C69.3698 63.3181 69.9111 63.0483 70.4266 62.7716L61.9378 62.433C59.1482 65.2254 56.3135 67.2591 53.4854 68.5479C50.5662 69.8675 47.5951 70.4542 44.6751 70.3355C41.5938 70.2013 39.4513 69.24 38.3387 67.4208C37.3579 65.8305 37.3666 63.8416 38.3581 61.48L35.5994 61.3769L38.485 56.7849L41.1338 56.8862C42.9508 54.6352 45.0967 52.8041 47.5111 51.5152C50.0234 50.1695 53.0336 48.8189 55.9801 48.5298L56.5737 49.7122L53.5871 56.0194L53.1922 56.0519C51.7996 56.2042 50.5388 56.5854 49.4029 57.2213L57.2067 57.5424C60.5246 54.1171 63.552 51.7756 66.1654 50.5676C68.8768 49.3029 71.7311 48.7402 74.6511 48.8589C78.0363 48.9916 80.3847 50.008 81.6636 51.9271C82.8039 53.6431 82.8685 55.8729 81.8456 58.5579L85.9849 58.4502L86.5101 59.4759L84.0635 63.3559L84.0705 63.3301ZM78.6038 61.6994L83.3263 61.8862L84.6623 59.7828L79.7539 59.878L80.2037 58.92C81.4068 56.2832 81.5274 54.186 80.5446 52.7058C79.5362 51.2188 77.5531 50.3832 74.6588 50.2714C71.9586 50.1563 69.3309 50.6968 66.8155 51.848C64.3189 53.032 61.3567 55.3357 58.0389 58.761L57.8153 58.9776L45.476 58.4922L46.8413 57.3093C48.4885 55.8977 50.4558 55.0421 52.6985 54.7027L54.8319 50.2411C52.5566 50.5993 50.2302 51.6629 48.2264 52.7577C45.8962 54.0416 43.8225 55.8091 42.0639 58.0481L41.8523 58.3232L39.3133 58.2237L38.1632 60.045L40.6437 60.1566L40.1355 61.1266C38.9639 63.44 38.77 65.2962 39.6191 66.6576C40.4612 68.0448 42.2195 68.7925 44.8099 68.9058C47.5102 69.0209 50.2546 68.4565 52.9848 67.2245C55.7407 65.9994 58.4912 63.9708 61.2225 61.1904L61.446 60.9737L74.5732 61.5043L73.1238 62.6924C72.1335 63.5056 70.86 64.2429 69.3945 64.8735C68.0269 65.4473 66.5909 65.8646 65.133 66.0547L62.9569 70.3667C66.0667 69.9831 68.9129 69.1417 71.3273 67.8527C74.1197 66.3885 76.501 64.3993 78.3921 61.9745L78.6038 61.6994ZM75.5224 59.7122L63.2415 59.2147L64.3732 58.0799C65.7285 56.7284 67.0454 55.7261 68.3357 55.1315C69.6518 54.5439 70.9691 54.2608 72.2223 54.32C73.7535 54.3708 74.8564 54.8876 75.5261 55.786C76.2145 56.7172 76.2588 57.8906 75.731 59.2426L75.555 59.6932L75.5224 59.7122ZM66.5864 57.9538L74.5585 58.2647C74.7382 57.5938 74.6894 57.0553 74.3606 56.6353C73.9564 56.0845 73.205 55.8002 72.1459 55.7376C71.1056 55.7078 69.9961 55.936 68.8947 56.4429C68.1387 56.7934 67.3739 57.2799 66.5864 57.9538ZM52.0485 63.8209C51.7941 63.9463 51.5141 64.0649 51.2598 64.1903C50.0812 64.6765 48.9787 64.8789 47.9384 64.8491C46.7367 64.8036 45.8189 64.4194 45.1712 63.7481C44.7018 63.2351 44.2192 62.3591 44.5411 60.952L44.6932 60.3843L56.102 60.8416L54.7436 61.9987C53.8513 62.7552 52.9677 63.3758 52.0742 63.8278L52.0485 63.8209ZM45.8254 61.8215C45.8296 62.3205 46.0317 62.5959 46.1842 62.7474C46.5714 63.1553 47.1754 63.3725 47.989 63.4245C48.8096 63.4508 49.7369 63.2845 50.7265 62.8859C51.2213 62.6866 51.7368 62.4099 52.2593 62.1074L45.8442 61.8542L45.8254 61.8215Z" fill="#393939"/>
<path d="M78.7915 83.2379L83.0099 91.5864L91.5811 85.3374L99.2252 78.121L105.526 67.4749L107.648 57.3958L106.782 51.7711L103.352 45.3208L103.149 55.8586L97.42 66.3261L86.6574 77.7679L78.7915 83.2379Z" fill="#393939"/>
<path d="M73.0855 86.4103L77.2286 94.6279L73.2564 96.2739L68.9201 87.6449L73.0855 86.4103Z" fill="#393939"/>
<path d="M447.927 262.012C451.035 233.721 431.081 197.018 395.215 170.472C359.35 143.926 318.449 135.514 292.404 146.855L287.493 143.241L274.751 160.502C253.927 188.793 274.005 239.143 319.692 272.979C365.379 306.816 419.271 311.302 440.095 283.012L452.837 265.751L447.927 262.137V262.012Z" fill="#FFBE2E"/>
<path d="M318.76 274.225C272.451 239.89 252.125 188.419 273.508 159.443L287.183 140.873L292.653 144.923C319.941 133.644 361.339 143.303 396.21 169.101C431.02 194.899 452.403 231.789 449.667 261.202L455.137 265.252L441.462 283.822C420.08 312.798 365.069 308.436 318.76 274.163V274.225ZM287.867 145.484L276.119 161.437C255.855 188.979 275.808 238.395 320.687 271.608C365.566 304.822 418.526 309.495 438.79 281.952L450.538 266L446.187 262.76L446.311 261.825C449.481 233.347 428.533 197.205 394.221 171.781C359.909 146.357 319.257 136.947 293.088 148.351L292.218 148.724L287.867 145.484Z" fill="#393939"/>
<path d="M452.897 265.688C432.074 293.979 378.12 289.492 332.495 255.656C286.807 221.819 266.73 171.469 287.553 143.178C308.377 114.888 362.331 119.374 407.956 153.211C453.643 187.048 473.721 237.398 452.897 265.688Z" fill="#FFBE2E"/>
<path d="M449.852 269.739C429.029 298.029 375.075 293.543 329.45 259.706C283.763 225.869 263.685 175.519 284.509 147.229C305.332 118.938 359.286 123.425 404.911 157.261C450.598 191.098 470.676 241.448 449.852 269.739Z" fill="#FFEECC"/>
<path d="M331.502 256.964C285.193 222.629 264.867 171.157 286.25 142.181C307.633 113.205 362.644 117.567 408.953 151.84C455.261 186.113 475.587 237.647 454.205 266.623C432.822 295.599 377.811 291.237 331.502 256.964ZM407.026 154.52C362.147 121.306 309.187 116.632 288.923 144.175C268.659 171.718 288.674 221.133 333.491 254.347C378.37 287.56 431.33 292.234 451.594 264.691C471.858 237.148 451.843 187.733 407.026 154.52Z" fill="#393939"/>
<path d="M437.92 251.045C422.255 272.356 379.987 267.683 343.5 240.7C307.012 213.718 290.167 174.523 305.893 153.274C321.557 131.962 363.826 136.636 400.313 163.618C436.801 190.6 453.646 229.795 437.92 251.045Z" fill="#FFBE2E"/>
<path d="M342.505 242.009C305.396 214.528 288.365 174.273 304.526 152.276C320.75 130.279 364.137 134.766 401.246 162.309C438.355 189.789 455.387 230.044 439.225 252.041C423.002 274.038 379.614 269.552 342.505 242.009ZM399.319 164.926C363.639 138.505 322.304 133.706 307.199 154.208C292.094 174.709 308.815 212.908 344.494 239.329C380.174 265.75 421.51 270.549 436.615 250.047C451.719 229.546 434.998 191.347 399.319 164.926Z" fill="#393939"/>
<path d="M400.314 163.617C363.826 136.635 321.558 131.962 305.894 153.273C304.464 155.205 303.407 157.261 302.537 159.442C320.936 144.3 358.853 150.282 392.047 174.834C425.24 199.386 442.085 234.032 433.01 256.092C434.812 254.596 436.491 252.976 437.92 251.044C453.584 229.733 436.739 190.599 400.314 163.617Z" fill="#FFBE2E"/>
<path d="M430.212 258.273L431.517 255.468C440.344 233.908 423.001 199.822 391.051 176.142C359.163 152.525 321.557 145.858 303.531 160.688L300.609 163.056L300.982 158.757C302.039 156.139 303.22 154.021 304.525 152.214C320.749 130.217 364.136 134.703 401.245 162.246C438.354 189.727 455.386 229.982 439.225 251.979C437.919 253.786 436.241 255.468 434.065 257.338L430.212 258.21V258.273ZM399.318 164.926C363.639 138.504 322.303 133.706 307.198 154.208C307.198 154.27 307.074 154.332 307.012 154.457C327.587 143.427 362.334 150.78 392.978 173.525C423.623 196.208 440.841 227.365 436.428 250.296C436.428 250.234 436.552 250.172 436.614 250.047C451.719 229.546 434.998 191.347 399.318 164.926Z" fill="#393939"/>
<path d="M388.69 156.389L380.671 167.232L359.662 157.074L335.792 151.466L314.285 153.273L302.537 159.442L308.815 149.223L322.863 141.87L339.646 139.938L362.024 143.864L385.582 154.021L388.69 156.389Z" fill="#393939"/>
<path d="M392.793 247.616C397.144 246.931 400.314 245.373 402.365 243.005L402.427 243.13L407.897 235.714L404.416 229.919C403.981 228.361 403.422 226.741 402.614 224.996C399.879 218.952 395.9 213.842 390.679 209.667C385.396 205.492 377.377 201.691 366.623 198.326L356.802 176.516C361.402 178.448 365.194 181.688 368.115 186.175L382.598 185.863L387.633 179.071L372.839 174.397V174.522C371.721 173.587 370.54 172.652 369.296 171.78C364.013 168.103 357.983 165.549 351.208 164.24L349.965 161.436H351.27L353.632 158.195L344.992 151.029L337.098 161.747L341.698 161.623L342.506 163.368C340.392 163.368 338.527 163.617 336.849 163.991C335.668 162.308 334.798 161 334.798 161L329.017 168.851C326.717 172.59 326.904 177.513 329.701 183.62C332.436 189.664 336.601 194.961 342.195 199.51C347.789 204.121 355 207.798 363.888 210.664L374.456 234.032C371.845 232.848 369.172 231.103 366.375 228.735C364.634 227.24 363.08 225.557 361.651 223.812L363.143 222.628L349.157 213.842L344.122 220.634C348.659 228.05 354.005 234.032 360.159 238.456C366.313 242.881 373.088 245.872 380.423 247.305L385.023 257.462L393.787 258.334L398.822 251.542L392.855 247.492L392.793 247.616ZM348.908 190.1C346.857 188.293 345.365 186.361 344.495 184.43C343.5 182.249 343.314 180.379 343.935 178.759C344.557 177.139 345.862 176.017 347.914 175.519L356.616 194.836C353.508 193.528 350.959 191.97 348.908 190.163V190.1ZM383.531 235.652L373.71 213.904C377.812 215.213 381.044 216.895 383.406 218.827C385.831 220.759 387.571 223.002 388.69 225.495C389.933 228.299 390.12 230.605 389.125 232.474C388.131 234.343 386.266 235.403 383.469 235.59L383.531 235.652Z" fill="#FFBE2E"/>
<path d="M383.904 259.145L379.304 248.863C372.094 247.305 365.318 244.252 359.227 239.89C352.949 235.403 347.354 229.172 342.754 221.569L342.195 220.635L348.784 211.724L366.064 222.567L364.013 224.124C365.194 225.433 366.313 226.555 367.432 227.552C368.613 228.549 369.732 229.421 370.851 230.169L362.645 212.035C353.943 209.169 346.671 205.368 341.138 200.819C335.358 196.083 331.006 190.537 328.209 184.306C325.226 177.7 325.039 172.217 327.65 168.042L333.617 159.878L336.228 160.252L344.744 148.724L355.932 158.009L352.451 162.869C359.04 164.303 365.07 166.858 370.291 170.534C371.348 171.282 372.404 172.092 373.399 172.902L390.369 178.261L383.531 187.608L367.307 187.982L366.81 187.234C365.008 184.493 362.832 182.249 360.408 180.504L367.929 197.142C378.496 200.507 386.577 204.371 391.798 208.546C397.206 212.908 401.433 218.267 404.23 224.498C404.976 226.181 405.598 227.863 406.033 229.421L410.011 235.964L403.919 244.252L402.179 245.747C400.749 246.931 399.009 247.804 397.02 248.489L401.309 251.356L394.72 260.329L384.09 259.27L383.904 259.145ZM381.604 245.997L386.142 256.029L393.041 256.715L396.46 252.041L388.379 246.62L392.544 245.997C396.46 245.436 399.319 244.003 401.122 241.884L402.614 240.139L405.971 235.652L402.863 230.356C402.427 228.86 401.868 227.302 401.184 225.682C398.574 219.949 394.72 214.964 389.685 210.976C384.65 206.926 376.693 203.187 366.189 199.884L365.505 199.635L353.632 173.338L357.486 174.958C362.148 176.89 366.002 180.131 368.986 184.43L381.791 184.119L384.961 179.819L374.083 176.392L373.896 177.326L371.721 175.644C370.664 174.709 369.545 173.837 368.364 173.027C363.267 169.475 357.424 167.045 350.897 165.736L350.089 165.549L347.416 159.691H350.4L351.332 158.32L344.93 154.831L340.392 159.878H342.692L344.992 164.926H342.444C340.641 164.926 338.963 165.05 337.16 165.487L336.103 165.736L334.736 163.742L330.323 169.786C328.396 172.902 328.644 177.326 331.193 182.872C333.804 188.605 337.844 193.777 343.19 198.202C348.597 202.626 355.746 206.302 364.324 209.107L365.008 209.356L377.688 237.335L373.71 235.528C370.975 234.282 368.115 232.412 365.256 229.982C363.64 228.611 362.024 226.928 360.346 224.872L359.289 223.564L360.283 222.816L349.592 216.086L346.111 220.759C350.4 227.552 355.435 233.222 361.154 237.148C367.121 241.448 373.71 244.314 380.796 245.747L381.604 245.934V245.997ZM382.536 237.46L370.726 211.288L374.269 212.409C378.496 213.78 381.977 215.525 384.526 217.644C387.136 219.762 389.063 222.193 390.306 224.934C391.798 228.175 391.923 231.041 390.679 233.347C389.436 235.777 387.074 237.086 383.717 237.397H382.599L382.536 237.46ZM376.88 217.021L384.588 234.032C386.142 233.721 387.198 233.035 387.758 231.914C388.504 230.543 388.317 228.673 387.261 226.368C386.266 224.124 384.65 222.068 382.412 220.261C380.92 219.077 379.056 217.955 376.88 217.021ZM349.468 192.78C348.908 192.344 348.349 191.908 347.852 191.472C345.614 189.478 343.998 187.421 343.003 185.24C341.822 182.685 341.636 180.317 342.382 178.261C342.941 176.766 344.246 174.834 347.541 174.024L348.846 173.712L359.848 198.077L355.994 196.457C353.508 195.397 351.27 194.151 349.406 192.78H349.468ZM350.027 189.041C350.96 189.852 352.078 190.662 353.259 191.409L347.106 177.763C346.111 178.261 345.738 178.947 345.552 179.507C345.117 180.691 345.241 182.249 346.049 183.932C346.857 185.676 348.162 187.421 350.027 189.041Z" fill="#393939"/>
<path d="M379.366 227.24L368.799 203.872C359.972 201.005 352.7 197.266 347.105 192.718C341.511 188.106 337.346 182.81 334.611 176.827C331.876 170.721 331.628 165.798 333.928 162.059C336.228 158.32 340.703 156.513 347.354 156.575L344.868 151.029L353.632 151.902L356.119 157.448C362.832 158.819 368.861 161.311 374.207 164.988C379.49 168.664 383.966 173.4 387.509 179.071L373.026 179.382C370.104 174.896 366.375 171.718 361.713 169.724L371.534 191.534C382.35 194.899 390.368 198.7 395.59 202.875C400.873 207.05 404.851 212.16 407.524 218.204C410.57 224.934 410.943 230.355 408.581 234.53C406.219 238.705 401.371 240.949 393.974 241.198L398.698 251.605L389.933 250.732L385.333 240.575C377.999 239.079 371.223 236.151 365.069 231.726C358.916 227.302 353.57 221.32 349.032 213.904H364.137C366.126 216.958 368.488 219.637 371.223 221.943C373.958 224.249 376.631 226.056 379.304 227.24H379.366ZM352.948 168.664C350.897 169.163 349.592 170.222 348.97 171.905C348.349 173.525 348.535 175.456 349.53 177.575C350.4 179.569 351.892 181.439 353.943 183.246C355.994 185.053 358.543 186.611 361.651 187.919L352.948 168.602V168.664ZM388.504 228.86C391.301 228.611 393.166 227.614 394.16 225.744C395.155 223.875 394.968 221.569 393.725 218.765C392.606 216.272 390.803 214.029 388.441 212.097C386.017 210.166 382.785 208.483 378.745 207.174L388.566 228.922L388.504 228.86Z" fill="#FFBE2E"/>
<path d="M376.632 230.169L366.065 206.801C357.238 203.934 349.966 200.195 344.371 195.646C338.777 191.035 334.612 185.738 331.877 179.756C329.142 173.649 329.826 169.724 332.126 165.985C334.426 162.246 337.969 159.442 344.62 159.504L344.869 155.018L350.898 154.831L353.385 160.377C360.098 161.747 366.127 164.24 371.473 167.917C376.757 171.593 379.616 176.204 383.221 181.875L370.292 182.311C367.37 177.825 363.641 174.647 358.979 172.652L368.8 194.462C379.616 197.827 387.634 201.629 392.856 205.804C398.139 209.979 402.118 215.088 404.79 221.133C407.836 227.863 408.147 233.284 405.847 237.459C403.485 241.634 398.637 243.878 391.24 244.127L394.721 254.346L387.199 253.723L382.599 243.566C375.265 242.071 368.489 239.142 362.336 234.717C356.182 230.293 352.328 225.869 347.79 218.391L361.403 216.833C363.392 219.887 365.754 222.566 368.489 224.872C371.224 227.177 373.897 228.985 376.57 230.169H376.632ZM350.214 171.593C348.163 172.092 346.858 173.151 346.236 174.833C345.615 176.454 345.801 178.385 346.796 180.504C347.666 182.498 349.158 184.368 351.209 186.175C353.26 187.982 355.871 189.54 358.917 190.848L350.214 171.531V171.593ZM385.77 231.789C388.567 231.539 390.432 230.542 391.426 228.673C392.421 226.804 392.234 224.498 390.991 221.694C389.872 219.201 388.07 216.958 385.707 215.026C383.283 213.094 380.051 211.412 376.011 210.103L385.832 231.851L385.77 231.789Z" fill="#FFEECC"/>
<path d="M388.877 252.353L384.277 242.071C377.066 240.513 370.291 237.459 364.199 233.097C357.921 228.549 352.327 222.379 347.727 214.777L347.168 213.842L348.722 211.724L354.067 212.284H365.132L365.629 213.032C367.494 215.899 369.794 218.516 372.404 220.759C373.585 221.756 374.704 222.629 375.823 223.376L367.618 205.243C358.916 202.377 351.705 198.575 346.111 194.026C340.33 189.291 335.979 183.745 333.182 177.513C330.198 170.908 330.012 165.424 332.622 161.249C334.922 157.51 339.087 155.454 344.992 155.018L342.319 149.16L354.875 150.406L357.424 156.015C364.013 157.448 370.042 160.003 375.264 163.679C380.672 167.481 386.639 172.403 390.306 178.199L388.441 180.691L372.218 181.065L371.721 180.317C369.918 177.575 367.805 175.332 365.318 173.587L372.84 190.225C383.407 193.59 391.487 197.454 396.709 201.629C402.117 205.991 406.343 211.35 409.141 217.581C412.373 224.81 412.746 230.792 410.135 235.403C407.773 239.578 403.235 242.071 396.584 242.756L401.184 251.293L399.63 253.412L389.001 252.353H388.877ZM386.577 239.204L391.114 249.237L396.895 249.798L391.612 239.64H394.036C400.811 239.329 405.225 237.335 407.276 233.721C409.327 230.044 408.954 225.059 406.157 218.89C403.546 213.157 399.692 208.172 394.657 204.184C389.623 200.196 381.666 196.394 371.161 193.092L370.477 192.842L358.605 166.546L362.459 168.166C367.121 170.098 370.975 173.276 373.958 177.638L385.458 177.389C382.35 173.027 377.688 169.288 373.337 166.234C368.24 162.682 362.397 160.252 355.87 158.943L355.062 158.757L352.638 153.335L347.603 152.837L349.965 158.133H347.416C341.387 158.071 337.347 159.629 335.357 162.869C333.368 166.11 333.617 170.534 336.103 176.08C338.714 181.813 342.754 186.985 348.1 191.409C353.508 195.834 360.656 199.51 369.234 202.314L369.918 202.563L382.536 230.543L378.558 228.735C375.823 227.489 372.964 225.62 370.104 223.189C367.494 220.946 365.132 218.391 363.205 215.525H351.954C355.994 221.569 360.718 226.679 365.94 230.356C371.907 234.655 378.496 237.522 385.582 238.955L386.39 239.142L386.577 239.204ZM387.509 230.667L375.699 204.495L379.242 205.617C383.469 206.988 386.95 208.733 389.498 210.851C392.109 212.97 394.036 215.4 395.279 218.142C396.771 221.382 396.895 224.249 395.652 226.554C394.409 228.985 392.047 230.293 388.69 230.605H387.571L387.509 230.667ZM381.853 210.228L389.56 227.24C391.114 226.928 392.171 226.243 392.73 225.121C393.476 223.75 393.29 221.881 392.233 219.575C391.239 217.332 389.623 215.276 387.385 213.468C385.893 212.285 384.028 211.163 381.853 210.228ZM354.44 185.988C353.881 185.552 353.321 185.115 352.824 184.679C350.586 182.685 348.97 180.629 347.976 178.448C346.795 175.893 346.608 173.525 347.354 171.469C347.914 169.973 349.219 168.041 352.513 167.231L353.819 166.92L364.821 191.285L360.967 189.664C358.481 188.605 356.243 187.359 354.378 185.988H354.44ZM352.078 170.908C351.084 171.406 350.711 172.092 350.524 172.653C350.089 173.899 350.276 175.394 351.022 177.077C351.83 178.822 353.135 180.567 355 182.187C355.932 183.059 357.051 183.807 358.232 184.555L352.078 170.908Z" fill="#393939"/>
<path d="M341.945 262.199L329.016 279.834L351.02 291.113L373.957 299.525L402.737 301.581L425.86 295.412L436.676 287.685L446.497 273.727L424.368 284.383L396.645 283.386L361.587 272.917L341.945 262.199Z" fill="#393939"/>
<path d="M329.389 253.662L316.646 270.923L309.125 264.317L322.489 246.246L329.389 253.662Z" fill="#393939"/>
</svg>
