<svg width="56" height="56" viewBox="0 0 56 56" fill="none" xmlns="http://www.w3.org/2000/svg">
<g clip-path="url(#clip0_26_14507)">
<path d="M41.0086 32.3429L42.4778 28.6057C42.5401 28.4468 42.4942 28.2668 42.3629 28.1554L40.826 26.8533C40.9596 25.6894 40.9287 24.5133 40.7337 23.3578L42.2124 21.9658C42.3367 21.8488 42.3733 21.6682 42.3043 21.5133L40.668 17.8417C40.5984 17.685 40.4356 17.5884 40.2618 17.6013L38.2142 17.749C37.4853 16.8191 36.6147 16.0051 35.6332 15.3355L35.6933 13.3273C35.6987 13.1564 35.5934 13.0007 35.4308 12.9393L31.6238 11.4967C31.462 11.4355 31.2783 11.4807 31.165 11.6095L29.8385 13.1188C28.6529 12.9873 27.4545 13.0178 26.2775 13.2091L24.8594 11.7578C24.7401 11.6358 24.5562 11.5996 24.3984 11.6673L20.6583 13.2737C20.4987 13.3425 20.4005 13.5023 20.4134 13.6727L20.5639 15.6828C19.6168 16.3981 18.7877 17.2527 18.1058 18.2163L16.0599 18.1572C15.8855 18.1511 15.7267 18.2548 15.6646 18.415L14.1954 22.1525C14.1331 22.3113 14.1791 22.4914 14.3104 22.6026L15.8476 23.9051C15.7139 25.0687 15.7449 26.2451 15.9398 27.4003L14.4612 28.7923C14.3368 28.9094 14.3002 29.0899 14.3692 29.2448L16.0056 32.9164C16.0751 33.0736 16.2382 33.1702 16.412 33.1569L18.4596 33.0091C19.1885 33.939 20.0591 34.753 21.0406 35.4224L20.9805 37.4309C20.9754 37.6018 21.0804 37.7572 21.2431 37.8188L24.1658 38.9262V41.2269C24.1671 42.1461 24.9257 42.8908 25.862 42.8918H27.9259V44.1268C27.9259 44.3497 28.1096 44.53 28.3366 44.53C28.5634 44.53 28.7473 44.3497 28.7473 44.1268V42.8921H30.811C31.7474 42.8911 32.5061 42.1461 32.5072 41.2269V38.9905L36.0147 37.4842C36.1741 37.4156 36.2725 37.2558 36.2596 37.0854L36.1091 35.0751C37.0562 34.3598 37.8853 33.5051 38.5672 32.5416L40.6131 32.6006C40.7877 32.607 40.9468 32.5033 41.0086 32.3429ZM31.6858 35.788V36.7287H30.3444V31.4161C30.3449 30.9643 30.7176 30.5984 31.1778 30.5979C32.0915 30.5971 32.8321 29.87 32.8329 28.9731V28.7565C33.5473 28.5728 34.0465 27.9402 34.0495 27.215C34.0524 26.49 33.5583 25.8535 32.8454 25.6643C32.1324 25.4747 31.3789 25.7798 31.0088 26.4073C30.639 27.0352 30.7452 27.8284 31.2679 28.3408C31.4732 28.5424 31.7302 28.686 32.0115 28.7565V28.9734C32.011 29.4251 31.638 29.791 31.1778 29.7915C30.2642 29.7926 29.5241 30.5194 29.523 31.4163V36.7287H28.7754V24.9214C29.5736 24.7185 30.0936 23.9649 29.9893 23.162C29.8851 22.359 29.1893 21.7574 28.3647 21.7574C27.5404 21.7574 26.8444 22.359 26.7401 23.162C26.6361 23.9649 27.1559 24.7185 27.954 24.9214V36.7287H27.2067V31.4161C27.2056 30.5194 26.4652 29.7926 25.5516 29.7915C25.0915 29.791 24.7187 29.4248 24.7182 28.9731V28.7565C24.9994 28.686 25.2562 28.5424 25.4617 28.3411C25.989 27.8269 26.0978 27.0286 25.7265 26.3966C25.3553 25.7645 24.597 25.4571 23.8796 25.6477C23.1623 25.8383 22.6655 26.479 22.6695 27.2087C22.6735 27.9381 23.1773 28.5736 23.8968 28.7565V28.9734C23.8976 29.8703 24.6382 30.5974 25.5519 30.5981C26.012 30.5987 26.3847 30.9646 26.3853 31.4163V36.7287H24.9872V35.788C24.9914 34.0558 24.2577 32.4007 22.9636 31.2231C20.5513 29.0487 19.7452 25.644 20.9334 22.6481C22.1219 19.6521 25.061 17.679 28.3361 17.6787C28.361 17.6787 28.3861 17.6787 28.4107 17.679C31.4818 17.7073 34.2612 19.4704 35.5492 22.2076C36.8372 24.9448 36.4027 28.1654 34.4334 30.479C34.2212 30.7281 33.9933 30.9641 33.7514 31.1853C32.4441 32.3731 31.6963 34.0393 31.6858 35.788ZM31.8486 27.7704C31.5321 27.4596 31.5321 26.9554 31.8486 26.6446C32.1655 26.3336 32.6789 26.3336 32.9958 26.6446C33.3123 26.9554 33.3123 27.4596 32.9955 27.7704C32.8442 27.9211 32.6377 28.0059 32.4222 28.0059C32.2067 28.0061 32.0002 27.9211 31.8486 27.7704ZM27.7915 23.9355C27.4746 23.6248 27.4746 23.1205 27.7915 22.8097C28.108 22.4987 28.6217 22.4987 28.9383 22.8097C29.2551 23.1205 29.2551 23.6248 28.9383 23.9355C28.6214 24.246 28.1083 24.2458 27.7915 23.9355ZM23.734 27.7707C23.4173 27.4599 23.4173 26.9559 23.734 26.6449C24.0508 26.3341 24.5642 26.3341 24.8808 26.6449C25.1976 26.9559 25.1976 27.4599 24.8808 27.7707C24.7294 27.9213 24.523 28.0061 24.3075 28.0061C24.092 28.0061 23.8853 27.9213 23.734 27.7707ZM30.811 42.0858H25.8623C25.3794 42.0849 24.988 41.7009 24.9874 41.2269V41.0875H28.5863C28.8131 41.0875 28.9971 40.9069 28.9971 40.6843C28.9971 40.4615 28.8131 40.2812 28.5863 40.2812H24.9874V39.2829H26.0543C26.281 39.2829 26.4649 39.1024 26.4649 38.8798C26.4649 38.6569 26.281 38.4766 26.0543 38.4766H24.9872V37.535H31.6858V38.4763H28.3971C28.1703 38.4763 27.9864 38.6567 27.9864 38.8795C27.9864 39.1021 28.1703 39.2827 28.3971 39.2827H31.6858V40.2809H30.7268C30.5 40.2809 30.3161 40.4615 30.3161 40.6841C30.3161 40.9067 30.5 41.0873 30.7268 41.0873H31.6858V41.2267C31.6853 41.7007 31.2941 42.0849 30.811 42.0858ZM38.3666 31.7292C38.2252 31.7253 38.0915 31.793 38.0129 31.9087C37.318 32.9327 36.4471 33.8306 35.4391 34.5616C35.3257 34.6441 35.2634 34.7774 35.2738 34.9155L35.4193 36.8602L32.5075 38.1107V35.782C32.5188 34.259 33.1717 32.8085 34.3115 31.7751C36.1511 30.0937 37.1666 27.7179 37.1 25.2511C36.995 21.3401 34.2158 17.9908 30.3353 17.0989C26.4548 16.2069 22.4497 17.9968 20.5869 21.4556C18.7241 24.9143 19.4724 29.1715 22.4083 31.8174C23.5331 32.8418 24.1703 34.2816 24.1658 35.788V38.0616L21.8101 37.1692L21.8684 35.2252C21.8724 35.0861 21.8035 34.9549 21.6855 34.8777C20.6422 34.1958 19.7278 33.3408 18.9831 32.3513C18.8994 32.2397 18.7633 32.1783 18.6227 32.1888L16.6417 32.3318L15.2366 29.1794L16.666 27.8337C16.7655 27.74 16.8104 27.6035 16.7858 27.4702C16.5591 26.2564 16.5264 25.0157 16.6888 23.7922C16.7066 23.6576 16.6545 23.5234 16.55 23.4347L15.066 22.1777L16.3262 18.9717L18.3066 19.0289C18.4484 19.0339 18.5823 18.9659 18.6604 18.8497C19.355 17.8255 20.2259 16.9277 21.2339 16.1965C21.3473 16.1143 21.4099 15.9807 21.3994 15.8429L21.254 13.8982L24.4652 12.5191L25.8361 13.9223C25.9315 14.0202 26.0706 14.0643 26.2064 14.0399C27.4428 13.8176 28.707 13.7856 29.9537 13.9449C30.0906 13.9619 30.2273 13.9107 30.3174 13.8081L31.5979 12.3514L34.8637 13.5887L34.8054 15.5326C34.8013 15.6715 34.8703 15.8027 34.9883 15.8799C36.0313 16.5618 36.9457 17.417 37.6907 18.4066C37.7744 18.5181 37.9105 18.5793 38.0511 18.5688L40.0319 18.426L41.4369 21.5784L40.0072 22.9242C39.9075 23.0179 39.8626 23.1546 39.8875 23.2877C40.114 24.5014 40.1466 25.7422 39.9843 26.9659C39.9666 27.1003 40.0188 27.2344 40.1233 27.3231L41.607 28.5802L40.3465 31.7861L38.3666 31.7292Z" fill="#FCC217" stroke="#FCC217" stroke-miterlimit="10"/>
<path d="M27.9991 55.3254C43.0905 55.3254 55.3244 43.0915 55.3244 28.0001C55.3244 12.9088 43.0905 0.674805 27.9991 0.674805C12.9078 0.674805 0.673828 12.9088 0.673828 28.0001C0.673828 43.0915 12.9078 55.3254 27.9991 55.3254Z" stroke="#FCC21D" stroke-width="2"/>
</g>
<defs>
<clipPath id="clip0_26_14507">
<rect width="56" height="56" fill="white"/>
</clipPath>
</defs>
</svg>
