<svg width="40" height="46" viewBox="0 0 40 46" fill="none" xmlns="http://www.w3.org/2000/svg">
<path fill-rule="evenodd" clip-rule="evenodd" d="M0 0H40V46H0V0ZM21.8053 18.9622C22.7458 19.647 23.3933 20.6583 23.6195 21.7958V21.8001C23.7203 22.3024 23.7695 22.8137 23.7663 23.3259C23.7691 24.2503 23.5631 25.1635 23.1638 25.9982C23.0294 26.2754 22.8742 26.5421 22.6993 26.7959C22.343 27.3145 21.9119 27.7779 21.4197 28.1713C20.6028 28.8088 19.6763 29.2933 18.6852 29.6012C17.53 29.9621 16.3246 30.1387 15.1138 30.1243C15.0059 30.1243 14.8955 30.1209 14.7794 30.1173H14.7794H14.7794H14.7793H14.7793H14.7793H14.7793H14.7792H14.7792H14.7792H14.7791H14.7791L14.7789 30.1173H14.7788H14.7788H14.7787H14.7786H14.7786H14.7785H14.7785H14.7784H14.7784H14.7783H14.7782H14.7782H14.7781C14.6495 30.1133 14.5138 30.109 14.3667 30.109C9.01828 29.9107 6.15018 27.2755 5.90259 22.9161H10.2497C10.2466 23.0143 10.2503 23.1126 10.2606 23.2104C10.3022 25.5448 11.8776 26.6782 15.0809 26.6782C16.5468 26.6782 17.6576 26.3949 18.3807 25.8347C18.7182 25.5891 18.9907 25.2655 19.1747 24.8919C19.3586 24.5183 19.4486 24.1058 19.4368 23.6899C19.4494 23.3504 19.3811 23.0128 19.2374 22.7047C19.0546 22.4119 18.7906 22.178 18.4771 22.0312C17.9113 21.7472 17.3192 21.5187 16.7089 21.3489C15.9355 21.1179 14.9035 20.8454 13.6589 20.5381C12.4144 20.2308 11.3364 19.9256 10.46 19.6292C9.64614 19.3713 8.87959 18.9841 8.19005 18.4827C7.59393 18.0408 7.12415 17.4518 6.82722 16.7738C6.52004 15.9919 6.37472 15.1564 6.39996 14.3173C6.3915 13.4549 6.5882 12.6027 6.97402 11.8303C7.36479 11.0626 7.92417 10.3921 8.61074 9.8686C9.37555 9.29593 10.2381 8.86543 11.1567 8.59785C12.2292 8.28345 13.3429 8.12992 14.4609 8.14229C15.4734 8.13575 16.4844 8.21817 17.4823 8.3886C18.5324 8.55428 19.5435 8.90803 20.4666 9.43266H20.4819L20.6747 9.55472C21.2562 9.93202 21.7561 10.4211 22.1449 10.9933C22.3017 11.2238 22.4381 11.4673 22.5525 11.7213C22.6094 11.8303 22.6532 11.948 22.6905 12.0483C22.937 12.7217 23.071 13.4308 23.0871 14.1473V14.4568H18.7729C18.7707 14.3936 18.7663 14.2933 18.7532 14.1756C18.7203 13.6617 18.5518 13.1655 18.2645 12.737C17.6511 11.9218 16.4635 11.5208 14.68 11.5208C14.1525 11.5208 13.6266 11.577 13.1112 11.6886C12.6668 11.7807 12.239 11.9394 11.8426 12.1594C11.5123 12.3451 11.2308 12.6058 11.0209 12.9201C10.8277 13.2267 10.7287 13.5828 10.7361 13.9446C10.728 14.2492 10.7657 14.5534 10.8478 14.847C10.9607 15.0839 11.1539 15.2737 11.3934 15.3832C11.9027 15.6493 12.4408 15.8569 12.9972 16.0022C13.7553 16.218 14.8136 16.4904 16.1283 16.8109C17.3794 17.1182 18.4837 17.4342 19.4149 17.7525C19.5441 17.7961 19.68 17.8462 19.8333 17.9051C20.5367 18.165 21.2003 18.5207 21.8053 18.9622ZM7.46939 35.1659C7.77806 35.229 8.06995 35.356 8.3261 35.5386L8.31733 35.5342C8.42119 35.6134 8.50472 35.7159 8.56109 35.8333C8.61745 35.9508 8.64505 36.0798 8.64161 36.2099C8.64379 36.3483 8.61054 36.4849 8.54499 36.6069C8.47944 36.7289 8.38376 36.8324 8.26694 36.9074C8.00093 37.0776 7.68902 37.1627 7.37299 37.1516C7.04488 37.159 6.72182 37.0703 6.44397 36.8965C6.30973 36.814 6.20039 36.6969 6.1275 36.5576C6.05461 36.4183 6.02088 36.2621 6.02986 36.1053V35.9702H6.5601V36.0944C6.55267 36.1801 6.5692 36.2662 6.60787 36.3431C6.64653 36.4201 6.70583 36.4849 6.77921 36.5304C6.96332 36.6387 7.17447 36.6931 7.38832 36.6873C7.58473 36.6979 7.77969 36.6484 7.94704 36.5456C8.00474 36.5122 8.05243 36.4641 8.08517 36.4063C8.11792 36.3484 8.13453 36.2829 8.13328 36.2165C8.13554 36.1544 8.12278 36.0927 8.09609 36.0366C8.0694 35.9805 8.02956 35.9315 7.97991 35.8939C7.78006 35.7649 7.55676 35.676 7.32259 35.6323C7.01393 35.571 6.72053 35.4495 6.45931 35.2749C6.35543 35.2005 6.27125 35.1021 6.21401 34.9882C6.15676 34.8743 6.12816 34.7483 6.13065 34.621C6.12914 34.4855 6.1616 34.3517 6.22511 34.2318C6.28861 34.112 6.38116 34.0097 6.49437 33.9344C6.75169 33.759 7.05912 33.671 7.37079 33.6837C7.69942 33.6694 8.02174 33.7765 8.2757 33.9845C8.38777 34.0748 8.47732 34.1897 8.53738 34.3201C8.59743 34.4506 8.62636 34.5931 8.62189 34.7365V34.8716H8.11137V34.7474C8.11407 34.6668 8.0983 34.5867 8.06528 34.513C8.03226 34.4394 7.98283 34.3742 7.92075 34.3223C7.76357 34.2008 7.5673 34.1404 7.3686 34.1523C7.17761 34.1407 6.98792 34.1904 6.82741 34.294C6.77416 34.329 6.73047 34.3766 6.70026 34.4325C6.67005 34.4884 6.65427 34.5509 6.65432 34.6144C6.65404 34.6729 6.6683 34.7306 6.69582 34.7823C6.72334 34.834 6.76327 34.8782 6.81207 34.9109C7.01262 35.0372 7.23582 35.1238 7.46939 35.1659ZM11.6854 34.4989C11.4834 34.4936 11.2846 34.5499 11.1157 34.6602C11.0319 34.7213 10.958 34.7948 10.8966 34.8782C10.8396 34.7911 10.765 34.7169 10.6775 34.6602C10.5171 34.5555 10.3282 34.5022 10.1363 34.5076C9.95096 34.503 9.76777 34.5481 9.60609 34.6384C9.56288 34.6612 9.52306 34.6898 9.48777 34.7234V34.5512H8.96191V37.1145H9.48558V35.3708C9.5186 35.255 9.58576 35.1518 9.67839 35.0744C9.7861 34.9943 9.91888 34.9549 10.0531 34.9632C10.1179 34.9593 10.1828 34.9698 10.243 34.9939C10.3033 35.0181 10.3574 35.0552 10.4014 35.1027C10.5048 35.2567 10.5513 35.4416 10.5329 35.6258V37.1145H11.0566V35.5277V35.5168C11.0738 35.3654 11.1364 35.2227 11.2362 35.1071C11.2876 35.056 11.3494 35.0165 11.4174 34.9913C11.4855 34.9661 11.5582 34.9558 11.6306 34.961C11.6953 34.9569 11.7601 34.967 11.8203 34.9908C11.8806 35.0145 11.9348 35.0513 11.979 35.0983C12.0797 35.2542 12.1245 35.4393 12.1061 35.6236V37.1145H12.6297V35.6324C12.6519 35.3303 12.5666 35.0302 12.3887 34.7845C12.3014 34.6865 12.193 34.6094 12.0716 34.5589C11.9503 34.5083 11.819 34.4856 11.6876 34.4924L11.6854 34.4989ZM14.5684 36.3124V35.9789L14.1499 35.9767C13.9685 35.9671 13.7883 36.0119 13.6328 36.1053C13.5834 36.1316 13.542 36.1705 13.5127 36.218C13.4834 36.2655 13.4674 36.3199 13.4663 36.3756C13.4644 36.4169 13.4721 36.458 13.4888 36.4958C13.5055 36.5336 13.5308 36.5671 13.5627 36.5936C13.6468 36.6568 13.7511 36.6878 13.8563 36.6808C14.0143 36.6842 14.1702 36.645 14.3076 36.5674C14.417 36.5087 14.5075 36.4202 14.5684 36.3124ZM14.0579 34.4967C14.319 34.4838 14.5767 34.5608 14.7875 34.7147L14.7962 34.7212C14.893 34.7999 14.97 34.9 15.0209 35.0136C15.0719 35.1271 15.0955 35.2509 15.0898 35.3751V37.1189H14.5793V36.9009C14.5205 36.9456 14.4582 36.9857 14.3931 37.0208C14.2181 37.1118 14.0231 37.1583 13.8256 37.1559C13.5915 37.1673 13.3619 37.0893 13.1836 36.938C13.1051 36.8645 13.0434 36.7751 13.0025 36.6758C12.9617 36.5765 12.9428 36.4697 12.947 36.3625C12.9455 36.2377 12.9769 36.1147 13.038 36.0058C13.0991 35.8968 13.1878 35.8056 13.2954 35.7413C13.5539 35.5862 13.8526 35.5103 14.1543 35.5234H14.5684V35.3577C14.572 35.3019 14.5629 35.2461 14.5416 35.1943C14.5204 35.1426 14.4876 35.0963 14.4457 35.0591C14.3327 34.9778 14.1947 34.9385 14.0557 34.9479C13.9157 34.9422 13.7775 34.9812 13.6613 35.0591C13.6208 35.0835 13.5872 35.1177 13.5634 35.1585C13.5397 35.1992 13.5266 35.2452 13.5254 35.2923V35.4166H13.0215V35.2836C13.0193 35.1718 13.0454 35.0613 13.0975 34.9622C13.1496 34.8632 13.2259 34.7788 13.3195 34.7169C13.5336 34.5628 13.7938 34.4852 14.0579 34.4967ZM16.6723 34.4989C16.6329 34.4955 16.5934 34.4955 16.554 34.4989C16.3776 34.4953 16.2043 34.5447 16.0566 34.6406C16.0257 34.6601 15.9964 34.682 15.969 34.706V34.5403H15.4453V37.1145H15.969V35.3991C16.0017 35.2837 16.0671 35.18 16.1574 35.1005C16.2583 35.024 16.3778 34.9756 16.5038 34.9603C16.6297 34.9449 16.7574 34.9633 16.8739 35.0133V34.5512L16.7665 34.5229C16.736 34.5127 16.7044 34.5061 16.6723 34.5033V34.4989ZM18.4052 36.6786L18.5476 36.6612L18.6703 36.6372L18.7579 37.0448L18.6615 37.0862C18.5994 37.1104 18.5347 37.1272 18.4687 37.1363C18.3962 37.1478 18.323 37.1536 18.2496 37.1538C18.1577 37.1584 18.0659 37.1433 17.9805 37.1094C17.895 37.0756 17.8179 37.0238 17.7544 36.9576C17.626 36.7942 17.5635 36.589 17.5791 36.3822V34.9893H17.1562V34.5294H17.5791V33.9344H18.105V34.5294H18.633V34.9893H18.0962V36.3822C18.0962 36.5326 18.1247 36.5979 18.151 36.6241C18.1684 36.6429 18.1898 36.6576 18.2137 36.667C18.2376 36.6765 18.2634 36.6804 18.289 36.6786H18.4052ZM20.9969 35.5953H22.5811V35.1267H20.9969V34.1959H22.8002V33.7295H20.4755V37.1124H22.8133V36.6437H20.9969V35.5953ZM24.2596 35.5691C24.5109 35.6114 24.7506 35.7057 24.9629 35.846L24.9761 35.8481C25.0617 35.9086 25.1309 35.9892 25.1775 36.0828C25.2242 36.1763 25.2468 36.28 25.2434 36.3843C25.2449 36.4968 25.2183 36.6079 25.1659 36.7076C25.1134 36.8073 25.0369 36.8925 24.9432 36.9554C24.7153 37.0938 24.4526 37.1649 24.1856 37.1602C23.9187 37.1556 23.6586 37.0755 23.4357 36.9293C23.3157 36.8379 23.225 36.7137 23.175 36.5718C23.1368 36.4566 23.1278 36.3338 23.1487 36.2143H23.6461V36.3298C23.6453 36.3838 23.6592 36.4369 23.6862 36.4837C23.7131 36.5305 23.7523 36.5692 23.7995 36.5958C23.9247 36.6621 24.0651 36.6952 24.207 36.6917C24.3441 36.7003 24.4805 36.666 24.597 36.5936C24.6319 36.5736 24.661 36.5451 24.6817 36.5108C24.7024 36.4764 24.714 36.4374 24.7153 36.3974C24.7146 36.3601 24.7053 36.3235 24.6882 36.2902C24.6711 36.257 24.6467 36.2281 24.6167 36.2056C24.4818 36.1125 24.3262 36.0534 24.1632 36.0334C23.9168 35.9932 23.6808 35.905 23.4686 35.774C23.3848 35.7158 23.3171 35.6376 23.2715 35.5466C23.226 35.4556 23.2041 35.3547 23.2079 35.2531C23.2078 35.1458 23.2333 35.04 23.2825 34.9445C23.3316 34.849 23.4029 34.7665 23.4905 34.7038C23.6934 34.554 23.9414 34.4772 24.1938 34.4858C24.4572 34.4715 24.7174 34.5486 24.93 34.7038C25.0257 34.784 25.1008 34.8856 25.1491 35.0003C25.2081 35.1376 25.2249 35.2893 25.1973 35.4362H24.6912V35.3119C24.6905 35.2651 24.6788 35.2191 24.6571 35.1775C24.6354 35.1358 24.6044 35.0998 24.5663 35.0722C24.4572 34.9914 24.3231 34.9513 24.1873 34.9588C24.0588 34.9476 23.9304 34.9807 23.8236 35.0526C23.7929 35.0735 23.7677 35.1015 23.7502 35.1341C23.7327 35.1667 23.7233 35.203 23.7228 35.24C23.7215 35.2728 23.7281 35.3053 23.7423 35.3349C23.7564 35.3646 23.7775 35.3903 23.8038 35.41C23.942 35.4961 24.0977 35.5505 24.2596 35.5691ZM26.7307 36.6612L26.597 36.6786H26.4809C26.4553 36.6804 26.4295 36.6765 26.4056 36.667C26.3817 36.6576 26.3603 36.6429 26.3429 36.6241C26.2969 36.5522 26.2775 36.4667 26.2881 36.3822V34.9893H26.8249V34.5294H26.2925V33.9344H25.7666V34.5294H25.3438V34.9893H25.7666V36.3822C25.7507 36.5894 25.8141 36.7949 25.9441 36.9576C26.0071 37.0238 26.0838 37.0757 26.1689 37.1096C26.254 37.1434 26.3455 37.1585 26.4371 37.1538C26.5105 37.1537 26.5837 37.1479 26.6562 37.1363C26.7223 37.1275 26.787 37.1106 26.849 37.0862L26.9454 37.0448V36.6372L26.7307 36.6612ZM28.5058 36.5674C28.6144 36.5076 28.7046 36.4195 28.7665 36.3124L28.7577 35.9746H28.3392C28.1578 35.9649 27.9777 36.0097 27.8222 36.1032C27.7728 36.1295 27.7313 36.1683 27.7021 36.2158C27.6728 36.2633 27.6568 36.3177 27.6556 36.3734C27.6538 36.4145 27.6613 36.4554 27.6776 36.4932C27.694 36.5309 27.7186 36.5645 27.7498 36.5914C27.835 36.6543 27.9398 36.6852 28.0456 36.6786C28.2064 36.6842 28.3656 36.6458 28.5058 36.5674ZM28.256 34.4967C28.5172 34.4838 28.7748 34.5608 28.9856 34.7147V34.7256C29.0824 34.8043 29.1593 34.9044 29.2103 35.0179C29.2613 35.1315 29.2849 35.2553 29.2792 35.3795V37.1232H28.841L28.8191 37.0273L28.8145 37.0085L28.8085 36.9856L28.8085 36.9856C28.8003 36.9548 28.7928 36.9268 28.7928 36.9009C28.7294 36.9507 28.662 36.9952 28.5912 37.0339C28.4162 37.1249 28.2212 37.1713 28.0237 37.169C27.7896 37.1808 27.5598 37.1028 27.3818 36.951C27.3029 36.8777 27.2409 36.7883 27.1997 36.6891C27.1585 36.5898 27.1391 36.4829 27.1429 36.3756C27.1417 36.2506 27.1734 36.1275 27.2349 36.0185C27.2964 35.9095 27.3856 35.8184 27.4935 35.7544C27.752 35.5992 28.0508 35.5234 28.3524 35.5364H28.7577V35.3708C28.7615 35.3148 28.7521 35.2587 28.7305 35.2069C28.7088 35.1551 28.6754 35.109 28.6328 35.0722C28.5208 34.9909 28.3834 34.9515 28.245 34.961C28.105 34.9553 27.9668 34.9942 27.8506 35.0722C27.8102 35.0966 27.7765 35.1308 27.7528 35.1715C27.7291 35.2123 27.716 35.2583 27.7148 35.3054V35.4296H27.2481L27.213 35.3141C27.2073 35.1998 27.2313 35.086 27.2828 34.9837C27.3342 34.8814 27.4113 34.794 27.5066 34.73C27.7222 34.5692 27.9867 34.4868 28.256 34.4967ZM30.9424 36.6612L30.8087 36.6786H30.6926C30.6669 36.6804 30.6412 36.6765 30.6173 36.667C30.5934 36.6576 30.5719 36.6429 30.5545 36.6241C30.5085 36.5522 30.4892 36.4667 30.4998 36.3822V34.9893H31.0366V34.5294H30.4998V33.9344H29.9739V34.5294H29.551V34.9893H29.9739V36.3822C29.958 36.5894 30.0214 36.7949 30.1514 36.9576C30.2144 37.0238 30.2911 37.0757 30.3762 37.1096C30.4613 37.1434 30.5528 37.1585 30.6444 37.1538C30.7178 37.1537 30.791 37.1479 30.8635 37.1363C30.9296 37.1275 30.9943 37.1106 31.0563 37.0862L31.1527 37.0448L31.0672 36.6372L30.9424 36.6612ZM32.0509 35.1376C31.9597 35.2357 31.8963 35.356 31.8668 35.4863H33.0303C33.023 35.351 32.9688 35.2224 32.8769 35.1223C32.8218 35.0692 32.7566 35.0274 32.6852 34.9994C32.6138 34.9715 32.5375 34.9578 32.4607 34.9592C32.384 34.9606 32.3083 34.9771 32.2379 35.0077C32.1676 35.0383 32.104 35.0825 32.0509 35.1376ZM33.2604 34.8019C33.4616 35.0224 33.5671 35.313 33.554 35.6106V35.9549H31.8274C31.8326 36.1428 31.8987 36.324 32.0158 36.4715C32.0733 36.5424 32.1466 36.5991 32.2299 36.6369C32.3132 36.6747 32.4042 36.6927 32.4957 36.6895C32.6267 36.693 32.7573 36.6731 32.8813 36.6306C32.9797 36.5967 33.0689 36.5408 33.142 36.4672L33.2538 36.3582L33.5079 36.7483L33.4378 36.8181C33.3254 36.9281 33.191 37.0135 33.0434 37.0688C32.8678 37.1314 32.6822 37.1617 32.4957 37.1581C32.3354 37.1619 32.1761 37.1313 32.0287 37.0685C31.8812 37.0057 31.7491 36.9121 31.6412 36.7941C31.4129 36.5496 31.2908 36.2253 31.3016 35.8917V35.774C31.2912 35.4381 31.4112 35.111 31.6368 34.8608C31.7397 34.7442 31.8664 34.6509 32.0085 34.587C32.1506 34.5231 32.3047 34.4901 32.4606 34.4902C32.6085 34.483 32.7562 34.507 32.8941 34.5607C33.0319 34.6145 33.1568 34.6967 33.2604 34.8019ZM33.3326 8.4649H20.8545C21.3758 8.71035 21.8544 9.03706 22.2721 9.43268C22.5726 9.72007 22.8394 10.0403 23.0675 10.3874C23.2565 10.6639 23.4221 10.9555 23.5626 11.2592C23.6306 11.4075 23.6832 11.5339 23.7292 11.6581C23.7949 11.8303 23.8497 12.0069 23.9023 12.1878H33.3238L33.3326 8.4649ZM22.1473 17.9705L31.3498 17.9574L31.3476 21.7849H24.735C24.7307 21.7593 24.7271 21.7314 24.7233 21.7026L24.7233 21.7025L24.7233 21.7023C24.7175 21.6575 24.7114 21.6106 24.7021 21.5669C24.5624 20.8683 24.2903 20.2026 23.9002 19.6052C23.4404 18.9417 22.8426 18.3841 22.1473 17.9705ZM33.3322 26.7502H24.007C23.6942 27.3371 23.2988 27.8766 22.8326 28.3522C22.8133 28.3725 22.7955 28.3934 22.7775 28.4144C22.7588 28.4364 22.7399 28.4586 22.7187 28.4808C22.6924 28.5083 22.653 28.5428 22.6133 28.5776C22.59 28.598 22.5666 28.6185 22.5456 28.6377C22.4426 28.7337 22.3396 28.8252 22.2345 28.908L22.1293 28.9996C21.6108 29.4078 21.0487 29.7579 20.4531 30.0436H33.3409L33.3322 26.7502Z" fill="#FCC214"/>
</svg>
