<svg width="23" height="20" viewBox="0 0 23 20" fill="none" xmlns="http://www.w3.org/2000/svg">
<path d="M19.0606 16.2826V17.021H20.5703V20H21.3384V17.021H22.5936L22.9709 16.2826H19.0606Z" fill="#B8C0CC"/>
<path d="M18.7427 16.2826H16.6526L16.0873 16.8363V20H16.8423V17.2182L17.0441 17.021H18.3718L18.7427 16.2826Z" fill="#B8C0CC"/>
<path d="M7.19075 16.2826H5.47913L4.91948 16.8363V20H5.67424V17.2054L5.84908 17.0402H7.02268L7.3924 17.3965V20H8.14739V17.3965L8.51846 17.0402H9.67674L9.85248 17.2054V20H10.6075V16.8363L10.0478 16.2826H8.33619L7.76347 16.8363L7.19075 16.2826Z" fill="#B8C0CC"/>
<path d="M2.06017 5.45162L0 7.48992V11.5899L2.10388 13.6515H23L21.6146 10.9339H2.77866V8.1695H13.2748L15.3068 6.17792V2.00767L13.2748 0.0163071H0.0238831L1.38922 2.73396H12.5282V5.45162H2.06017Z" fill="#B8C0CC"/>
<path d="M3.50075 19.0749L3.31848 19.2616H0.461194L0.0838147 20H3.69045L4.25551 19.4526V18.326L3.69045 17.772H1.02107L0.85187 17.6003V17.2054L1.03391 17.021H3.88557L4.26205 16.2826H0.642337L0.0838147 16.8363V17.9566L0.643464 18.5104H3.33132L3.50075 18.6834V19.0749Z" fill="#B8C0CC"/>
<path fill-rule="evenodd" clip-rule="evenodd" d="M11.2584 18.3301L11.818 17.7784H14.6751V17.021H11.6357L11.2714 16.2826H14.8648L15.4301 16.8363V19.4526L14.8648 20H11.83L11.2584 19.4407V18.3301ZM14.6751 19.2488H12.0262V18.5168H14.6751V19.2488Z" fill="#B8C0CC"/>
<path fill-rule="evenodd" clip-rule="evenodd" d="M16.4665 6.1312L17.153 5.45074L17.1602 5.44347H17.1705H21.593H21.6333L21.6153 5.47872L21.153 6.38571L21.146 6.39915H21.1307H17.4366V7.26537H20.8988H20.909L20.9164 7.27265L21.6106 7.95024L21.618 7.95751V7.96743V9.34753V9.35766L21.6106 9.36471L20.9162 10.0359L20.9087 10.043H20.8988H17.1865H17.1764L17.1689 10.0359L16.4667 9.34775L16.4595 9.34069V9.33056V6.14817V6.13825L16.4665 6.1312ZM17.4366 8.22106H20.6409V9.08728H17.4366V8.22106Z" fill="#B8C0CC"/>
<path fill-rule="evenodd" clip-rule="evenodd" d="M16.4665 0.687734L17.153 0.00727277L17.1602 0H17.1705H21.593H21.6333L21.6153 0.0352579L21.153 0.942245L21.146 0.955688H21.1307H17.4366V1.82191H20.8988H20.909L20.9164 1.82918L21.6106 2.50677L21.618 2.51405V2.52396V3.90406V3.91419L21.6106 3.92147L20.9162 4.59245L20.9087 4.5995H20.8988H17.1865H17.1764L17.1689 4.59245L16.4667 3.90428L16.4595 3.89723V3.88709V0.7047V0.694785L16.4665 0.687734ZM17.4366 2.77759H20.6409V3.64381H17.4366V2.77759Z" fill="#B8C0CC"/>
</svg>
