<svg width="23" height="19" viewBox="0 0 23 19" fill="none" xmlns="http://www.w3.org/2000/svg">
<path d="M22.6188 0.381215V13.0884H0.381215V0.381215H22.6188ZM23 0H0V13.4696H23V0Z" fill="#B8C0CC"/>
<path d="M6.11254 9.82218V4.44704H4.81641L5.21033 3.64648H7.04016V9.82218H6.11254Z" fill="#B8C0CC"/>
<path d="M11.678 9.82218V4.44704H10.3945L10.7885 3.64648H12.6183V9.82218H11.678Z" fill="#B8C0CC"/>
<path d="M17.2571 9.82218V4.44704H15.9609L16.3549 3.64648H18.1847V9.82218H17.2571Z" fill="#B8C0CC"/>
<path d="M0.189619 16.0619C0.418349 15.7823 0.659785 15.668 1.01559 15.668C1.30785 15.668 1.48575 15.7569 1.61282 15.8586C1.79072 16.0111 1.84155 16.1763 1.84155 16.3669C1.84155 16.6845 1.65095 16.8497 1.51117 16.9387C1.85426 17.0276 2.01945 17.3072 2.01945 17.6249C2.01945 17.8917 1.9305 18.1205 1.66365 18.2984C1.48575 18.4127 1.24432 18.4763 1.02829 18.4763C0.520006 18.4763 0.202326 18.2221 0.0117188 17.8282L0.380227 17.6376C0.54542 18.0696 0.939343 18.095 1.07912 18.095C1.18078 18.095 1.32056 18.0696 1.42222 18.0061C1.58741 17.9044 1.61282 17.7647 1.61282 17.6503C1.61282 17.2182 1.2189 17.1801 0.977464 17.1801H0.710614V16.7989H0.95205C1.24432 16.7989 1.43492 16.6464 1.43492 16.3923C1.43492 16.3033 1.40951 16.2271 1.34597 16.1508C1.24432 16.0619 1.12995 16.0365 1.02829 16.0365C0.875807 16.0365 0.659785 16.0619 0.481884 16.316L0.189619 16.0619Z" fill="#B8C0CC"/>
<path d="M5.88322 16.1H4.80311V16.748H5.8451V17.1293H4.80311V18.0315H5.88322V18.4127H4.39648V15.7061H5.88322V16.1Z" fill="#B8C0CC"/>
<path d="M10.4064 15.7188V18.4254H9.98707V16.1H9.09757V17.4469C9.09757 17.7646 9.07215 18.0696 8.81801 18.2729C8.71635 18.3491 8.56387 18.4381 8.34785 18.4381C8.2716 18.4381 8.20807 18.4254 8.14453 18.4127V18.0315C8.16995 18.0442 8.23348 18.0569 8.28431 18.0569C8.37326 18.0569 8.48762 18.0188 8.53845 17.9679C8.66553 17.8409 8.67823 17.5359 8.67823 17.3199V15.7061H10.4064V15.7188Z" fill="#B8C0CC"/>
<path d="M14.1557 16.1H13.0756V16.748H14.1176V17.1293H13.0756V18.0315H14.1557V18.4127H12.6562V15.7061H14.1557V16.1Z" fill="#B8C0CC"/>
<path d="M16.976 16.7735H18.1323V15.7188H18.5517V18.4254H18.1323V17.1547H16.976V18.4127H16.5566V15.7061H16.976V16.7735Z" fill="#B8C0CC"/>
<path d="M22.2625 17.7647H21.1189L20.8266 18.4255H20.3691L21.7161 15.5664L22.9995 18.4255H22.5548L22.2625 17.7647ZM22.0973 17.3835L21.6907 16.4686L21.2714 17.3835H22.0973Z" fill="#B8C0CC"/>
</svg>
