<svg width="1920" height="676" viewBox="0 0 1920 676" fill="none" xmlns="http://www.w3.org/2000/svg">
<path d="M1920 18H0V658H1920V18Z" fill="#403E3D"/>
<mask id="mask0_185_2981" style="mask-type:luminance" maskUnits="userSpaceOnUse" x="0" y="18" width="1920" height="640">
<path d="M1920 18H0V658H1920V18Z" fill="white"/>
</mask>
<g mask="url(#mask0_185_2981)">
<g opacity="0.4">
<path d="M-15.9004 430.6L-17.4004 429.3L6.19961 401.2L22.2996 392.3L93.7996 358.5L123.3 342.2L159.1 301.1L175.7 285L202.1 269.8L222.7 262.3L248.7 238.1L316 175.2L322.1 166.1L337.5 115.4V84.7997L347.5 41.0997L305.7 35.8997L256.9 41.1997H256.8L204.6 32.2997L188.2 35.3997L171.7 32.2997H161.1L144.9 12.4997L146.4 11.1997L162.1 30.2997H172L188.2 33.3997L204.6 30.2997H204.8L257 39.1997L305.7 33.8997H305.8L349.9 39.2997L339.5 85.0997V115.7L323.8 167.1L317.5 176.6L250.1 239.6L223.8 264.1L202.8 271.7L176.8 286.6L160.5 302.5L124.6 343.8L124.4 343.9L94.6996 360.3L23.2996 394L7.49961 402.8L-15.9004 430.6Z" fill="white"/>
<path d="M267.7 356.9L265.9 356.2L292.6 275.8L256 232.6L257.5 231.3L294.9 275.4L267.7 356.9Z" fill="white"/>
<path d="M442.999 333.9H435.199V331.9H442.399L448.399 328.5L471.599 310.1H565.099L575.799 299.5H585.099V301.5H576.599L565.899 312.1H472.299L449.399 330.1L442.999 333.9Z" fill="white"/>
<path d="M490.7 561L452.5 545.7L453.2 543.8L487.9 557.7L486.6 551.8L480.7 545.5L461.1 537.2C458.1 536.7 436.9 533.3 435 532.8C432.9 532.6 400.8 534.3 379.6 535.5L365.6 540.8L350.4 546L347.8 537.3L350 508.1L356 498.4L365.5 492.5L374.6 488L389.2 482.7L423.7 473.1L428.9 453.2L434.2 439.1L436.1 439.8L430.8 453.9L425.3 474.8L389.7 484.7L375.2 490L366.4 494.4L357.4 500L351.9 508.9L349.7 537.3L351.6 543.7L364.8 539.2L379.3 533.8C395.8 532.9 434.2 530.7 435.5 531.2C436.5 531.5 451.6 534 461.5 535.6L461.7 535.7L481.8 544.2L488.3 551.2L490.7 561Z" fill="white"/>
<path d="M500.9 551.9L488.6 549.2L473.3 522.1L472 505.2L468 504.7L468.2 502.7L480 504.2L481.8 510L500.8 542.7V551.9H500.9ZM489.9 547.4L498.9 549.4V543.3L480 510.7L478.5 506L474 505.4L475.3 521.5L489.9 547.4Z" fill="white"/>
<path d="M426.544 466.26L426.104 468.211L475.562 479.365L476.002 477.414L426.544 466.26Z" fill="white"/>
<path d="M349.399 541.7L311.699 527.7L330.299 484.6L343.199 482.3L350.699 462.6L400.099 479.8L399.499 481.7L351.899 465.1L344.699 484L331.699 486.4L314.399 526.6L350.099 539.9L349.399 541.7Z" fill="white"/>
<path d="M349.041 469.656L348.269 471.5L383.873 486.404L384.645 484.559L349.041 469.656Z" fill="white"/>
<path d="M346.959 475.53L346.155 477.361L374.542 489.823L375.346 487.992L346.959 475.53Z" fill="white"/>
<path d="M467.2 622.9L457.9 608.1L449.1 598.1L435 588.1L436.2 586.5L450.6 596.7L459.5 607L468.9 621.8L467.2 622.9Z" fill="white"/>
<path d="M440.499 631.9L423.199 616.9L424.499 615.3L440.499 629.2L460.199 610.3L461.599 611.7L440.499 631.9Z" fill="white"/>
<path d="M459.7 603L452.8 601.9L453.1 599.9L459.4 600.9L467.1 597.5V592.5H456.6L450.5 598.1L449.1 596.6L455.9 590.5H469.1V598.8L459.7 603Z" fill="white"/>
<path d="M418.4 656.6L415.5 648.3L438.9 576.5L440.8 577.1L417.7 648.2L419.7 654.1L423.6 652.9L453.5 638.2L471.5 617.2L482.9 626.9L485 634.5L493.3 643L524.1 630V637.3L513.1 654.5L494.6 647.3L483.2 635.7L481.2 628.2L471.8 620.2L454.8 640L454.6 640.1L424.3 655L418.4 656.6ZM495.6 645.5L512.1 652L521.9 636.7V633L494.6 644.6L495.6 645.5Z" fill="white"/>
<path d="M657.199 114.7L655.199 114.3L663.899 64.4001L663.999 64.3001L677.199 43.3001L678.899 37.8001V24.1001H680.899V38.3001L678.999 44.3001L665.799 65.2001L657.199 114.7Z" fill="white"/>
<path d="M614 77.3999L612.8 75.6999L620.3 70.3999L622.1 62.1999L624.8 56.1999L622.1 39.6999L624 39.3999L626.9 56.4999L624 62.8999L622.1 71.5999L614 77.3999Z" fill="white"/>
<path d="M616.7 59L596 55.8L566.5 50.9L538.8 46.1L526.1 44.7L508.3 40.5L489.1 37.6L475.8 31.7L470.9 25.6L465.1 15L466.9 14L472.6 24.6L477 30.1L489.8 35.7L508.7 38.6L526.5 42.8L539 44.1L566.8 49L596.3 53.8L617 57.1L616.7 59Z" fill="white"/>
<path d="M466.199 28.3001H454.499L446.399 25.3001L438.399 16.9001L439.899 15.6001L447.499 23.6001L454.899 26.3001H465.799L471.399 24.2001L472.099 26.1001L466.199 28.3001Z" fill="white"/>
<path d="M522.512 12.1489L494.346 36.7544L495.662 38.2606L523.827 13.6551L522.512 12.1489Z" fill="white"/>
<path d="M531.8 44.5L530.5 43L535.3 39.1V14.5H537.3V40L531.8 44.5Z" fill="white"/>
<path d="M605.9 106.1L589.1 102.6L564.5 96.2999L550.5 90.5999L553.5 82.2999L557.7 48.3999L559.7 48.6999L555.4 82.8999L553.1 89.4999L565.2 94.3999L589.5 100.6L606.3 104.2L605.9 106.1Z" fill="white"/>
<path d="M605.4 112.2L588.3 108.8V101.6H590.3V107.2L605.8 110.3L605.4 112.2Z" fill="white"/>
<path d="M934.399 238.8L905.999 233.2L886.199 228.5L862.699 225.9L804.799 216.8L725.599 204.5L720.499 180.1L665.899 170.7L672.699 130L675.199 116.9L677.099 117.3L674.699 130.4L668.199 169.1L722.199 178.3L727.299 202.7L805.099 214.8L862.999 223.9L886.599 226.6L906.399 231.2L934.799 236.9L934.399 238.8Z" fill="white"/>
<path d="M702.799 176L700.899 175.7L707.299 137.5L717.699 139.1L720.799 137.9V124.9H722.799V139.3L717.899 141.2L708.899 139.8L702.799 176Z" fill="white"/>
<path d="M707.9 139.6L684.5 136.4V132.9L673.6 131.2L673.9 129.2L686.5 131.2V134.7L708.2 137.6L707.9 139.6Z" fill="white"/>
<path d="M740.9 135.5L721.8 134.3L721.9 132.3L739.1 133.4L745.3 83.5001H741.1L748.8 35.6001L750.8 35.9001L743.4 81.5001H747.6L740.9 135.5Z" fill="white"/>
<path d="M752.3 207.6L750.3 207.3L756.7 163.4L756.8 150.3L758.7 132L760.7 132.2L758.7 150.4V163.6L752.3 207.6Z" fill="white"/>
<path d="M758.599 164L756.899 163L763.699 151.3L767.599 134.2L769.599 134.6L765.499 152.2L758.599 164Z" fill="white"/>
<path d="M828.299 219.4L826.399 219.1L830.599 191L835.499 163.3L853.599 49.1997L855.599 49.4997L837.399 163.6L832.599 191.3L828.299 219.4Z" fill="white"/>
<path d="M847.721 92.8987L847.379 94.8691L952.894 113.205L953.236 111.234L847.721 92.8987Z" fill="white"/>
<path d="M909.313 156.05L897.853 230.37L899.829 230.675L911.29 156.355L909.313 156.05Z" fill="white"/>
<path d="M656.399 479.7H649.999L649.799 479.6L609.299 461.6L594.799 444.9L588.599 441.7L569.399 429.7L570.499 428L589.599 439.9L596.099 443.3L596.199 443.5L610.499 459.9L650.399 477.7H655.999L677.299 466.8L686.899 467.1L699.299 464L707.899 459.9L710.299 456.8L699.399 444.1L700.899 442.8L712.899 456.7L709.199 461.5L699.899 465.9L687.099 469.1L677.699 468.8L656.399 479.7Z" fill="white"/>
<path d="M683.555 445.235L681.566 445.447L683.977 468.018L685.966 467.805L683.555 445.235Z" fill="white"/>
<path d="M703.1 443.3L701.1 443.2L704.3 393.5L732 391.9L747 389.9L752.4 386.8L843.9 382.4L897.1 379.7V386.6L891.5 420.4L889.5 420L895.1 386.4V381.8L844 384.4L752.9 388.8L747.7 391.9H747.5L732.2 393.9L706.1 395.4L703.1 443.3Z" fill="white"/>
<path d="M771.8 402.8V386.8H773.8V400.7L894.5 395.1V397.1L771.8 402.8Z" fill="white"/>
<path d="M816.6 384.8H814.6V399.8H816.6V384.8Z" fill="white"/>
<path d="M729.699 445.1H727.699V438.3L746.999 430.9L772.899 436.2L790.199 434.3L810.499 432.5L820.199 438.9L819.099 440.6L809.999 434.5L790.399 436.2L772.799 438.3L747.199 433L729.699 439.7V445.1Z" fill="white"/>
<path d="M775.5 471.7H752.4L745.1 468.7L743.9 458.5L740 446.2L741.9 445.6L745.9 458.2L746.9 467.3L752.8 469.7H775.4L800.4 466.6L858 452.8H858.2L910.3 452V454L858.3 454.8L800.7 468.6L775.5 471.7Z" fill="white"/>
<path d="M770 659.6L769.1 631.9L753.8 601.2L755.6 600.3L771.1 631.4L772 659.6H770Z" fill="white"/>
<path d="M1055.1 644.6L1054 614.8L1058.5 607.7L1057.8 532.6L1058.5 449.9L1059.8 429.6L1062.4 421.6L1062.5 421.5L1075.7 408.3L1074.3 405.9L1063 400.5L1004.4 373.3L997.7 372.2L963.7 368.4L947.5 364.2L936.3 362.4L920.1 359.3L920.4 357.3L936.6 360.4L947.9 362.2L964.1 366.4L997.9 370.2L1005.1 371.4L1063.9 398.7L1075.7 404.3L1078.2 408.6L1064.1 422.7L1061.8 430.1L1060.5 450L1059.8 532.6L1060.5 608.2L1056 615.3L1057.1 644.5L1055.1 644.6Z" fill="white"/>
<path d="M1008.92 583.252L1008.84 585.25L1059.2 587.241L1059.28 585.243L1008.92 583.252Z" fill="white"/>
<path d="M1058.9 518.5L1025.9 517.6V495.7L999.999 497.1L999.899 495.1L1027.9 493.6V515.6L1059 516.5L1058.9 518.5Z" fill="white"/>
<path d="M1075.4 410.5L1006.6 379.2L993.599 375.3L951.999 368L937.899 366.4L917.899 363.3L918.199 361.3L938.099 364.4L952.299 366L994.099 373.3L1007.3 377.4L1076.2 408.7L1075.4 410.5Z" fill="white"/>
<path d="M1025.71 382.176L1024.1 386.166L1025.96 386.912L1027.56 382.922L1025.71 382.176Z" fill="white"/>
<path d="M1026.5 211.1L963.599 206.7L964.699 166.9L963.399 163.2V156.3H951.999V146.1H948.199V144.1H953.999V154.3H965.399V162.8L966.699 166.6V166.8L965.599 204.9L1024.6 208.9L1025.7 183.6L1053.4 180.9L1053.6 182.9L1027.6 185.4L1026.5 211.1Z" fill="white"/>
<path d="M965.899 278.7L952.899 273.8L944.599 274.4H944.399L929.899 271.7L930.299 269.7L944.699 272.4L953.199 271.7L964.599 276.1L970.299 253.7L974.899 237.7L973.799 206.5H975.799L976.899 238V238.1L972.199 254.2L965.899 278.7Z" fill="white"/>
<path d="M945.599 273.6L943.599 273.3L949.699 231.2L935.899 228.3L936.399 226.3L951.999 229.7L945.599 273.6Z" fill="white"/>
<path d="M1174.1 272L1157.4 267.8L1138 230.3L1141.7 209L1150.4 187.5L1148.9 181.8L1150.9 181.3L1152.5 187.7L1143.6 209.6L1140.1 230L1158.8 266.1L1174 269.9L1198.3 261.5L1228.2 262.2L1239.2 266.9L1246.3 266.7L1272.2 237.3L1273.7 238.6L1247.3 268.6L1238.9 268.9L1227.7 264.2L1198.6 263.6L1174.1 272Z" fill="white"/>
<path d="M1256.8 256.3L1209.3 218.9L1200.9 210.7L1202.3 209.3L1210.7 217.5L1258.1 254.8L1256.8 256.3Z" fill="white"/>
<path d="M1191.1 219.7H1184.9L1163.2 207.3L1142.8 210.3L1142.5 208.4L1163.6 205.2L1185.4 217.7H1190.3L1219.1 191.2L1220.5 192.7L1191.1 219.7Z" fill="white"/>
<path d="M1234.75 208.845L1217.91 225.522L1219.32 226.943L1236.16 210.266L1234.75 208.845Z" fill="white"/>
<path d="M1223.6 194L1222.1 192.7L1231.8 181.2L1230.5 163.1L1230.6 162.8L1239.2 142.6L1241.3 108.9L1207.8 106.5L1207.9 104.6L1243.4 107.1L1241.1 143.1L1232.5 163.4L1233.9 181.9L1223.6 194Z" fill="white"/>
<path d="M1205.4 138.1L1200.6 134.5V103.2L1203.1 97.5H1207.9V99.5H1204.4L1202.6 103.6V133.5L1206.6 136.5L1205.4 138.1Z" fill="white"/>
<path d="M1177.2 173L1175.8 171.5L1193.7 155.3L1199.5 146.9L1200.6 133.9L1202.6 134.1L1201.4 147.6L1195.2 156.7L1177.2 173Z" fill="white"/>
<path d="M1262 425.7L1256.4 391.6V379.1L1263.9 366L1277.6 345.8L1284.4 341.4H1325.9V343.4H1285L1279 347.3L1265.6 367.1L1258.4 379.7V391.5L1264 425.3L1262 425.7Z" fill="white"/>
<path d="M1297.73 342.299L1295.74 342.376L1298.17 405.532L1300.17 405.455L1297.73 342.299Z" fill="white"/>
<path d="M1214.3 479.6H1212.3L1213 461.9L1206.5 450.5L1211.6 424.4L1203.9 380.8L1211 367.9L1221.8 359.2L1235.3 352.9H1245.1L1264.2 367.7L1263 369.3L1244.5 354.9H1235.7L1222.7 361L1212.6 369.2L1205.9 381.1L1213.7 424.4L1208.6 450.2L1215 461.4L1214.3 479.6Z" fill="white"/>
<path d="M1248.5 422.1H1239.1L1234.4 390.6H1257.5V392.6H1248.8L1248.5 422.1ZM1240.8 420.1H1246.5L1246.8 392.6H1236.7L1240.8 420.1Z" fill="white"/>
<path d="M1329.6 434.3H1322.7V404.3H1324.7V432.3H1327.6L1326.3 396.3L1328.3 396.2L1329.6 434.3Z" fill="white"/>
<path d="M1352.4 427.8H1341.7L1339.2 422.8L1328.4 420.7L1328.8 418.8L1340.6 421.1L1343 425.8H1350.4V414.9L1361.2 421.8L1382.2 420.8H1403.3L1417.4 425.9L1416.7 427.8L1402.9 422.8H1382.3L1360.7 423.9L1352.4 418.6V427.8Z" fill="white"/>
<path d="M1380.6 446.5H1361.8L1352.5 433.7L1350.5 427.1L1352.4 426.5L1354.3 432.8L1362.8 444.5H1378.1L1373.5 421.8V421.6L1375.7 405.4L1378.4 388.8L1392.2 362.5L1405.1 348.2L1419.7 335.9L1428.8 331.4H1446.8L1448.6 327.2L1446 311.5L1435.8 299.1L1419.5 277.6L1413 262.8L1398.1 260.7L1398.4 258.7L1414.4 261L1421.3 276.7L1437.4 297.9L1447.9 310.7L1450.7 327.4L1448.1 333.4H1429.3L1420.7 337.7L1406.5 349.7L1393.7 363.8L1380.3 389.5L1377.7 405.7L1375.5 421.8L1380.6 446.5Z" fill="white"/>
<path d="M1431.5 309.8L1393.2 277.3L1387.5 261.6L1389.4 260.9L1394.9 276.2L1431.5 307.1L1438.4 300.8L1439.8 302.3L1431.5 309.8Z" fill="white"/>
<path d="M1364 307.4H1325.1V305.4H1363.2L1393.3 276L1394.7 277.5L1364 307.4Z" fill="white"/>
<path d="M1348.5 330.2H1346.5V306.4L1344.5 274.6L1346.5 274.5L1348.4 306.4L1348.5 330.2Z" fill="white"/>
<path d="M1325.1 331.2L1325 329.2L1378.8 327.4L1398.9 309.7L1400.2 311.2L1379.5 329.4L1325.1 331.2Z" fill="white"/>
<path d="M1419.4 337.4L1395.9 307.1L1380.3 290.1L1371.8 282.4L1373 273.6L1371.8 266.3L1373.8 265.9L1375.1 273.6L1373.9 281.7L1381.7 288.7L1397.4 305.8L1421 336.2L1419.4 337.4Z" fill="white"/>
<path d="M1385.4 368.2H1374.2L1349.5 361.3H1327.5V359.3L1349.9 359.4L1374.6 366.2H1384.9L1392.4 362.3L1393.4 364.1L1385.4 368.2Z" fill="white"/>
<path d="M1411.6 255.9L1410.1 254.6L1415.7 247.5L1413.1 241.3L1404.2 239.4L1397.3 241.1L1394.8 236.4L1371.6 240.7L1341.2 251.1L1331.8 251.6L1331.7 249.6L1340.8 249.1L1371.2 238.7L1395.9 234.2L1398.3 238.8L1404.2 237.4L1414.5 239.5L1418 247.9L1411.6 255.9Z" fill="white"/>
<path d="M1332.7 274.6L1330.7 247.7L1332.8 235.8L1337.9 229L1359.5 217.7L1365.8 209.3L1384 158.2L1385.9 158.9L1367.6 210.3L1360.9 219.2L1339.2 230.5L1334.6 236.6L1332.7 247.7L1334.7 274.5L1332.7 274.6Z" fill="white"/>
<path d="M1265.4 232.3L1263.9 231.1L1285.9 202.8V193L1290.2 188.7L1317.1 186.4L1335.3 197.2L1360.8 215.7L1359.6 217.3L1334.2 198.8L1316.6 188.4L1291.1 190.6L1287.9 193.8V203.5L1287.7 203.8L1265.4 232.3Z" fill="white"/>
<path d="M1301 257.7L1299.5 256.4L1306.2 248.5H1322.3L1331.8 249.6L1331.6 251.6L1322.1 250.5H1307.1L1301 257.7Z" fill="white"/>
<path d="M1389 162.3L1388 160.6L1407.8 149.5L1411.8 139.1L1424.7 130.6L1461.4 116.8L1482.9 111.9L1484.3 104.2L1475.3 82.6999L1477.2 81.8999L1486.4 103.9L1484.7 113.5L1461.9 118.7L1425.5 132.4L1413.4 140.4L1409.4 150.8L1389 162.3Z" fill="white"/>
<path d="M1454.8 246.3L1454.2 244.3L1485.1 236.1L1504.7 231.6L1525.6 229.4L1536.9 223.7L1558.6 221L1567.2 219.3L1568.8 216.1L1557.9 202.4L1494.9 118.6L1483.4 113.6L1484.2 111.8L1496.2 117L1496.3 117.2L1559.5 201.2L1571.2 215.9L1568.5 221.1L1558.9 223L1537.5 225.6L1526.2 231.4L1505 233.6L1485.6 238L1454.8 246.3Z" fill="white"/>
<path d="M1475.5 507.4H1461.3L1450.2 492.7L1436.6 480.1L1425.8 470.8L1419.6 461.9L1413.1 460.7L1410.1 453.2L1407.4 442.9L1424 406.2L1404.8 357.6V349H1406.8V357.2L1426.1 406.2L1409.5 443.1L1412 452.7L1414.5 459L1420.8 460.1L1427.3 469.6L1437.9 478.6L1451.8 491.4L1462.3 505.4H1475.5V507.4Z" fill="white"/>
<path d="M1506.7 558.5L1490.5 542.1L1484.3 539.3L1475.9 515.7L1472.2 490.8L1471 482L1473.4 471.1L1465.6 456.1L1467.7 450.8L1483.3 446.4L1486 440.2L1477 427.1L1480.6 387.3L1482.6 387.5L1479.1 426.6L1488.3 440L1484.7 448.1L1469.2 452.5L1467.8 456L1475.5 470.8L1473.1 482.1L1474.1 490.5L1477.9 515.3L1485.9 537.8L1491.7 540.4L1507.4 556.3L1523.2 554L1532.3 544.7L1524.7 519.6L1526.6 519L1534.6 545.3L1524.2 555.9L1506.7 558.5Z" fill="white"/>
<path d="M1481.4 528.6L1481.1 526.7L1545.4 515.2L1569.6 508.6L1570.1 510.5L1545.9 517.2L1481.4 528.6Z" fill="white"/>
<path d="M1495.47 524.68L1494.04 526.078L1523.03 555.771L1524.46 554.374L1495.47 524.68Z" fill="white"/>
<path d="M1599.5 529.1L1574.3 514.2L1517 465.9L1486.5 440.9L1487.8 439.4L1518.3 464.4L1575.5 512.6L1600.5 527.4L1599.5 529.1Z" fill="white"/>
<path d="M1644.2 666.3L1623.9 646.7L1623.1 611.6L1619.3 595.6L1616.4 580.5L1609.7 558.9L1599.7 543.5L1597.9 529.6L1602.1 523.2L1607.7 515.6L1634.7 495.3V487.6H1636.7V496.3L1609 517.1L1603.8 524.3L1600 530.1L1601.6 542.8L1611.6 558.2L1618.3 580.1L1621.2 595.2L1625.1 611.5L1625.9 645.8L1645.5 664.8L1644.2 666.3Z" fill="white"/>
<path d="M1763.5 330.1L1763.3 330L1710.8 317.8L1699.6 308.5L1650.6 305.2L1643.7 299.8L1633.9 276.1L1626.5 265.9L1610.8 253.9L1597.1 250.8L1588.3 247.2L1571 233.9L1558.1 222.7L1559.4 221.2L1572.2 232.3L1589.4 245.5L1597.8 249L1611.7 252.1L1628 264.6L1635.7 275.2L1645.3 298.5L1651.3 303.3L1700.3 306.6L1711.7 315.9L1763.6 328L1777.4 326.3L1777.7 328.3L1763.5 330.1Z" fill="white"/>
<path d="M1316.9 60.1997L1309.6 52.7997L1311.3 42.5997L1307.2 38.7997L1211.9 22.1997L1193.2 13.4997L1194 11.6997L1212.5 20.2997L1308.1 36.8997L1313.5 41.7997L1311.7 52.1997L1317.7 58.0997L1363.1 55.4997L1507 56.3997V58.3997L1363.2 57.4997L1316.9 60.1997Z" fill="white"/>
<path d="M1389.5 2.8999H1387.5V56.5999H1389.5V2.8999Z" fill="white"/>
<path d="M1421.09 5.98692L1419.09 6.02197L1419.98 56.6119L1421.98 56.5768L1421.09 5.98692Z" fill="white"/>
<path d="M1420.02 25.6375L1388.35 26.9688L1388.43 28.967L1420.1 27.6357L1420.02 25.6375Z" fill="white"/>
<path d="M1256.5 669.8L1238.5 630.4L1236.5 599.1L1241.8 587.8V580.3L1232.3 565.6L1227 543.1L1222.7 533.5L1218 527.3L1227 481.2L1228.9 481.6L1220.2 526.8L1224.4 532.6L1228.9 542.5L1234.2 564.8L1243.8 579.7V588.2L1238.5 599.5L1240.5 629.9L1258.4 668.9L1256.5 669.8Z" fill="white"/>
<path d="M1205.67 627.544L1205.58 629.542L1239.54 631.095L1239.63 629.097L1205.67 627.544Z" fill="white"/>
<path d="M1254.8 546.8L1250 532.5L1242.7 487.1L1240.9 471.9L1242.9 471.7L1244.7 486.8L1252 532.1L1256.1 544.5L1273.7 542L1274 544L1254.8 546.8Z" fill="white"/>
<path d="M1311.9 675.7L1288.2 602.9L1274.9 552.1L1270.6 531.7L1251.1 533.4L1250.9 531.4L1272.2 529.5L1276.8 551.7L1290.1 602.4L1313.8 675L1311.9 675.7Z" fill="white"/>
<path d="M162.535 -0.690532L76.749 124.432L78.3986 125.563L164.185 0.440468L162.535 -0.690532Z" fill="white"/>
<path d="M-12.3 301.4L-13 299.6L34.3 279.6L77.3 244.4L133.9 253.6L133.5 255.6L77.9 246.5L35.3 281.4H35.2L-12.3 301.4Z" fill="white"/>
</g>
</g>
<g filter="url(#filter0_d_185_2981)">
<mask id="mask1_185_2981" style="mask-type:luminance" maskUnits="userSpaceOnUse" x="0" y="18" width="1920" height="640">
<path d="M1920 18H0V658H1920V18Z" fill="white"/>
</mask>
<g mask="url(#mask1_185_2981)">
<path d="M1284.5 668.5L987.2 640.6L869.4 628.6L825.9 623.9L798.5 617.9L779.7 612.5L733.7 595.8H733.5L677.7 566.5L496.1 472.1L258.1 355L196.7 323L165 301.4L151.4 288.4L137.9 270.2L129.8 252L25.4004 10.5996L30.0004 8.59961L134.4 250L142.3 267.7L155.3 285.3L168.3 297.6L199.3 318.7L260.3 350.6L498.4 467.6L680 562.1L735.7 591.2L781.3 607.8L799.8 613.1L826.9 619L870 623.6L987.7 635.6L1284.9 663.5L1284.5 668.5Z" fill="white"/>
<path d="M406.901 664.5L402.301 662.7L461.601 516.4L483.401 444L492.701 429.1L505.401 419.3L525.101 408.3L549.301 389.4L562.001 378.1L572.801 365.9L579.501 355.1L583.901 278.4L596.901 155.7L605.901 91.4998L616.901 47.3998L617.001 47.1998L637.001 1.2998L641.501 3.29981L621.701 48.9998L610.801 92.4998L601.801 156.3L588.901 278.8L584.401 356.7L576.701 369.1L565.401 381.7L552.401 393.3L527.701 412.6L507.901 423.6L496.501 432.5L488.001 446L466.301 518.2L406.901 664.5Z" fill="white"/>
<path d="M911.801 675.5L907.801 609.5V431.8V431.7L916.401 353.8L931.101 244.7L946.401 140.3L957.501 64.5998V0.299805H962.501V64.9998V65.1998L951.301 141L936.001 245.4L921.401 354.4L912.801 432.1V609.4L916.801 675.2L911.801 675.5Z" fill="white"/>
<path d="M978.101 637.2L973.101 636.6L976.101 611H1006.4V517.4L973.501 441L968.801 435.1L957.701 430.5L902.301 423.1L877.201 422.2L857.101 422.7L824.401 440.7L792.501 452L791.901 451.9L702.201 445.7L673.801 448.9L657.301 442L574.301 415.1L572.701 411.1L531.101 409.3L531.301 404.3L576.101 406.2L578.101 411.1L659.201 437.4L674.501 443.8L702.001 440.7H702.301L791.801 446.9L822.601 436.1L835.201 429.1L855.701 417.7L877.301 417.2L902.801 418.1L959.001 425.7L971.901 431L977.801 438.4L978.001 438.7L1011.4 516.3V616H980.601L978.101 637.2Z" fill="white"/>
<path d="M1134.1 189H1096.8L1041.5 181.7L945.501 163L831.401 146.4L677.801 119.8L605.801 110.5L606.401 105.5L678.601 114.9L832.201 141.5L946.401 158.1L1042.4 176.7L1097.3 184H1133.4L1158.9 176.2L1205.4 158.9L1218.5 154.4L1223.4 149.6L1221.3 147.8H1207.9V142.8H1223.1L1230.8 149.3L1221.2 158.8L1207 163.6L1160.4 180.9L1134.1 189Z" fill="white"/>
<path d="M1222 666.6L1217.3 647.9L1211.8 641.6L1205 633L1198.5 620L1186.3 579.7L1193.1 563.8V535.8L1197.7 530.7L1200.7 515.5L1207.9 502.2L1209.1 496.5L1211.1 476.8L1227.3 478.8L1251.4 462.3L1255.4 456.4L1256.9 450.4V443.3L1256.5 432.9L1261 423.8L1287.6 405.5L1295.9 403H1318.1L1323.4 401.8V319.7L1319.9 292.1L1313.6 271.8L1259.7 231.1L1233.8 211.4L1218.8 195.5L1206.9 171.2L1203.7 135.1V134.9L1206.8 79.0996V51.9996L1197.6 10.0996L1202.5 9.09961L1211.8 51.3996V79.3996L1208.7 135L1211.8 169.9L1222.9 192.6L1237.2 207.7L1262.7 227.1L1317.9 268.8L1324.9 291.3L1328.4 319.5V405.8L1318.7 408H1296.6L1289.8 410L1264.9 427.2L1261.5 434L1261.9 443.2V451.1L1260 458.5L1255 465.9L1228.6 484L1215.6 482.4L1214 497.4L1212.6 504L1205.5 517.2L1202.3 533.1L1198.1 537.8V564.8L1191.6 579.9L1203.2 618.3L1209.2 630.3L1215.7 638.5L1221.8 645.6L1226.8 665.4L1222 666.6Z" fill="white"/>
<path d="M1354.5 92.3996H1328.8L1250.8 75.9996L1225.7 77.6996L1209.4 81.7996L1140.6 68.3996L1058.5 49.2996L1004.2 34.5996L943.9 15.4996L945.4 10.7996L1005.6 29.7996L1059.7 44.3996L1141.6 63.4996L1209.3 76.6996L1225.1 72.6996L1251.2 70.8996L1329.3 87.3996H1354.2L1397.9 81.5996L1420.3 79.3996H1420.5L1473 81.9996L1487.4 79.0996L1499.5 66.6996L1507.6 50.4996L1511.8 38.6996L1506.2 6.49961L1511.1 5.59961L1517 39.0996L1512.2 52.5996L1503.6 69.5996L1489.9 83.6996L1473.3 86.9996L1420.4 84.3996L1398.5 86.5996L1354.5 92.3996Z" fill="white"/>
<path d="M1807.1 680.2L1787.6 662.8L1767.5 643.6L1730.1 602.6L1666.7 521.9L1647.1 496.6L1626.3 485.3L1596.1 468.9L1554.1 447.7L1528.7 435.2L1503.6 420.9L1494 411.8L1483.8 402.5L1479.2 388L1463.6 328.7V277.4L1457.9 261L1446 230.5L1439.6 216.4L1425.9 204.4L1412 194.1L1390 172.5L1389.8 172.2L1365.4 129.1L1355.1 108.9L1346.5 86.3997L1342.5 48.1997L1338.5 3.19971L1343.5 2.69971L1347.5 47.6997L1351.5 85.2997L1359.7 107L1369.8 126.8L1394 169.5L1415.4 190.4L1429.1 200.6L1443.7 213.4L1450.6 228.6L1462.7 259.3L1468.6 276.5V328.1L1484 386.7L1488.2 399.7L1497.4 408.1L1506.6 416.8L1531.1 430.8L1556.3 443.2L1598.4 464.5L1628.6 480.9L1650.4 492.7L1670.7 518.9L1734 599.5L1771.1 640.1L1791 659.1L1810.5 676.4L1807.1 680.2Z" fill="white"/>
<path d="M1600.5 674.5L1599.5 669.6L1741 640.3L1781.3 628.4L1798.6 620.1L1806.9 610.6L1836.9 571.2L1850 558.8L1864.8 553.2L1892.6 550.5H1906.7L1912.1 544L1914.7 520.6L1917.8 504.8L1937.2 493.6L1939.7 497.9L1922.2 508L1919.7 521.4L1916.9 546L1909.1 555.5H1892.7L1865.9 558.1L1852.7 563.1L1840.6 574.6L1810.7 613.8L1801.7 624.2L1782.9 633.2L1742.1 645.2L1600.5 674.5Z" fill="white"/>
<path d="M960 75.5H942L919.1 71.8L849.7 50.4L778.4 42.7L729.2 35.1L623.2 16.9L624 12L730 30.2L779.1 37.7L850.7 45.5L850.9 45.6L920.4 67L942.6 70.5H960V75.5Z" fill="white"/>
<path d="M765.801 132.4L760.801 131.8L764.801 96.9998L772.301 51.2998L781.701 3.7998L786.601 4.7998L777.301 52.1998L769.801 97.6998L765.801 132.4Z" fill="white"/>
<path d="M563.801 503.2H558.801V453.4L568.501 423.7L576.601 391.2L579.401 355.7L584.401 356.1L581.501 392L573.201 425.2L563.801 454.2V503.2Z" fill="white"/>
<path d="M1206.2 44.4997L1166.3 25.4997L1157.5 8.49971L1161.9 6.19971L1169.9 21.6997L1208.3 39.9997L1206.2 44.4997Z" fill="white"/>
<path d="M1250.1 75.7998L1230.1 68.2998H1209.3V63.2998H1231L1251.9 71.0998L1250.1 75.7998Z" fill="white"/>
<path d="M1318 279.2L1317.5 274.3L1350.9 270.5L1442.9 243.3L1445.9 229L1450.8 230L1447.1 247.2L1445.7 247.7L1351.9 275.4L1318 279.2Z" fill="white"/>
</g>
</g>
<rect width="33" height="137" transform="translate(893 471)" fill="#403E3D"/>
<path d="M914 599.112L907.748 599.112L907.748 595.992C907.748 595.64 907.824 595.344 907.976 595.104C908.12 594.864 908.308 594.684 908.54 594.564C908.772 594.436 909.02 594.372 909.284 594.372C909.62 594.372 909.924 594.452 910.196 594.612C910.46 594.772 910.66 595.004 910.796 595.308C910.9 594.948 911.088 594.656 911.36 594.432C911.632 594.208 911.96 594.096 912.344 594.096C912.68 594.096 912.972 594.18 913.22 594.348C913.468 594.508 913.66 594.732 913.796 595.02C913.932 595.3 914 595.624 914 595.992L914 599.112ZM913.412 598.332L913.412 596.016C913.412 595.808 913.36 595.62 913.256 595.452C913.144 595.276 913 595.14 912.824 595.044C912.648 594.94 912.464 594.888 912.272 594.888C912.064 594.888 911.876 594.936 911.708 595.032C911.532 595.128 911.392 595.256 911.288 595.416C911.184 595.576 911.132 595.76 911.132 595.968L911.132 598.332L913.412 598.332ZM910.568 598.332L910.568 596.208C910.568 596 910.512 595.816 910.4 595.656C910.288 595.496 910.144 595.372 909.968 595.284C909.792 595.196 909.608 595.152 909.416 595.152C909.128 595.152 908.876 595.248 908.66 595.44C908.444 595.624 908.336 595.864 908.336 596.16L908.336 598.332L910.568 598.332ZM916.616 591.994C916.616 592.13 916.592 592.27 916.544 592.414C916.504 592.55 916.444 592.69 916.364 592.834L915.788 592.534C915.836 592.446 915.876 592.366 915.908 592.294C915.94 592.214 915.956 592.13 915.956 592.042C915.956 591.834 915.852 591.638 915.644 591.454C915.436 591.27 915.132 591.094 914.732 590.926L913.952 590.614L907.748 593.398L907.748 592.534L913.16 590.242L907.748 588.13L907.748 587.314L914.984 590.29C915.36 590.45 915.668 590.618 915.908 590.794C916.148 590.97 916.324 591.158 916.436 591.358C916.556 591.558 916.616 591.77 916.616 591.994ZM914.036 586.774L913.292 586.774C913.292 586.558 913.236 586.366 913.124 586.198C913.004 586.03 912.804 585.882 912.524 585.754C912.244 585.618 911.86 585.51 911.372 585.43C910.876 585.35 910.248 585.298 909.488 585.274L907.748 585.202L907.748 581.146L914 581.146L914 581.962L908.48 581.962L908.48 584.482L909.56 584.506C910.424 584.538 911.148 584.606 911.732 584.71C912.308 584.814 912.764 584.962 913.1 585.154C913.436 585.338 913.676 585.566 913.82 585.838C913.964 586.11 914.036 586.422 914.036 586.774ZM914 579.354L907.76 579.354L907.76 578.538L912.896 578.538L907.748 574.734L907.748 574.002L914 574.002L914 574.818L908.948 574.818L914 578.562L914 579.354ZM915.452 567.237L914 567.237L914 572.229L907.748 572.229L907.748 571.413L913.28 571.413L913.28 568.173L907.748 568.173L907.748 567.357L913.28 567.357L913.28 566.505L915.452 566.505L915.452 567.237ZM914 565.736L911.444 563.876C911.38 564.3 911.196 564.644 910.892 564.908C910.58 565.164 910.156 565.292 909.62 565.292C909.26 565.292 908.94 565.208 908.66 565.04C908.38 564.872 908.156 564.636 907.988 564.332C907.82 564.02 907.736 563.656 907.736 563.24L907.736 560.852L914 560.852L914 561.668L911.576 561.668L911.576 563.06L914 564.824L914 565.736ZM910.952 563.252L910.952 561.668L908.384 561.668L908.384 563.108C908.384 563.524 908.504 563.856 908.744 564.104C908.976 564.352 909.272 564.476 909.632 564.476C910 564.476 910.312 564.376 910.568 564.176C910.824 563.968 910.952 563.66 910.952 563.252ZM908.328 548.123L908.328 549.99C908.087 550.024 907.872 550.093 907.685 550.199C907.494 550.304 907.332 550.439 907.199 550.603C907.065 550.768 906.963 550.958 906.892 551.174C906.821 551.387 906.786 551.619 906.786 551.869C906.786 552.321 906.898 552.714 907.122 553.049C907.344 553.385 907.668 553.645 908.094 553.829C908.517 554.014 909.031 554.106 909.636 554.106C910.259 554.106 910.781 554.014 911.205 553.829C911.628 553.642 911.947 553.38 912.163 553.045C912.379 552.71 912.487 552.322 912.487 551.882C912.487 551.635 912.455 551.406 912.389 551.196C912.324 550.983 912.229 550.794 912.104 550.629C911.976 550.464 911.821 550.328 911.639 550.22C911.457 550.109 911.25 550.032 911.017 549.99L911.026 548.123C911.426 548.172 911.812 548.292 912.185 548.485C912.554 548.676 912.885 548.933 913.178 549.257C913.467 549.578 913.697 549.961 913.868 550.407C914.036 550.85 914.119 551.352 914.119 551.912C914.119 552.69 913.943 553.386 913.591 554C913.239 554.61 912.729 555.093 912.061 555.449C911.393 555.801 910.585 555.977 909.636 555.977C908.685 555.977 907.875 555.798 907.207 555.44C906.54 555.082 906.031 554.596 905.682 553.983C905.33 553.369 905.153 552.679 905.153 551.912C905.153 551.406 905.224 550.937 905.366 550.505C905.509 550.071 905.716 549.686 905.989 549.35C906.259 549.015 906.589 548.743 906.982 548.532C907.374 548.319 907.822 548.183 908.328 548.123ZM906.794 547.132L905.273 547.132L905.273 539.965L906.794 539.965L906.794 542.637L914 542.637L914 544.461L906.794 544.461L906.794 547.132ZM914 538.784L905.273 538.784L905.273 535.341C905.273 534.679 905.399 534.115 905.652 533.65C905.902 533.184 906.25 532.828 906.696 532.584C907.139 532.337 907.651 532.213 908.23 532.213C908.81 532.213 909.321 532.338 909.764 532.588C910.207 532.838 910.553 533.201 910.8 533.675C911.047 534.147 911.17 534.718 911.17 535.388L911.17 537.583L909.692 537.583L909.692 535.686C909.692 535.331 909.631 535.039 909.509 534.809C909.384 534.576 909.212 534.402 908.993 534.289C908.771 534.172 908.517 534.114 908.23 534.114C907.94 534.114 907.687 534.172 907.472 534.289C907.253 534.402 907.084 534.576 906.964 534.809C906.842 535.042 906.781 535.337 906.781 535.695L906.781 536.939L914 536.939L914 538.784ZM905.273 531.015L905.273 529.174L910.761 529.174L910.761 529.102L905.273 525.33L905.273 523.715L914 523.715L914 525.56L908.507 525.56L908.507 525.624L914 529.417L914 531.015L905.273 531.015ZM905.273 522.191L905.273 520.35L910.761 520.35L910.761 520.277L905.273 516.506L905.273 514.891L914 514.891L914 516.736L908.507 516.736L908.507 516.8L914 520.593L914 522.191L905.273 522.191ZM902.989 517.691L902.989 516.425C903.506 516.428 903.922 516.62 904.237 517C904.553 517.378 904.71 517.89 904.71 518.534C904.71 519.182 904.553 519.695 904.237 520.073C903.922 520.451 903.506 520.64 902.989 520.64L902.989 519.382C903.185 519.385 903.361 519.323 903.517 519.195C903.673 519.064 903.751 518.844 903.751 518.534C903.751 518.233 903.675 518.017 903.521 517.887C903.368 517.756 903.19 517.691 902.989 517.691ZM908.328 505.666L908.328 507.533C908.087 507.567 907.872 507.636 907.685 507.741C907.494 507.847 907.332 507.982 907.199 508.146C907.065 508.311 906.963 508.501 906.892 508.717C906.821 508.93 906.786 509.162 906.786 509.412C906.786 509.864 906.898 510.257 907.122 510.592C907.344 510.928 907.668 511.187 908.094 511.372C908.517 511.557 909.031 511.649 909.636 511.649C910.259 511.649 910.781 511.557 911.205 511.372C911.628 511.185 911.947 510.923 912.163 510.588C912.379 510.253 912.487 509.865 912.487 509.425C912.487 509.178 912.455 508.949 912.389 508.739C912.324 508.526 912.229 508.337 912.104 508.172C911.976 508.007 911.821 507.871 911.639 507.763C911.457 507.652 911.25 507.575 911.017 507.533L911.026 505.666C911.426 505.714 911.812 505.835 912.185 506.028C912.554 506.219 912.885 506.476 913.178 506.8C913.467 507.121 913.697 507.504 913.868 507.95C914.036 508.393 914.119 508.895 914.119 509.455C914.119 510.233 913.943 510.929 913.591 511.543C913.239 512.153 912.729 512.636 912.061 512.991C911.393 513.344 910.585 513.52 909.636 513.52C908.685 513.52 907.875 513.341 907.207 512.983C906.54 512.625 906.031 512.139 905.682 511.526C905.33 510.912 905.153 510.222 905.153 509.455C905.153 508.949 905.224 508.48 905.366 508.048C905.509 507.614 905.716 507.229 905.989 506.893C906.259 506.558 906.589 506.286 906.982 506.075C907.374 505.862 907.822 505.726 908.328 505.666ZM908.499 503.129L908.499 501.049C908.499 500.356 908.611 499.759 908.835 499.259C909.057 498.756 909.371 498.369 909.777 498.096C910.183 497.823 910.662 497.688 911.213 497.691C911.761 497.688 912.246 497.823 912.666 498.096C913.084 498.369 913.411 498.756 913.646 499.259C913.882 499.759 914 500.356 914 501.049L914 504.309L905.273 504.309L905.273 502.468L912.517 502.468L912.517 501.049C912.517 500.717 912.457 500.437 912.338 500.21C912.216 499.982 912.055 499.81 911.857 499.694C911.655 499.575 911.435 499.516 911.196 499.519C910.849 499.516 910.557 499.647 910.318 499.911C910.077 500.173 909.956 500.552 909.956 501.049L909.956 503.129L908.499 503.129ZM914 490.942L910.28 493.746L910.28 494.377L914 494.377L914 496.222L905.273 496.222L905.273 494.377L908.759 494.377L908.759 494.006L905.273 491.108L905.273 488.811L909.321 492.216L914 488.654L914 490.942ZM914 486.222L914 488.199L905.273 485.186L905.273 482.808L914 479.8L914 481.777L907.267 483.963L907.267 484.031L914 486.222ZM910.57 486.345L910.57 481.675L912.01 481.675L912.01 486.345L910.57 486.345Z" fill="white"/>
<rect width="33" height="97" transform="translate(807 498) rotate(90)" fill="#403E3D"/>
<path d="M718.42 514.68C718.42 514.16 718.512 513.652 718.696 513.156C718.88 512.652 719.148 512.196 719.5 511.788C719.86 511.372 720.296 511.044 720.808 510.804C721.32 510.556 721.9 510.432 722.548 510.432C723.316 510.432 723.98 510.608 724.54 510.96C725.1 511.304 725.516 511.748 725.788 512.292L724.732 513C724.572 512.656 724.368 512.384 724.12 512.184C723.88 511.984 723.616 511.844 723.328 511.764C723.048 511.684 722.772 511.644 722.5 511.644C722.052 511.644 721.66 511.736 721.324 511.92C720.988 512.096 720.704 512.332 720.472 512.628C720.248 512.924 720.076 513.256 719.956 513.624C719.844 513.992 719.788 514.36 719.788 514.728C719.788 515.136 719.856 515.532 719.992 515.916C720.128 516.292 720.316 516.628 720.556 516.924C720.804 517.212 721.096 517.44 721.432 517.608C721.768 517.776 722.136 517.86 722.536 517.86C722.808 517.86 723.092 517.812 723.388 517.716C723.684 517.62 723.956 517.472 724.204 517.272C724.46 517.064 724.66 516.792 724.804 516.456L725.92 517.092C725.744 517.516 725.468 517.876 725.092 518.172C724.724 518.468 724.308 518.692 723.844 518.844C723.388 518.996 722.936 519.072 722.488 519.072C721.888 519.072 721.34 518.948 720.844 518.7C720.348 518.444 719.92 518.108 719.56 517.692C719.2 517.268 718.92 516.796 718.72 516.276C718.52 515.748 718.42 515.216 718.42 514.68ZM730.598 519.06C729.982 519.06 729.426 518.94 728.93 518.7C728.434 518.46 728.006 518.136 727.646 517.728C727.286 517.312 727.006 516.848 726.806 516.336C726.614 515.816 726.518 515.284 726.518 514.74C726.518 514.172 726.622 513.632 726.83 513.12C727.038 512.6 727.326 512.14 727.694 511.74C728.062 511.332 728.494 511.012 728.99 510.78C729.494 510.54 730.038 510.42 730.622 510.42C731.23 510.42 731.782 510.544 732.278 510.792C732.782 511.04 733.21 511.372 733.562 511.788C733.922 512.204 734.198 512.668 734.39 513.18C734.59 513.692 734.69 514.216 734.69 514.752C734.69 515.32 734.586 515.864 734.378 516.384C734.178 516.896 733.894 517.356 733.526 517.764C733.158 518.164 732.722 518.48 732.218 518.712C731.722 518.944 731.182 519.06 730.598 519.06ZM727.886 514.74C727.886 515.14 727.95 515.528 728.078 515.904C728.206 516.28 728.386 516.616 728.618 516.912C728.858 517.2 729.146 517.428 729.482 517.596C729.818 517.764 730.194 517.848 730.61 517.848C731.042 517.848 731.426 517.76 731.762 517.584C732.098 517.408 732.378 517.172 732.602 516.876C732.834 516.572 733.01 516.236 733.13 515.868C733.25 515.492 733.31 515.116 733.31 514.74C733.31 514.34 733.246 513.956 733.118 513.588C732.998 513.212 732.818 512.88 732.578 512.592C732.338 512.296 732.05 512.064 731.714 511.896C731.386 511.728 731.018 511.644 730.61 511.644C730.178 511.644 729.794 511.732 729.458 511.908C729.122 512.084 728.838 512.32 728.606 512.616C728.374 512.912 728.194 513.244 728.066 513.612C727.946 513.98 727.886 514.356 727.886 514.74ZM736.093 519V510.48H737.437V514.044H738.433L741.109 510.48H742.645L739.513 514.608L742.873 519H741.229L738.433 515.28H737.437V519H736.093ZM744.108 519V510.48H745.452V519H744.108ZM752.91 519V511.668H750.066L750.018 513.252C749.97 514.396 749.878 515.344 749.742 516.096C749.606 516.84 749.41 517.428 749.154 517.86C748.898 518.284 748.578 518.588 748.194 518.772C747.81 518.948 747.35 519.036 746.814 519.036V517.86C747.11 517.86 747.37 517.792 747.594 517.656C747.818 517.512 748.006 517.26 748.158 516.9C748.318 516.54 748.442 516.036 748.53 515.388C748.626 514.732 748.69 513.896 748.722 512.88L748.806 510.48H754.266V519H752.91ZM756.202 519V510.48H757.546V513.624H759.454C760.078 513.624 760.602 513.736 761.026 513.96C761.45 514.176 761.774 514.484 761.998 514.884C762.222 515.284 762.334 515.756 762.334 516.3C762.334 516.812 762.226 517.276 762.01 517.692C761.794 518.1 761.478 518.42 761.062 518.652C760.646 518.884 760.138 519 759.538 519H756.202ZM757.546 517.884H759.346C759.722 517.884 760.026 517.812 760.258 517.668C760.498 517.524 760.674 517.332 760.786 517.092C760.898 516.844 760.954 516.58 760.954 516.3C760.954 516.028 760.902 515.772 760.798 515.532C760.702 515.292 760.534 515.1 760.294 514.956C760.054 514.812 759.734 514.74 759.334 514.74H757.546V517.884ZM770.663 510.48V519H769.307V515.244H765.011V519H763.667V510.48H765.011V514.044H769.307V510.48H770.663ZM772.645 519V510.48H773.989V517.104L778.537 510.48H779.797V519H778.453V512.484L773.953 519H772.645ZM781.785 519V510.48H783.129V514.044H784.125L786.801 510.48H788.337L785.205 514.608L788.565 519H786.921L784.125 515.28H783.129V519H781.785ZM789.86 519V510.48H791.204V517.104L795.752 510.48H797.012V519H795.668V512.484L791.168 519H789.86Z" fill="white"/>
<rect width="33" height="54" transform="translate(1151 545) rotate(90)" fill="#403E3D"/>
<path d="M1108.49 566.096C1107.84 566.096 1107.26 565.96 1106.73 565.688C1106.21 565.416 1105.8 565.04 1105.5 564.56L1106.54 563.924C1106.73 564.252 1106.99 564.508 1107.32 564.692C1107.65 564.868 1108.04 564.956 1108.47 564.956C1109.01 564.956 1109.43 564.828 1109.72 564.572C1110.01 564.316 1110.16 563.976 1110.16 563.552C1110.16 563.28 1110.1 563.04 1109.98 562.832C1109.86 562.616 1109.68 562.452 1109.44 562.34C1109.2 562.22 1108.91 562.16 1108.56 562.16H1107.62V561.116H1108.56C1108.84 561.116 1109.08 561.064 1109.27 560.96C1109.47 560.848 1109.62 560.7 1109.73 560.516C1109.83 560.324 1109.88 560.108 1109.88 559.868C1109.88 559.62 1109.82 559.404 1109.7 559.22C1109.59 559.028 1109.43 558.88 1109.21 558.776C1109 558.664 1108.73 558.608 1108.42 558.608C1107.99 558.608 1107.62 558.696 1107.3 558.872C1107 559.048 1106.76 559.288 1106.58 559.592L1105.6 558.908C1105.9 558.444 1106.28 558.076 1106.74 557.804C1107.21 557.532 1107.79 557.396 1108.48 557.396C1109.03 557.396 1109.51 557.488 1109.91 557.672C1110.32 557.848 1110.63 558.108 1110.86 558.452C1111.08 558.788 1111.19 559.196 1111.19 559.676C1111.19 560.076 1111.09 560.452 1110.89 560.804C1110.7 561.148 1110.4 561.408 1109.99 561.584C1110.48 561.72 1110.86 561.976 1111.12 562.352C1111.39 562.728 1111.53 563.168 1111.53 563.672C1111.53 564.184 1111.4 564.624 1111.13 564.992C1110.87 565.352 1110.51 565.628 1110.05 565.82C1109.6 566.004 1109.08 566.096 1108.49 566.096ZM1113.83 566.048V564.92H1114.44C1114.64 564.92 1114.8 564.872 1114.9 564.776C1115 564.68 1115.1 564.536 1115.2 564.344L1115.45 563.792L1111.98 557.48H1113.47L1116.06 562.412L1118.26 557.48H1119.69L1116.23 564.98C1116.04 565.372 1115.83 565.648 1115.6 565.808C1115.37 565.968 1115.06 566.048 1114.67 566.048H1113.83ZM1120.54 566V557.48H1126.53V558.656H1121.88V561.044H1124.38C1125.32 561.044 1126.03 561.268 1126.5 561.716C1126.97 562.156 1127.21 562.74 1127.21 563.468C1127.21 563.956 1127.11 564.392 1126.9 564.776C1126.7 565.152 1126.39 565.452 1125.99 565.676C1125.59 565.892 1125.08 566 1124.46 566H1120.54ZM1121.88 564.824H1124.28C1124.65 564.824 1124.95 564.756 1125.17 564.62C1125.4 564.484 1125.57 564.312 1125.66 564.104C1125.77 563.888 1125.82 563.664 1125.82 563.432C1125.82 563.2 1125.77 562.984 1125.69 562.784C1125.6 562.584 1125.44 562.424 1125.21 562.304C1124.98 562.176 1124.67 562.112 1124.26 562.112H1121.88V564.824ZM1128.47 566V557.48H1132.05C1132.43 557.48 1132.78 557.56 1133.1 557.72C1133.42 557.88 1133.7 558.092 1133.94 558.356C1134.18 558.62 1134.37 558.916 1134.5 559.244C1134.62 559.572 1134.69 559.908 1134.69 560.252C1134.69 560.724 1134.58 561.176 1134.36 561.608C1134.16 562.032 1133.86 562.376 1133.46 562.64C1133.08 562.904 1132.63 563.036 1132.12 563.036H1129.82V566H1128.47ZM1129.82 561.848H1132.04C1132.29 561.848 1132.52 561.78 1132.71 561.644C1132.9 561.5 1133.05 561.308 1133.15 561.068C1133.26 560.828 1133.32 560.556 1133.32 560.252C1133.32 559.94 1133.26 559.664 1133.13 559.424C1133 559.184 1132.83 559 1132.62 558.872C1132.42 558.736 1132.2 558.668 1131.96 558.668H1129.82V561.848ZM1137.8 557.48H1139.07L1142.38 566H1140.97L1140.07 563.684H1136.78L1135.89 566H1134.46L1137.8 557.48ZM1139.8 562.688L1138.43 558.956L1137.02 562.688H1139.8Z" fill="white"/>
<g filter="url(#filter1_d_185_2981)">
<rect x="861" y="240" width="64" height="64" rx="32" fill="white" fill-opacity="0.1" shape-rendering="crispEdges"/>
<path d="M905.18 282.738V283.95H907.612V288.842H908.849V283.95H910.871L911.479 282.738H905.18Z" fill="#FCC214"/>
<path d="M904.668 282.738H901.301L900.39 283.647V288.842H901.606V284.274L901.931 283.95H904.07L904.668 282.738Z" fill="#FCC214"/>
<path d="M886.058 282.738H883.3L882.399 283.647V288.842H883.615V284.253L883.896 283.982H885.787L886.383 284.567V288.842H887.599V284.567L888.197 283.982H890.063L890.346 284.253V288.842H891.562V283.647L890.661 282.738H887.903L886.98 283.647L886.058 282.738Z" fill="#FCC214"/>
<path d="M877.793 264.952L874.474 268.299V275.032L877.863 278.417H911.526L909.294 273.955H878.95V269.415H895.859L899.133 266.145V259.297L895.859 256.027H874.512L876.712 260.489H894.656V264.952H877.793Z" fill="#FCC214"/>
<path d="M880.113 287.323L879.82 287.63H875.217L874.609 288.842H880.419L881.329 287.943V286.093L880.419 285.183H876.119L875.846 284.902V284.253L876.139 283.95H880.733L881.34 282.738H875.508L874.609 283.647V285.487L875.51 286.396H879.84L880.113 286.68V287.323Z" fill="#FCC214"/>
<path fill-rule="evenodd" clip-rule="evenodd" d="M892.611 286.1L893.512 285.194H898.115V283.95H893.219L892.632 282.738H898.421L899.331 283.647V287.943L898.421 288.842H893.532L892.611 287.924V286.1ZM898.115 287.609H893.848V286.407H898.115V287.609Z" fill="#FCC214"/>
<path fill-rule="evenodd" clip-rule="evenodd" d="M901.001 266.068L902.107 264.951L902.118 264.939H902.135H909.26H909.325L909.296 264.997L908.551 266.486L908.539 266.508H908.515H902.564V267.931H908.141H908.158L908.17 267.942L909.288 269.055L909.3 269.067V269.083V271.35V271.366L909.288 271.378L908.169 272.48L908.157 272.492H908.141H902.161H902.145L902.133 272.48L901.001 271.35L900.99 271.338V271.322V266.096V266.08L901.001 266.068ZM902.564 269.5H907.726V270.922H902.564V269.5Z" fill="#FCC214"/>
<path fill-rule="evenodd" clip-rule="evenodd" d="M901.001 257.129L902.107 256.012L902.118 256H902.135H909.26H909.325L909.296 256.058L908.551 257.547L908.539 257.569H908.515H902.564V258.992H908.141H908.158L908.17 259.004L909.288 260.116L909.3 260.128V260.145V262.411V262.428L909.288 262.439L908.169 263.541L908.157 263.553H908.141H902.161H902.145L902.133 263.541L901.001 262.411L900.99 262.4V262.383V257.157V257.141L901.001 257.129ZM902.564 260.561H907.726V261.984H902.564V260.561Z" fill="#FCC214"/>
<rect x="861.5" y="240.5" width="63" height="63" rx="31.5" stroke="#FCC214" shape-rendering="crispEdges"/>
</g>
<circle cx="893" cy="314" r="4" fill="#FCC214"/>
<circle cx="1225" cy="319" r="19.5" fill="white" fill-opacity="0.1" stroke="white"/>
<circle cx="874" cy="183" r="19.5" fill="white" fill-opacity="0.1" stroke="white"/>
<path d="M874.091 188.22C874.657 188.786 874.654 189.697 874.091 190.256L872.822 191.525C872.267 192.084 871.349 192.091 870.787 191.525L865.471 186.213C864.909 185.65 864.909 184.736 865.471 184.177L866.74 182.908C867.303 182.345 868.21 182.342 868.776 182.908L874.091 188.22ZM865.686 187.598C865.555 187.468 865.341 187.492 865.239 187.647C864.842 188.255 864.965 188.994 865.422 189.451L867.549 191.578C868.002 192.031 868.737 192.161 869.352 191.76C869.507 191.658 869.532 191.444 869.401 191.314L865.686 187.598ZM874.967 180.074C874.742 179.849 874.376 179.849 874.151 180.074L871.075 183.15C870.85 183.375 870.85 183.741 871.075 183.966L873.037 185.928C873.262 186.153 873.627 186.153 873.852 185.928L876.928 182.852C877.153 182.627 877.153 182.261 876.928 182.036L874.967 180.074ZM882.314 178.401C882.444 178.531 882.659 178.506 882.76 178.351C883.161 177.736 883.031 176.998 882.578 176.548L880.451 174.421C879.994 173.967 879.259 173.841 878.647 174.238C878.493 174.34 878.468 174.554 878.598 174.685L882.314 178.401ZM877.213 174.47C876.65 173.908 875.736 173.908 875.177 174.47L873.908 175.739C873.346 176.302 873.342 177.209 873.908 177.775L879.22 183.087C879.786 183.653 880.697 183.646 881.256 183.087L882.525 181.818C883.087 181.255 883.087 180.341 882.525 179.782L877.213 174.47Z" fill="white"/>
<circle cx="1051" cy="260" r="19.5" fill="white" fill-opacity="0.1" stroke="white"/>
<g clip-path="url(#clip0_185_2981)">
<path d="M1044.91 252C1044.91 252 1044.91 252 1044.9 252C1044.73 252 1044.56 252.072 1044.43 252.204C1044.3 252.337 1044.23 252.514 1044.23 252.703V263.238C1044.23 263.624 1044.53 263.939 1044.91 263.94C1046.49 263.944 1049.14 264.285 1050.97 266.263V255.238C1050.97 255.107 1050.94 254.984 1050.88 254.882C1049.38 252.383 1046.49 252.004 1044.91 252Z" fill="white"/>
<path d="M1058.77 263.238V252.703C1058.77 252.514 1058.7 252.337 1058.57 252.204C1058.44 252.072 1058.28 252 1058.1 252C1058.1 252 1058.09 252 1058.09 252C1056.51 252.004 1053.62 252.383 1052.12 254.882C1052.06 254.984 1052.03 255.107 1052.03 255.238V266.263C1053.86 264.285 1056.51 263.944 1058.09 263.94C1058.47 263.939 1058.77 263.624 1058.77 263.238Z" fill="white"/>
<path d="M1060.32 254.43H1059.83V263.238C1059.83 264.224 1059.05 265.029 1058.09 265.031C1056.75 265.034 1054.54 265.306 1052.97 266.839C1055.68 266.153 1058.54 266.599 1060.17 266.982C1060.37 267.03 1060.58 266.981 1060.74 266.846C1060.91 266.713 1061 266.512 1061 266.298V255.132C1061 254.745 1060.7 254.43 1060.32 254.43Z" fill="white"/>
<path d="M1043.17 263.238V254.43H1042.68C1042.31 254.43 1042 254.745 1042 255.132V266.297C1042 266.512 1042.09 266.712 1042.26 266.846C1042.42 266.98 1042.63 267.03 1042.83 266.982C1044.46 266.598 1047.32 266.153 1050.03 266.838C1048.46 265.305 1046.25 265.034 1044.91 265.031C1043.95 265.029 1043.17 264.224 1043.17 263.238Z" fill="white"/>
</g>
<rect width="33" height="137" transform="translate(943.381 59) rotate(6.86712)" fill="#403E3D"/>
<path d="M948.912 188.704L942.705 187.956L943.078 184.859C943.12 184.509 943.231 184.225 943.411 184.004C943.582 183.783 943.791 183.627 944.035 183.536C944.281 183.436 944.535 183.403 944.797 183.434C945.13 183.474 945.423 183.59 945.674 183.781C945.917 183.972 946.087 184.226 946.186 184.544C946.332 184.199 946.554 183.932 946.851 183.742C947.148 183.552 947.487 183.48 947.868 183.526C948.202 183.566 948.481 183.684 948.708 183.881C948.935 184.069 949.098 184.315 949.199 184.617C949.301 184.911 949.329 185.241 949.285 185.606L948.912 188.704ZM948.422 187.859L948.699 185.56C948.724 185.353 948.694 185.161 948.611 184.981C948.521 184.793 948.394 184.641 948.231 184.525C948.069 184.4 947.892 184.327 947.702 184.304C947.495 184.279 947.303 184.304 947.125 184.379C946.938 184.453 946.784 184.564 946.662 184.71C946.539 184.857 946.466 185.033 946.441 185.24L946.158 187.587L948.422 187.859ZM945.598 187.519L945.852 185.41C945.877 185.204 945.843 185.015 945.751 184.842C945.659 184.67 945.531 184.53 945.367 184.421C945.203 184.313 945.025 184.247 944.835 184.224C944.549 184.19 944.287 184.255 944.05 184.42C943.813 184.577 943.677 184.802 943.642 185.096L943.382 187.252L945.598 187.519ZM952.361 181.95C952.344 182.085 952.304 182.221 952.239 182.358C952.183 182.489 952.107 182.62 952.01 182.754L951.474 182.387C951.532 182.305 951.581 182.231 951.622 182.163C951.663 182.088 951.689 182.006 951.7 181.919C951.724 181.712 951.645 181.505 951.46 181.298C951.276 181.09 950.995 180.879 950.618 180.664L949.881 180.261L943.388 182.284L943.492 181.426L949.139 179.797L944.018 177.053L944.116 176.243L950.944 180.063C951.298 180.267 951.584 180.47 951.801 180.674C952.018 180.877 952.171 181.085 952.258 181.297C952.353 181.51 952.387 181.728 952.361 181.95ZM950.423 176.459L949.685 176.37C949.71 176.156 949.678 175.958 949.587 175.778C949.488 175.597 949.307 175.426 949.044 175.266C948.782 175.097 948.414 174.944 947.939 174.806C947.456 174.667 946.839 174.541 946.087 174.426L944.368 174.146L944.853 170.12L951.06 170.867L950.963 171.677L945.482 171.017L945.181 173.519L946.251 173.672C947.105 173.807 947.815 173.961 948.383 174.134C948.942 174.306 949.377 174.508 949.688 174.739C949.999 174.962 950.21 175.217 950.321 175.504C950.431 175.791 950.465 176.11 950.423 176.459ZM951.275 169.088L945.079 168.342L945.177 167.532L950.276 168.146L945.62 163.754L945.707 163.027L951.915 163.774L951.817 164.584L946.801 163.98L951.369 168.302L951.275 169.088ZM954.165 157.231L952.724 157.058L952.127 162.014L945.919 161.267L946.017 160.456L951.509 161.118L951.897 157.901L946.404 157.24L946.502 156.429L951.994 157.091L952.096 156.245L954.253 156.505L954.165 157.231ZM952.903 155.567L950.588 153.415C950.473 153.828 950.25 154.148 949.916 154.374C949.576 154.591 949.14 154.667 948.608 154.603C948.25 154.56 947.942 154.438 947.685 154.238C947.427 154.038 947.232 153.777 947.102 153.455C946.973 153.125 946.933 152.753 946.982 152.34L947.268 149.969L953.487 150.718L953.389 151.529L950.983 151.239L950.816 152.621L953.012 154.662L952.903 155.567ZM950.174 152.737L950.363 151.164L947.814 150.857L947.642 152.287C947.592 152.7 947.671 153.044 947.88 153.319C948.081 153.593 948.36 153.751 948.717 153.794C949.082 153.838 949.404 153.776 949.682 153.608C949.961 153.432 950.125 153.142 950.174 152.737ZM949.378 137.403L949.155 139.256C948.911 139.261 948.689 139.304 948.491 139.386C948.289 139.468 948.112 139.583 947.96 139.73C947.808 139.878 947.683 140.055 947.587 140.26C947.491 140.463 947.428 140.689 947.398 140.937C947.344 141.386 947.409 141.79 947.591 142.149C947.771 142.509 948.062 142.806 948.463 143.04C948.861 143.274 949.36 143.427 949.961 143.499C950.579 143.574 951.109 143.545 951.551 143.412C951.994 143.276 952.343 143.055 952.597 142.748C952.851 142.441 953.005 142.069 953.058 141.632C953.087 141.386 953.082 141.155 953.042 140.939C953.003 140.719 952.931 140.521 952.827 140.342C952.719 140.163 952.582 140.009 952.414 139.88C952.247 139.749 952.05 139.648 951.824 139.577L952.056 137.725C952.448 137.821 952.817 137.987 953.163 138.224C953.507 138.457 953.805 138.752 954.057 139.108C954.306 139.461 954.489 139.87 954.605 140.333C954.718 140.793 954.741 141.301 954.674 141.856C954.581 142.629 954.323 143.299 953.9 143.866C953.477 144.431 952.913 144.849 952.208 145.122C951.503 145.392 950.68 145.47 949.738 145.357C948.793 145.243 948.01 144.968 947.39 144.533C946.77 144.098 946.323 143.555 946.05 142.904C945.773 142.252 945.681 141.546 945.773 140.784C945.833 140.282 945.96 139.825 946.153 139.414C946.345 138.999 946.597 138.642 946.908 138.342C947.216 138.041 947.578 137.81 947.992 137.648C948.407 137.483 948.869 137.402 949.378 137.403ZM947.973 136.236L946.463 136.054L947.32 128.938L948.83 129.12L948.511 131.772L955.665 132.634L955.447 134.445L948.293 133.583L947.973 136.236ZM956.126 128.809L947.461 127.766L947.873 124.347C947.952 123.69 948.145 123.145 948.451 122.713C948.755 122.28 949.143 121.969 949.615 121.78C950.085 121.588 950.607 121.526 951.183 121.595C951.758 121.665 952.251 121.85 952.661 122.151C953.071 122.452 953.37 122.853 953.559 123.354C953.748 123.852 953.803 124.433 953.722 125.099L953.46 127.278L951.992 127.101L952.219 125.218C952.261 124.866 952.235 124.568 952.142 124.325C952.045 124.079 951.895 123.886 951.692 123.747C951.486 123.605 951.24 123.517 950.955 123.482C950.668 123.448 950.41 123.475 950.181 123.565C949.951 123.652 949.762 123.804 949.616 124.021C949.467 124.237 949.371 124.523 949.328 124.879L949.179 126.114L956.346 126.977L956.126 128.809ZM948.39 120.052L948.61 118.224L954.059 118.88L954.068 118.809L949.07 114.408L949.263 112.805L957.927 113.848L957.707 115.68L952.253 115.023L952.246 115.087L957.246 119.509L957.055 121.095L948.39 120.052ZM949.445 111.291L949.665 109.463L955.114 110.12L955.123 110.048L950.125 105.647L950.318 104.044L958.982 105.087L958.762 106.919L953.308 106.262L953.301 106.326L958.301 110.748L958.11 112.335L949.445 111.291ZM947.715 106.55L947.867 105.294C948.38 105.358 948.77 105.598 949.037 106.014C949.305 106.427 949.401 106.953 949.324 107.594C949.246 108.237 949.028 108.727 948.67 109.065C948.312 109.402 947.876 109.54 947.363 109.478L947.513 108.23C947.707 108.256 947.89 108.215 948.06 108.107C948.231 107.996 948.335 107.787 948.372 107.479C948.408 107.18 948.357 106.957 948.221 106.809C948.084 106.66 947.916 106.574 947.715 106.55ZM954.454 95.2504L954.231 97.1035C953.987 97.1084 953.766 97.1519 953.567 97.2338C953.366 97.3154 953.189 97.4301 953.036 97.5777C952.884 97.7253 952.76 97.9021 952.664 98.1079C952.568 98.311 952.505 98.5366 952.475 98.7848C952.421 99.2333 952.485 99.6373 952.668 99.997C952.848 100.356 953.138 100.653 953.539 100.887C953.937 101.121 954.437 101.274 955.038 101.347C955.655 101.421 956.185 101.392 956.628 101.259C957.07 101.124 957.419 100.903 957.673 100.596C957.928 100.289 958.081 99.9164 958.134 99.4792C958.164 99.2339 958.159 99.0029 958.119 98.7864C958.079 98.567 958.007 98.3681 957.903 98.1895C957.796 98.0107 957.658 97.8568 957.491 97.7278C957.324 97.5961 957.127 97.4951 956.901 97.425L957.132 95.5729C957.524 95.6688 957.893 95.8348 958.24 96.0711C958.584 96.3043 958.882 96.5991 959.133 96.9556C959.383 97.309 959.565 97.7173 959.681 98.1805C959.795 98.6405 959.818 99.1484 959.751 99.704C959.658 100.477 959.4 101.147 958.977 101.714C958.554 102.278 957.99 102.697 957.285 102.969C956.58 103.239 955.756 103.318 954.814 103.204C953.869 103.09 953.087 102.816 952.467 102.381C951.847 101.945 951.4 101.402 951.126 100.751C950.85 100.1 950.758 99.3935 950.849 98.632C950.91 98.1299 951.036 97.673 951.229 97.2613C951.422 96.8467 951.674 96.4893 951.985 96.1891C952.293 95.8886 952.654 95.6574 953.068 95.4955C953.483 95.3309 953.945 95.2492 954.454 95.2504ZM954.927 92.7513L955.175 90.6867C955.258 89.9985 955.441 89.4196 955.724 88.95C956.004 88.4773 956.362 88.1298 956.798 87.9076C957.234 87.6854 957.725 87.6087 958.272 87.6774C958.817 87.7401 959.281 87.932 959.666 88.2531C960.048 88.5738 960.326 88.9978 960.5 89.5253C960.675 90.0499 960.72 90.6563 960.637 91.3445L960.248 94.581L951.583 93.5376L951.803 91.7099L958.995 92.576L959.165 91.1672C959.205 90.8372 959.179 90.5522 959.088 90.3123C958.994 90.0721 958.855 89.8822 958.671 89.7428C958.485 89.6002 958.274 89.5161 958.036 89.4904C957.693 89.4461 957.387 89.5409 957.118 89.7746C956.847 90.0053 956.682 90.3674 956.622 90.861L956.374 92.9256L954.927 92.7513ZM961.846 81.3101L957.817 83.6492L957.742 84.2753L961.435 84.7201L961.215 86.5521L952.55 85.5086L952.771 83.6766L956.231 84.0934L956.276 83.7253L953.161 80.4316L953.436 78.1512L957.048 82.0157L962.12 79.0382L961.846 81.3101ZM962.41 76.6234L962.174 78.5865L953.869 74.5519L954.154 72.1911L963.178 70.2476L962.942 72.2107L955.996 73.5761L955.988 73.6438L962.41 76.6234ZM958.99 76.336L959.548 71.699L960.978 71.8712L960.42 76.5082L958.99 76.336Z" fill="white"/>
<rect width="33" height="119" transform="translate(783.611 117.914) rotate(98.6579)" fill="#403E3D"/>
<path d="M671.593 122.099L672.534 115.918L675.618 116.388C675.966 116.441 676.248 116.56 676.462 116.747C676.678 116.925 676.827 117.138 676.911 117.386C677.003 117.634 677.028 117.889 676.989 118.15C676.938 118.482 676.813 118.771 676.614 119.016C676.416 119.252 676.157 119.415 675.836 119.504C676.176 119.661 676.436 119.891 676.617 120.193C676.797 120.496 676.859 120.837 676.801 121.217C676.75 121.549 676.623 121.825 676.42 122.045C676.224 122.266 675.974 122.422 675.669 122.513C675.372 122.605 675.041 122.624 674.677 122.568L671.593 122.099ZM672.452 121.635L674.742 121.984C674.948 122.015 675.141 121.992 675.323 121.914C675.514 121.83 675.67 121.708 675.791 121.549C675.921 121.39 676 121.216 676.029 121.026C676.06 120.821 676.041 120.628 675.971 120.447C675.903 120.259 675.797 120.101 675.655 119.974C675.512 119.847 675.338 119.768 675.133 119.737L672.796 119.381L672.452 121.635ZM672.881 118.823L674.98 119.143C675.186 119.174 675.376 119.147 675.551 119.06C675.726 118.973 675.871 118.85 675.984 118.689C676.098 118.528 676.169 118.353 676.198 118.163C676.241 117.878 676.184 117.615 676.027 117.372C675.877 117.131 675.656 116.988 675.364 116.944L673.217 116.617L672.881 118.823ZM678.236 125.756C678.101 125.736 677.967 125.691 677.831 125.622C677.703 125.562 677.574 125.482 677.443 125.381L677.827 124.857C677.906 124.917 677.979 124.969 678.046 125.011C678.12 125.055 678.201 125.084 678.288 125.097C678.493 125.128 678.703 125.055 678.916 124.877C679.129 124.699 679.349 124.425 679.575 124.055L680.001 123.331L678.183 116.778L679.037 116.908L680.488 122.604L683.391 117.571L684.197 117.694L680.166 124.4C679.951 124.747 679.739 125.026 679.529 125.237C679.319 125.448 679.106 125.594 678.892 125.674C678.676 125.763 678.457 125.79 678.236 125.756ZM683.785 123.992L683.897 123.256C684.11 123.289 684.308 123.262 684.491 123.177C684.675 123.083 684.852 122.908 685.021 122.65C685.197 122.394 685.362 122.031 685.514 121.56C685.668 121.082 685.814 120.469 685.952 119.721L686.285 118.012L690.295 118.623L689.354 124.803L688.547 124.68L689.378 119.223L686.887 118.844L686.701 119.908C686.539 120.757 686.363 121.463 686.172 122.025C685.982 122.578 685.767 123.007 685.527 123.31C685.295 123.615 685.033 123.818 684.742 123.919C684.452 124.02 684.133 124.045 683.785 123.992ZM691.125 125.073L692.065 118.904L692.872 119.027L692.098 124.104L696.634 119.588L697.358 119.698L696.416 125.879L695.61 125.756L696.37 120.761L691.908 125.192L691.125 125.073ZM702.886 128.333L703.104 126.897L698.169 126.146L699.11 119.965L699.917 120.088L699.084 125.557L702.287 126.044L703.12 120.575L703.927 120.698L703.094 126.167L703.936 126.295L703.609 128.443L702.886 128.333ZM704.589 127.123L706.812 124.876C706.403 124.749 706.09 124.515 705.875 124.175C705.669 123.828 705.606 123.39 705.687 122.86C705.741 122.504 705.872 122.2 706.08 121.949C706.289 121.697 706.556 121.511 706.882 121.391C707.215 121.272 707.588 121.244 707.999 121.306L710.36 121.666L709.417 127.858L708.61 127.735L708.975 125.339L707.599 125.13L705.49 127.26L704.589 127.123ZM707.503 124.484L709.069 124.722L709.456 122.183L708.032 121.967C707.621 121.904 707.274 121.973 706.993 122.173C706.713 122.365 706.546 122.639 706.492 122.995C706.436 123.358 706.488 123.682 706.647 123.965C706.814 124.249 707.1 124.422 707.503 124.484ZM714.388 128.615L715.702 119.987L717.526 120.265L716.984 123.825L720.687 124.389L721.229 120.829L723.049 121.106L721.735 129.734L719.915 129.457L720.458 125.893L716.755 125.329L716.212 128.893L714.388 128.615ZM724.726 130.189L722.771 129.892L727.064 121.717L729.414 122.075L731.075 131.156L729.12 130.859L727.973 123.873L727.905 123.863L724.726 130.189ZM725.12 126.78L729.738 127.483L729.521 128.907L724.904 128.203L725.12 126.78ZM732.146 131.44L732.372 129.957L732.839 130.028C733.073 130.064 733.265 130.064 733.417 130.03C733.569 129.993 733.696 129.924 733.797 129.825C733.902 129.723 733.997 129.591 734.082 129.429L734.23 129.162L732.041 122.475L733.928 122.763L735.312 127.318L737.657 123.331L739.519 123.614L735.489 130.095C735.297 130.394 735.082 130.666 734.843 130.911C734.607 131.157 734.325 131.341 733.996 131.463C733.667 131.585 733.267 131.611 732.795 131.539L732.146 131.44ZM744.412 133.187L742.2 129.087L741.576 128.992L741.016 132.67L739.192 132.392L740.506 123.764L742.33 124.042L741.805 127.488L742.172 127.544L745.561 124.534L747.832 124.88L743.856 128.369L746.674 133.531L744.412 133.187ZM755.69 130.49C755.547 131.431 755.247 132.204 754.789 132.81C754.335 133.416 753.775 133.847 753.11 134.102C752.448 134.355 751.736 134.423 750.975 134.307C750.208 134.19 749.547 133.911 748.99 133.47C748.434 133.029 748.029 132.452 747.776 131.738C747.522 131.024 747.467 130.198 747.61 129.26C747.753 128.319 748.052 127.546 748.506 126.94C748.961 126.333 749.519 125.904 750.181 125.651C750.843 125.396 751.558 125.327 752.325 125.443C753.086 125.559 753.745 125.838 754.301 126.279C754.861 126.717 755.267 127.294 755.521 128.008C755.777 128.722 755.833 129.549 755.69 130.49ZM753.841 130.209C753.933 129.599 753.92 129.071 753.802 128.625C753.686 128.179 753.48 127.823 753.184 127.557C752.888 127.291 752.52 127.124 752.079 127.057C751.638 126.99 751.237 127.039 750.875 127.205C750.514 127.372 750.21 127.65 749.964 128.041C749.72 128.432 749.552 128.932 749.459 129.542C749.366 130.151 749.378 130.679 749.494 131.125C749.613 131.571 749.82 131.927 750.116 132.193C750.412 132.46 750.78 132.626 751.221 132.694C751.662 132.761 752.063 132.711 752.424 132.545C752.786 132.379 753.089 132.1 753.332 131.709C753.578 131.318 753.748 130.818 753.841 130.209ZM756.384 135.01L757.698 126.382L761.153 126.908C761.787 127.005 762.302 127.18 762.698 127.432C763.093 127.685 763.372 127.995 763.535 128.362C763.698 128.725 763.746 129.124 763.681 129.556C763.629 129.893 763.517 130.179 763.343 130.414C763.17 130.646 762.953 130.826 762.692 130.953C762.435 131.078 762.15 131.151 761.84 131.172L761.827 131.257C762.153 131.321 762.447 131.46 762.707 131.675C762.97 131.891 763.168 132.166 763.301 132.503C763.434 132.836 763.468 133.215 763.404 133.639C763.334 134.097 763.158 134.488 762.876 134.813C762.597 135.136 762.221 135.367 761.748 135.508C761.276 135.649 760.717 135.67 760.071 135.571L756.384 135.01ZM758.436 133.796L759.923 134.023C760.431 134.1 760.817 134.06 761.079 133.902C761.342 133.74 761.499 133.497 761.548 133.171C761.585 132.932 761.559 132.713 761.472 132.513C761.384 132.313 761.242 132.145 761.044 132.008C760.849 131.872 760.606 131.782 760.314 131.738L758.785 131.505L758.436 133.796ZM758.973 130.27L760.325 130.476C760.575 130.514 760.803 130.505 761.01 130.447C761.221 130.387 761.394 130.284 761.532 130.138C761.671 129.993 761.759 129.807 761.793 129.579C761.841 129.267 761.768 128.999 761.575 128.774C761.385 128.55 761.088 128.407 760.684 128.345L759.298 128.134L758.973 130.27ZM765.715 136.431L763.76 136.133L768.052 127.959L770.403 128.317L772.063 137.397L770.109 137.1L768.961 130.114L768.894 130.104L765.715 136.431ZM766.109 133.021L770.726 133.724L770.509 135.148L765.892 134.445L766.109 133.021Z" fill="white"/>
<rect width="33" height="131" transform="translate(1143.48 169.04) rotate(95.2733)" fill="#403E3D"/>
<path d="M1019.95 178.728L1020.53 172.503L1023.63 172.789C1023.99 172.822 1024.27 172.925 1024.5 173.098C1024.72 173.264 1024.89 173.467 1024.98 173.709C1025.09 173.952 1025.13 174.205 1025.11 174.468C1025.08 174.802 1024.97 175.098 1024.78 175.354C1024.6 175.602 1024.35 175.78 1024.04 175.887C1024.38 176.024 1024.66 176.238 1024.86 176.53C1025.05 176.821 1025.14 177.158 1025.1 177.54C1025.07 177.875 1024.96 178.158 1024.77 178.389C1024.59 178.622 1024.35 178.792 1024.05 178.901C1023.76 179.011 1023.43 179.049 1023.06 179.015L1019.95 178.728ZM1020.78 178.214L1023.09 178.427C1023.3 178.446 1023.49 178.412 1023.67 178.324C1023.85 178.228 1024 178.098 1024.11 177.931C1024.23 177.765 1024.3 177.587 1024.32 177.396C1024.34 177.189 1024.31 176.997 1024.23 176.821C1024.15 176.637 1024.03 176.486 1023.88 176.367C1023.73 176.249 1023.55 176.18 1023.35 176.161L1020.99 175.944L1020.78 178.214ZM1021.05 175.382L1023.16 175.578C1023.37 175.597 1023.56 175.558 1023.73 175.461C1023.89 175.364 1024.03 175.232 1024.14 175.065C1024.24 174.898 1024.3 174.719 1024.32 174.528C1024.34 174.241 1024.27 173.981 1024.1 173.748C1023.94 173.516 1023.71 173.387 1023.41 173.36L1021.25 173.16L1021.05 175.382ZM1026.8 181.987C1026.67 181.975 1026.53 181.938 1026.39 181.877C1026.26 181.825 1026.12 181.752 1025.99 181.659L1026.34 181.113C1026.42 181.169 1026.5 181.216 1026.57 181.255C1026.64 181.294 1026.73 181.318 1026.81 181.326C1027.02 181.345 1027.23 181.259 1027.43 181.069C1027.63 180.879 1027.83 180.592 1028.04 180.209L1028.42 179.461L1026.22 173.028L1027.08 173.107L1028.86 178.707L1031.46 173.512L1032.28 173.587L1028.65 180.519C1028.45 180.879 1028.26 181.17 1028.06 181.393C1027.86 181.615 1027.66 181.773 1027.45 181.867C1027.24 181.968 1027.02 182.008 1026.8 181.987ZM1032.24 179.898L1032.3 179.157C1032.52 179.177 1032.72 179.139 1032.89 179.043C1033.07 178.939 1033.24 178.753 1033.39 178.486C1033.55 178.22 1033.69 177.847 1033.82 177.369C1033.94 176.882 1034.05 176.262 1034.15 175.507L1034.38 173.781L1038.42 174.154L1037.84 180.379L1037.03 180.304L1037.54 174.808L1035.03 174.576L1034.91 175.649C1034.79 176.507 1034.66 177.222 1034.5 177.793C1034.35 178.357 1034.16 178.798 1033.93 179.115C1033.72 179.433 1033.47 179.651 1033.19 179.769C1032.9 179.887 1032.59 179.93 1032.24 179.898ZM1039.63 180.544L1040.2 174.331L1041.01 174.406L1040.54 179.52L1044.8 174.743L1045.53 174.81L1044.96 181.036L1044.14 180.961L1044.61 175.93L1040.42 180.617L1039.63 180.544ZM1051.56 183.104L1051.69 181.658L1046.72 181.199L1047.3 174.973L1048.11 175.048L1047.6 180.557L1050.83 180.855L1051.34 175.346L1052.15 175.421L1051.64 180.93L1052.49 181.008L1052.29 183.171L1051.56 183.104ZM1053.19 181.796L1055.27 179.422C1054.86 179.319 1054.53 179.104 1054.3 178.777C1054.07 178.443 1053.98 178.009 1054.03 177.475C1054.07 177.117 1054.18 176.806 1054.37 176.542C1054.56 176.279 1054.82 176.078 1055.14 175.938C1055.46 175.8 1055.83 175.749 1056.25 175.788L1058.63 176.007L1058.05 182.245L1057.24 182.17L1057.46 179.756L1056.08 179.628L1054.1 181.88L1053.19 181.796ZM1055.94 178.989L1057.52 179.135L1057.75 176.577L1056.32 176.445C1055.91 176.407 1055.57 176.496 1055.3 176.712C1055.03 176.92 1054.88 177.204 1054.84 177.562C1054.81 177.928 1054.88 178.248 1055.06 178.522C1055.24 178.796 1055.54 178.951 1055.94 178.989ZM1065.58 174.175L1067.06 177.299L1067.13 177.305L1069.16 174.506L1071.24 174.698L1068.19 178.798L1070.5 183.393L1068.38 183.198L1066.88 180.068L1066.81 180.061L1064.75 182.863L1062.65 182.669L1065.77 178.575L1063.5 173.983L1065.58 174.175ZM1072.53 183.701L1072.66 182.207L1073.14 182.25C1073.37 182.272 1073.56 182.261 1073.71 182.218C1073.86 182.172 1073.98 182.096 1074.08 181.991C1074.18 181.883 1074.27 181.745 1074.34 181.578L1074.47 181.304L1071.89 174.758L1073.79 174.933L1075.44 179.399L1077.55 175.28L1079.43 175.453L1075.78 182.161C1075.61 182.47 1075.41 182.754 1075.19 183.013C1074.97 183.272 1074.7 183.473 1074.38 183.614C1074.05 183.756 1073.66 183.805 1073.18 183.761L1072.53 183.701ZM1080.5 177.08L1080.64 175.565L1087.77 176.224L1087.63 177.738L1084.97 177.493L1084.31 184.668L1082.49 184.501L1083.16 177.325L1080.5 177.08ZM1096.14 181.378C1096.05 182.325 1095.8 183.115 1095.38 183.747C1094.96 184.379 1094.42 184.841 1093.77 185.135C1093.13 185.427 1092.42 185.537 1091.66 185.466C1090.88 185.395 1090.21 185.155 1089.63 184.748C1089.04 184.341 1088.61 183.788 1088.31 183.09C1088.02 182.393 1087.91 181.571 1088 180.626C1088.09 179.679 1088.34 178.889 1088.76 178.257C1089.17 177.625 1089.71 177.164 1090.35 176.872C1091 176.578 1091.71 176.467 1092.48 176.538C1093.25 176.609 1093.92 176.848 1094.5 177.255C1095.09 177.66 1095.53 178.212 1095.82 178.909C1096.12 179.607 1096.22 180.43 1096.14 181.378ZM1094.27 181.206C1094.33 180.592 1094.29 180.066 1094.14 179.627C1094 179.189 1093.77 178.846 1093.46 178.597C1093.15 178.349 1092.77 178.204 1092.33 178.163C1091.89 178.122 1091.49 178.195 1091.14 178.383C1090.79 178.57 1090.5 178.866 1090.28 179.27C1090.06 179.675 1089.92 180.185 1089.86 180.798C1089.8 181.412 1089.85 181.938 1089.99 182.377C1090.13 182.815 1090.36 183.158 1090.67 183.407C1090.98 183.655 1091.36 183.8 1091.81 183.841C1092.25 183.882 1092.65 183.809 1093 183.621C1093.35 183.434 1093.64 183.138 1093.86 182.733C1094.08 182.329 1094.22 181.82 1094.27 181.206ZM1097.1 185.848L1097.9 177.158L1101.33 177.475C1101.99 177.535 1102.54 177.713 1102.98 178.008C1103.42 178.299 1103.74 178.679 1103.94 179.145C1104.15 179.609 1104.22 180.13 1104.17 180.707C1104.12 181.284 1103.95 181.782 1103.66 182.2C1103.37 182.618 1102.97 182.929 1102.48 183.131C1101.99 183.334 1101.41 183.405 1100.74 183.343L1098.55 183.141L1098.69 181.669L1100.58 181.843C1100.93 181.876 1101.23 181.842 1101.47 181.741C1101.71 181.638 1101.9 181.483 1102.03 181.276C1102.17 181.066 1102.25 180.818 1102.28 180.532C1102.3 180.244 1102.27 179.987 1102.17 179.761C1102.08 179.533 1101.92 179.348 1101.7 179.208C1101.48 179.065 1101.19 178.977 1100.84 178.944L1099.6 178.83L1098.93 186.018L1097.1 185.848ZM1107.47 178.042L1106.67 186.732L1104.83 186.563L1105.64 177.872L1107.47 178.042ZM1108.18 186.872L1108.99 178.181L1112.46 178.502C1113.1 178.561 1113.63 178.705 1114.04 178.934C1114.45 179.163 1114.74 179.456 1114.93 179.813C1115.11 180.166 1115.18 180.561 1115.14 180.997C1115.11 181.336 1115.02 181.628 1114.86 181.873C1114.7 182.115 1114.49 182.307 1114.24 182.449C1113.99 182.589 1113.71 182.679 1113.4 182.719L1113.39 182.804C1113.72 182.848 1114.03 182.97 1114.3 183.169C1114.57 183.369 1114.79 183.633 1114.94 183.96C1115.09 184.285 1115.15 184.662 1115.11 185.089C1115.07 185.55 1114.91 185.951 1114.65 186.292C1114.39 186.63 1114.03 186.884 1113.57 187.052C1113.1 187.22 1112.55 187.274 1111.9 187.214L1108.18 186.872ZM1110.16 185.539L1111.66 185.677C1112.17 185.725 1112.55 185.661 1112.8 185.488C1113.06 185.312 1113.2 185.059 1113.23 184.731C1113.25 184.491 1113.21 184.273 1113.11 184.079C1113.01 183.884 1112.86 183.725 1112.66 183.6C1112.45 183.476 1112.21 183.4 1111.91 183.373L1110.37 183.231L1110.16 185.539ZM1110.49 181.987L1111.85 182.113C1112.1 182.136 1112.33 182.113 1112.53 182.043C1112.74 181.971 1112.91 181.858 1113.03 181.705C1113.16 181.551 1113.24 181.36 1113.26 181.131C1113.29 180.817 1113.2 180.553 1113 180.34C1112.79 180.128 1112.49 180.003 1112.08 179.965L1110.69 179.836L1110.49 181.987ZM1121.34 188.086L1118.89 184.124L1118.26 184.066L1117.92 187.77L1116.08 187.601L1116.89 178.91L1118.72 179.08L1118.4 182.551L1118.77 182.585L1121.98 179.38L1124.26 179.592L1120.5 183.31L1123.62 188.296L1121.34 188.086ZM1126.04 188.52L1124.07 188.338L1127.87 179.925L1130.24 180.143L1132.44 189.11L1130.47 188.928L1128.91 182.023L1128.84 182.017L1126.04 188.52ZM1126.23 185.093L1130.88 185.522L1130.75 186.956L1126.1 186.527L1126.23 185.093Z" fill="white"/>
<circle cx="945" cy="396" r="19.5" fill="white" fill-opacity="0.1" stroke="white"/>
<path d="M953.088 391.646C952.927 390.129 952.671 388.948 952.266 388.484C950.598 386.576 938.909 386.436 937.582 388.484C937.257 388.986 937.03 390.163 936.877 391.648C936.384 391.704 936 392.105 936 392.596V394.454C936 394.867 936.271 395.216 936.649 395.352C936.56 398.278 936.632 401.331 936.767 402.849C936.767 404.021 937.582 403.827 937.582 403.827H938.346V405.092C938.346 405.594 938.881 406 939.541 406C940.201 406 940.737 405.594 940.737 405.092V403.827H949.625V405.092C949.625 405.594 950.16 406 950.82 406C951.48 406 952.015 405.594 952.015 405.092V403.827H952.266C952.266 403.827 953.226 403.954 953.287 403.402C953.287 401.888 953.386 398.532 953.304 395.365C953.707 395.243 954 394.885 954 394.454V392.596C954 392.094 953.598 391.686 953.088 391.646ZM940.437 388.756H949.412V390.068H940.437V388.756ZM940.565 402.333C939.86 402.333 939.289 401.781 939.289 401.1C939.289 400.42 939.86 399.868 940.565 399.868C941.269 399.868 941.841 400.42 941.841 401.1C941.841 401.781 941.27 402.333 940.565 402.333ZM949.364 402.333C948.66 402.333 948.087 401.781 948.087 401.1C948.087 400.42 948.659 399.868 949.364 399.868C950.068 399.868 950.639 400.42 950.639 401.1C950.64 401.781 950.068 402.333 949.364 402.333ZM950.986 396.939H938.863V390.796H950.986V396.939Z" fill="white"/>
<circle cx="869" cy="498" r="19.5" fill="white" fill-opacity="0.1" stroke="white"/>
<g clip-path="url(#clip1_185_2981)">
<path d="M866.159 508C867.374 508 868.359 506.994 868.359 505.754C868.359 504.513 867.374 503.508 866.159 503.508C864.945 503.508 863.96 504.513 863.96 505.754C863.96 506.994 864.945 508 866.159 508Z" fill="white"/>
<path d="M872.578 503.508C871.364 503.508 870.379 504.513 870.379 505.754C870.379 506.994 871.364 508 872.578 508C873.793 508 874.778 506.994 874.778 505.754C874.778 504.513 873.793 503.508 872.578 503.508Z" fill="white"/>
<path d="M876.327 501.216H864.858L864.633 499.887H874.06C874.337 499.887 874.587 499.715 874.688 499.451L876.933 493.676C877.069 493.322 876.899 492.923 876.553 492.784C876.474 492.752 876.389 492.736 876.304 492.736H863.466L862.928 489.573C862.872 489.239 862.586 488.995 862.254 489H859.673C859.301 489 859 489.308 859 489.688C859 490.067 859.301 490.375 859.673 490.375H861.693L863.623 502.018C863.679 502.353 863.965 502.596 864.297 502.591H876.327C876.699 502.591 877 502.283 877 501.903C877 501.524 876.699 501.216 876.327 501.216Z" fill="white"/>
</g>
<path d="M1224.86 321.445C1226.75 321.445 1228.28 319.871 1228.28 317.936C1228.28 316.876 1227.81 315.87 1227.01 315.206C1227.07 315.037 1227.11 314.856 1227.11 314.672C1227.11 313.869 1226.47 313.215 1225.69 313.215C1225.64 313.215 1225.6 313.217 1225.55 313.221C1225.41 311.42 1223.93 310 1222.14 310C1220.97 310 1219.88 310.618 1219.26 311.623C1219.12 311.601 1218.99 311.589 1218.86 311.589C1217.53 311.589 1216.44 312.699 1216.44 314.064C1216.44 314.599 1216.61 315.116 1216.92 315.542C1216.33 316.193 1216 317.035 1216 317.936C1216 319.871 1217.53 321.445 1219.42 321.445C1219.6 321.445 1219.77 321.431 1219.95 321.404L1221.21 323.405L1220.59 327.495C1220.57 327.626 1220.61 327.751 1220.69 327.847C1220.77 327.944 1220.89 328 1221.02 328H1223.27C1223.41 328 1223.53 327.944 1223.61 327.847C1223.69 327.751 1223.72 327.626 1223.7 327.495L1223.1 323.474L1224.4 321.413C1224.55 321.434 1224.71 321.445 1224.86 321.445ZM1222.18 322.284L1221.29 320.879C1221.61 320.663 1221.9 320.389 1222.14 320.065C1222.39 320.405 1222.7 320.69 1223.04 320.911L1222.18 322.284Z" fill="white"/>
<path d="M1232.55 317.052C1232.55 317.004 1232.56 316.956 1232.56 316.908C1232.56 316.367 1232.22 315.898 1231.74 315.727C1231.63 314.203 1230.38 312.992 1228.87 312.992C1228.79 312.992 1228.72 312.995 1228.64 313.001C1228.55 313.008 1228.47 313.064 1228.42 313.15C1228.38 313.23 1228.38 313.321 1228.41 313.399C1228.59 313.774 1228.69 314.177 1228.7 314.595C1228.7 314.648 1228.73 314.73 1228.77 314.783C1229.48 315.671 1229.88 316.79 1229.88 317.936C1229.88 319.068 1229.51 320.135 1228.82 321.021C1228.77 321.089 1228.72 321.241 1228.8 321.363C1229 321.632 1229.23 321.861 1229.49 322.046L1228.89 322.998L1228.28 322.036C1228.25 321.982 1228.2 321.993 1228.18 322.01C1227.86 322.269 1227.51 322.489 1227.14 322.664C1227.1 322.679 1227.07 322.757 1227.12 322.831L1228.03 324.28L1227.55 327.495C1227.53 327.626 1227.56 327.751 1227.64 327.847C1227.73 327.944 1227.85 328 1227.98 328H1229.77C1229.9 328 1230.02 327.944 1230.1 327.847C1230.18 327.751 1230.22 327.626 1230.2 327.495L1229.72 324.337L1230.85 322.552C1230.94 322.561 1231.03 322.566 1231.12 322.566C1232.71 322.566 1234 321.242 1234 319.615C1234 318.543 1233.45 317.577 1232.55 317.052Z" fill="white"/>
<defs>
<filter id="filter0_d_185_2981" x="7.40039" y="0" width="1930.6" height="676" filterUnits="userSpaceOnUse" color-interpolation-filters="sRGB">
<feFlood flood-opacity="0" result="BackgroundImageFix"/>
<feColorMatrix in="SourceAlpha" type="matrix" values="0 0 0 0 0 0 0 0 0 0 0 0 0 0 0 0 0 0 127 0" result="hardAlpha"/>
<feMorphology radius="12" operator="erode" in="SourceAlpha" result="effect1_dropShadow_185_2981"/>
<feOffset/>
<feGaussianBlur stdDeviation="15"/>
<feComposite in2="hardAlpha" operator="out"/>
<feColorMatrix type="matrix" values="0 0 0 0 0 0 0 0 0 0 0 0 0 0 0 0 0 0 0.5 0"/>
<feBlend mode="normal" in2="BackgroundImageFix" result="effect1_dropShadow_185_2981"/>
<feBlend mode="normal" in="SourceGraphic" in2="effect1_dropShadow_185_2981" result="shape"/>
</filter>
<filter id="filter1_d_185_2981" x="823" y="227" width="140" height="140" filterUnits="userSpaceOnUse" color-interpolation-filters="sRGB">
<feFlood flood-opacity="0" result="BackgroundImageFix"/>
<feColorMatrix in="SourceAlpha" type="matrix" values="0 0 0 0 0 0 0 0 0 0 0 0 0 0 0 0 0 0 127 0" result="hardAlpha"/>
<feMorphology radius="12" operator="erode" in="SourceAlpha" result="effect1_dropShadow_185_2981"/>
<feOffset dy="25"/>
<feGaussianBlur stdDeviation="25"/>
<feComposite in2="hardAlpha" operator="out"/>
<feColorMatrix type="matrix" values="0 0 0 0 0.988235 0 0 0 0 0.760784 0 0 0 0 0.0901961 0 0 0 0.25 0"/>
<feBlend mode="normal" in2="BackgroundImageFix" result="effect1_dropShadow_185_2981"/>
<feBlend mode="normal" in="SourceGraphic" in2="effect1_dropShadow_185_2981" result="shape"/>
</filter>
<clipPath id="clip0_185_2981">
<rect width="19" height="15" fill="white" transform="translate(1042 252)"/>
</clipPath>
<clipPath id="clip1_185_2981">
<rect width="18" height="19" fill="white" transform="translate(859 489)"/>
</clipPath>
</defs>
</svg>
