<svg width="1468" height="248" viewBox="0 0 1468 248" fill="none" xmlns="http://www.w3.org/2000/svg">
<g clip-path="url(#clip0_26_5807)">
<rect width="1468" height="248" fill="white"/>
<path opacity="0.15" d="M59.28 108.76C59.04 108.36 58.2 107.76 56.76 106.96C55.32 106.08 53.52 105.16 51.36 104.2C49.2 103.24 46.84 102.4 44.28 101.68C41.72 100.96 39.16 100.6 36.6 100.6C33.24 100.6 30.64 101.2 28.8 102.4C26.96 103.52 26.04 105.28 26.04 107.68C26.04 109.6 26.72 111.12 28.08 112.24C29.52 113.36 31.56 114.36 34.2 115.24C36.84 116.04 40.08 117 43.92 118.12C49.36 119.56 54.08 121.32 58.08 123.4C62.08 125.4 65.12 128 67.2 131.2C69.36 134.4 70.44 138.64 70.44 143.92C70.44 148.72 69.56 152.8 67.8 156.16C66.04 159.44 63.64 162.12 60.6 164.2C57.64 166.2 54.24 167.68 50.4 168.64C46.56 169.52 42.6 169.96 38.52 169.96C34.36 169.96 30.08 169.56 25.68 168.76C21.36 167.88 17.2 166.68 13.2 165.16C9.2 163.56 5.52 161.64 2.16 159.4L10.8 142.24C11.12 142.64 12.16 143.4 13.92 144.52C15.68 145.56 17.84 146.68 20.4 147.88C23.04 149 25.96 150 29.16 150.88C32.36 151.76 35.6 152.2 38.88 152.2C42.4 152.2 45 151.64 46.68 150.52C48.44 149.4 49.32 147.84 49.32 145.84C49.32 143.68 48.4 142 46.56 140.8C44.8 139.6 42.36 138.52 39.24 137.56C36.2 136.6 32.68 135.52 28.68 134.32C23.48 132.72 19.16 130.92 15.72 128.92C12.36 126.92 9.84 124.48 8.16 121.6C6.56 118.72 5.76 115.12 5.76 110.8C5.76 104.8 7.16 99.76 9.96 95.68C12.84 91.52 16.68 88.4 21.48 86.32C26.28 84.16 31.52 83.08 37.2 83.08C41.2 83.08 45.04 83.56 48.72 84.52C52.48 85.48 55.96 86.68 59.16 88.12C62.44 89.56 65.36 91 67.92 92.44L59.28 108.76ZM150.388 169V118.24L132.028 155.2H121.228L102.868 118.24V169H83.1881V83.8H104.548L126.628 128.32L148.828 83.8H170.068V169H150.388ZM209.11 83.8H230.35L259.63 169H239.47L232.87 149.92H206.35L199.87 169H179.71L209.11 83.8ZM229.63 136.36L219.67 103.6L209.47 136.36H229.63ZM269.221 169V83.8H307.621C311.621 83.8 315.301 84.64 318.661 86.32C322.101 87.92 325.061 90.12 327.541 92.92C330.021 95.64 331.941 98.72 333.301 102.16C334.741 105.6 335.461 109.08 335.461 112.6C335.461 116.12 334.901 119.48 333.781 122.68C332.661 125.8 331.061 128.64 328.981 131.2C326.901 133.68 324.421 135.72 321.541 137.32L340.261 169H318.541L302.221 141.52H288.901V169H269.221ZM288.901 124.36H306.901C308.501 124.36 309.901 123.88 311.101 122.92C312.381 121.88 313.421 120.48 314.221 118.72C315.021 116.96 315.421 114.92 315.421 112.6C315.421 110.28 314.941 108.28 313.981 106.6C313.101 104.84 311.981 103.48 310.621 102.52C309.261 101.56 307.821 101.08 306.301 101.08H288.901V124.36ZM414.677 101.08H388.757V169H369.077V101.08H343.037V83.8H414.677V101.08ZM524.5 83.8V169H504.82V134.08H470.86V169H451.18V83.8H470.86V116.8H504.82V83.8H524.5ZM601.909 151.72V169H542.029V83.8H600.829V101.08H561.709V117.64H595.309V133.6H561.709V151.72H601.909ZM615.065 169V83.8H651.425C655.505 83.8 659.225 84.64 662.585 86.32C666.025 87.92 668.985 90.12 671.465 92.92C673.945 95.64 675.865 98.72 677.225 102.16C678.585 105.6 679.265 109.12 679.265 112.72C679.265 117.6 678.105 122.24 675.785 126.64C673.545 131.04 670.385 134.64 666.305 137.44C662.305 140.16 657.545 141.52 652.025 141.52H634.745V169H615.065ZM634.745 124.36H650.825C652.345 124.36 653.745 123.92 655.025 123.04C656.305 122.16 657.345 120.84 658.145 119.08C658.945 117.32 659.345 115.16 659.345 112.6C659.345 109.96 658.865 107.8 657.905 106.12C657.025 104.36 655.865 103.08 654.425 102.28C653.065 101.48 651.625 101.08 650.105 101.08H634.745V124.36ZM698.71 169.72V153.52H706.27C708.35 153.52 709.95 153.12 711.07 152.32C712.19 151.44 713.07 150.08 713.71 148.24L714.79 145.36L682.03 83.8H703.75L723.55 125.44L741.07 83.8H761.83L728.59 157.48C726.27 162.04 723.59 165.24 720.55 167.08C717.59 168.84 713.63 169.72 708.67 169.72H698.71ZM782.523 83.8L801.003 113.2L819.483 83.8H840.843L812.643 127L839.883 169H818.523L801.003 140.8L783.483 169H762.003L789.243 127L761.043 83.8H782.523ZM886.727 169.72C880.327 169.72 874.527 168.52 869.327 166.12C864.207 163.64 859.767 160.36 856.007 156.28C852.327 152.12 849.487 147.48 847.487 142.36C845.487 137.16 844.487 131.8 844.487 126.28C844.487 120.6 845.527 115.2 847.607 110.08C849.767 104.96 852.727 100.4 856.487 96.4C860.327 92.32 864.847 89.12 870.047 86.8C875.247 84.48 880.927 83.32 887.087 83.32C893.407 83.32 899.127 84.56 904.247 87.04C909.447 89.44 913.887 92.72 917.567 96.88C921.327 101.04 924.207 105.72 926.207 110.92C928.207 116.04 929.207 121.28 929.207 126.64C929.207 132.32 928.167 137.72 926.087 142.84C924.007 147.96 921.047 152.56 917.207 156.64C913.367 160.64 908.847 163.84 903.647 166.24C898.527 168.56 892.887 169.72 886.727 169.72ZM864.527 126.52C864.527 129.8 865.007 133 865.967 136.12C866.927 139.16 868.327 141.88 870.167 144.28C872.087 146.68 874.447 148.6 877.247 150.04C880.047 151.48 883.247 152.2 886.847 152.2C890.607 152.2 893.887 151.48 896.687 150.04C899.487 148.52 901.807 146.52 903.647 144.04C905.487 141.56 906.847 138.8 907.727 135.76C908.687 132.64 909.167 129.48 909.167 126.28C909.167 123 908.687 119.84 907.727 116.8C906.767 113.76 905.327 111.04 903.407 108.64C901.487 106.16 899.127 104.24 896.327 102.88C893.527 101.52 890.367 100.84 886.847 100.84C883.087 100.84 879.807 101.56 877.007 103C874.287 104.44 871.967 106.4 870.047 108.88C868.207 111.28 866.807 114.04 865.847 117.16C864.967 120.2 864.527 123.32 864.527 126.52ZM1008.98 169V118.24L990.619 155.2H979.819L961.459 118.24V169H941.779V83.8H963.139L985.219 128.32L1007.42 83.8H1028.66V169H1008.98ZM1046.22 169V83.8H1065.9V169H1046.22ZM1078.48 125.68C1078.48 120.48 1079.44 115.4 1081.36 110.44C1083.28 105.4 1086.08 100.84 1089.76 96.76C1093.44 92.68 1097.92 89.44 1103.2 87.04C1108.48 84.56 1114.48 83.32 1121.2 83.32C1129.2 83.32 1136.12 85.04 1141.96 88.48C1147.88 91.92 1152.28 96.4 1155.16 101.92L1140.04 112.48C1138.76 109.44 1137.04 107.08 1134.88 105.4C1132.8 103.72 1130.48 102.56 1127.92 101.92C1125.44 101.2 1123.04 100.84 1120.72 100.84C1116.96 100.84 1113.68 101.6 1110.88 103.12C1108.08 104.56 1105.76 106.52 1103.92 109C1102.08 111.48 1100.72 114.24 1099.84 117.28C1098.96 120.32 1098.52 123.36 1098.52 126.4C1098.52 129.76 1099.04 133 1100.08 136.12C1101.12 139.24 1102.6 142 1104.52 144.4C1106.52 146.8 1108.92 148.72 1111.72 150.16C1114.52 151.52 1117.6 152.2 1120.96 152.2C1123.36 152.2 1125.8 151.8 1128.28 151C1130.76 150.2 1133.04 148.96 1135.12 147.28C1137.28 145.52 1138.92 143.24 1140.04 140.44L1156.12 149.92C1154.44 154.08 1151.68 157.64 1147.84 160.6C1144 163.56 1139.64 165.84 1134.76 167.44C1129.96 168.96 1125.2 169.72 1120.48 169.72C1114.32 169.72 1108.64 168.48 1103.44 166C1098.32 163.44 1093.88 160.08 1090.12 155.92C1086.44 151.68 1083.56 146.96 1081.48 141.76C1079.48 136.48 1078.48 131.12 1078.48 125.68ZM1232.13 101.08H1206.21V169H1186.53V101.08H1160.49V83.8H1232.13V101.08ZM1243.31 169V83.8H1262.99V113.2H1278.83C1285.15 113.2 1290.55 114.32 1295.03 116.56C1299.51 118.8 1302.95 122 1305.35 126.16C1307.75 130.32 1308.95 135.24 1308.95 140.92C1308.95 146.52 1307.79 151.44 1305.47 155.68C1303.15 159.92 1299.83 163.2 1295.51 165.52C1291.19 167.84 1285.99 169 1279.91 169H1243.31ZM1262.99 152.92H1277.03C1279.75 152.92 1281.99 152.4 1283.75 151.36C1285.51 150.32 1286.79 148.88 1287.59 147.04C1288.47 145.2 1288.91 143.16 1288.91 140.92C1288.91 138.84 1288.47 136.92 1287.59 135.16C1286.79 133.4 1285.51 132 1283.75 130.96C1282.07 129.84 1279.83 129.28 1277.03 129.28H1262.99V152.92Z" fill="#FCC214"/>
<rect x="1390.14" y="113" width="20" height="20" transform="rotate(45 1390.14 113)" fill="#FCC214"/>
<rect x="1390.14" y="120" width="10" height="10" transform="rotate(45 1390.14 120)" fill="#FCFCFD"/>
</g>
<defs>
<clipPath id="clip0_26_5807">
<rect width="1468" height="248" fill="white"/>
</clipPath>
</defs>
</svg>
