<svg width="56" height="56" viewBox="0 0 56 56" fill="none" xmlns="http://www.w3.org/2000/svg">
<g clip-path="url(#clip0_26_14500)">
<path d="M27.9991 55.3254C43.0905 55.3254 55.3244 43.0915 55.3244 28.0001C55.3244 12.9088 43.0905 0.674805 27.9991 0.674805C12.9078 0.674805 0.673828 12.9088 0.673828 28.0001C0.673828 43.0915 12.9078 55.3254 27.9991 55.3254Z" stroke="#FCC214" stroke-width="2"/>
<path d="M33.2573 26.0741C33.0198 26.0741 32.7824 25.9835 32.6012 25.8023C31.4628 24.6634 29.9486 24.0361 28.3377 24.0361C26.7267 24.0361 25.2125 24.6634 24.0741 25.8023C23.7119 26.1647 23.1244 26.1648 22.7621 25.8026C22.3997 25.4403 22.3996 24.8529 22.7618 24.4906C24.2507 23.001 26.2309 22.1807 28.3377 22.1807C30.4444 22.1807 32.4246 23.001 33.9135 24.4906C34.2758 24.853 34.2756 25.4403 33.9133 25.8026C33.732 25.9836 33.4946 26.0741 33.2573 26.0741Z" fill="#FCC214"/>
<path d="M30.9613 28.3698C30.7239 28.3698 30.4865 28.2791 30.3054 28.0981C29.7799 27.5725 29.0809 27.2832 28.3371 27.2832C27.5933 27.2832 26.8943 27.5725 26.3689 28.0981C26.0066 28.4603 25.4192 28.4603 25.0569 28.0981C24.6946 27.7357 24.6946 27.1484 25.0569 26.7861C25.9328 25.9101 27.0978 25.4277 28.3371 25.4277C29.5765 25.4277 30.7415 25.9101 31.6173 26.7861C31.9796 27.1484 31.9796 27.7357 31.6173 28.0981C31.4362 28.2791 31.1987 28.3698 30.9613 28.3698Z" fill="#FCC214"/>
<path d="M28.3369 32.3857C27.5696 32.3857 26.9453 31.7614 26.9453 30.9941C26.9453 30.2268 27.5696 29.6025 28.3369 29.6025C29.1041 29.6025 29.7284 30.2268 29.7284 30.9941C29.7284 31.7614 29.1041 32.3857 28.3369 32.3857Z" fill="#FCC214"/>
<path d="M42.8018 20.5045L28.8861 10.2997C28.5596 10.0603 28.1155 10.0603 27.7889 10.2997L13.8733 20.5045C13.4601 20.8075 13.3708 21.3881 13.6738 21.8012C13.9769 22.2144 14.5575 22.3038 14.9705 22.0007L15.3496 21.7227V37.1397C15.3496 38.6103 16.5461 39.8068 18.0168 39.8068H38.6582C40.1289 39.8068 41.3254 38.6103 41.3254 37.1397V21.7228L41.7045 22.0008C41.8699 22.122 42.062 22.1805 42.2524 22.1805C42.5378 22.1805 42.8195 22.0491 43.0012 21.8013C43.3042 21.3881 43.2149 20.8075 42.8018 20.5045ZM39.47 37.1398C39.47 37.5874 39.1058 37.9515 38.6582 37.9515H18.0168C17.5692 37.9515 17.2051 37.5874 17.2051 37.1398V20.3621L28.3375 12.1982L39.47 20.3621V37.1398Z" fill="#FCC214"/>
</g>
<defs>
<clipPath id="clip0_26_14500">
<rect width="56" height="56" fill="white"/>
</clipPath>
</defs>
</svg>
