<svg width="56" height="56" viewBox="0 0 56 56" fill="none" xmlns="http://www.w3.org/2000/svg">
<g clip-path="url(#clip0_26_14407)">
<path d="M16.6464 18.2615C16.9948 18.2615 17.2772 17.9796 17.2772 17.6317C17.2772 17.2839 16.9948 17.002 16.6464 17.002C16.2981 17.002 16.0156 17.2839 16.0156 17.6317C16.0156 17.9796 16.2981 18.2615 16.6464 18.2615Z" fill="#FCC217"/>
<path d="M20.4316 18.2615C20.78 18.2615 21.0624 17.9796 21.0624 17.6317C21.0624 17.2839 20.78 17.002 20.4316 17.002C20.0832 17.002 19.8008 17.2839 19.8008 17.6317C19.8008 17.9796 20.0832 18.2615 20.4316 18.2615Z" fill="#FCC217"/>
<path d="M22.3241 15.1123C21.976 15.1123 21.6934 15.3942 21.6934 15.7421C21.6934 16.0897 21.976 16.3718 22.3241 16.3718C22.673 16.3718 22.9549 16.0897 22.9549 15.7421C22.9549 15.3942 22.673 15.1123 22.3241 15.1123Z" fill="#FCC217"/>
<path d="M24.2167 18.2615C24.5651 18.2615 24.8476 17.9796 24.8476 17.6317C24.8476 17.2839 24.5651 17.002 24.2167 17.002C23.8684 17.002 23.5859 17.2839 23.5859 17.6317C23.5859 17.9796 23.8684 18.2615 24.2167 18.2615Z" fill="#FCC217"/>
<path d="M26.1086 15.1123C25.7604 15.1123 25.4785 15.3942 25.4785 15.7421C25.4785 16.0897 25.7604 16.3718 26.1086 16.3718C26.4574 16.3718 26.7394 16.0897 26.7394 15.7421C26.7394 15.3942 26.4574 15.1123 26.1086 15.1123Z" fill="#FCC217"/>
<path d="M16.6463 22.0397C16.9946 22.0397 17.277 21.7578 17.277 21.41C17.277 21.0622 16.9946 20.7803 16.6463 20.7803C16.298 20.7803 16.0156 21.0622 16.0156 21.41C16.0156 21.7578 16.298 22.0397 16.6463 22.0397Z" fill="#FCC217"/>
<path d="M18.539 18.8906C18.1908 18.8906 17.9082 19.1727 17.9082 19.5203C17.9082 19.8683 18.1908 20.1501 18.539 20.1501C18.8871 20.1501 19.1698 19.8683 19.1698 19.5203C19.1698 19.1727 18.8871 18.8906 18.539 18.8906Z" fill="#FCC217"/>
<path d="M20.4315 22.0397C20.7798 22.0397 21.0622 21.7578 21.0622 21.41C21.0622 21.0622 20.7798 20.7803 20.4315 20.7803C20.0831 20.7803 19.8008 21.0622 19.8008 21.41C19.8008 21.7578 20.0831 22.0397 20.4315 22.0397Z" fill="#FCC217"/>
<path d="M22.3241 18.8906C21.976 18.8906 21.6934 19.1727 21.6934 19.5203C21.6934 19.8683 21.976 20.1501 22.3241 20.1501C22.673 20.1501 22.9549 19.8683 22.9549 19.5203C22.9549 19.1727 22.673 18.8906 22.3241 18.8906Z" fill="#FCC217"/>
<path d="M24.2166 22.0397C24.565 22.0397 24.8474 21.7578 24.8474 21.41C24.8474 21.0622 24.565 20.7803 24.2166 20.7803C23.8684 20.7803 23.5859 21.0622 23.5859 21.41C23.5859 21.7578 23.8684 22.0397 24.2166 22.0397Z" fill="#FCC217"/>
<path d="M26.1086 18.8906C25.7604 18.8906 25.4785 19.1727 25.4785 19.5203C25.4785 19.8683 25.7604 20.1501 26.1086 20.1501C26.4574 20.1501 26.7394 19.8683 26.7394 19.5203C26.7394 19.1727 26.4574 18.8906 26.1086 18.8906Z" fill="#FCC217"/>
<path d="M16.6464 25.8182C16.9948 25.8182 17.2772 25.5362 17.2772 25.1884C17.2772 24.8406 16.9948 24.5586 16.6464 24.5586C16.2981 24.5586 16.0156 24.8406 16.0156 25.1884C16.0156 25.5362 16.2981 25.8182 16.6464 25.8182Z" fill="#FCC217"/>
<path d="M18.539 22.6699C18.1908 22.6699 17.9082 22.9518 17.9082 23.2998C17.9082 23.6474 18.1908 23.9294 18.539 23.9294C18.8871 23.9294 19.1698 23.6474 19.1698 23.2998C19.1698 22.9518 18.8871 22.6699 18.539 22.6699Z" fill="#FCC217"/>
<path d="M20.4316 25.8182C20.78 25.8182 21.0624 25.5362 21.0624 25.1884C21.0624 24.8406 20.78 24.5586 20.4316 24.5586C20.0832 24.5586 19.8008 24.8406 19.8008 25.1884C19.8008 25.5362 20.0832 25.8182 20.4316 25.8182Z" fill="#FCC217"/>
<path d="M22.3241 22.6699C21.976 22.6699 21.6934 22.9518 21.6934 23.2998C21.6934 23.6474 21.976 23.9294 22.3241 23.9294C22.673 23.9294 22.9549 23.6474 22.9549 23.2998C22.9549 22.9518 22.673 22.6699 22.3241 22.6699Z" fill="#FCC217"/>
<path d="M24.2167 25.8182C24.5651 25.8182 24.8476 25.5362 24.8476 25.1884C24.8476 24.8406 24.5651 24.5586 24.2167 24.5586C23.8684 24.5586 23.5859 24.8406 23.5859 25.1884C23.5859 25.5362 23.8684 25.8182 24.2167 25.8182Z" fill="#FCC217"/>
<path d="M26.1086 22.6699C25.7604 22.6699 25.4785 22.9518 25.4785 23.2998C25.4785 23.6474 25.7604 23.9294 26.1086 23.9294C26.4574 23.9294 26.7394 23.6474 26.7394 23.2998C26.7394 22.9518 26.4574 22.6699 26.1086 22.6699Z" fill="#FCC217"/>
<path d="M16.6463 29.5964C16.9946 29.5964 17.277 29.3144 17.277 28.9667C17.277 28.6189 16.9946 28.3369 16.6463 28.3369C16.298 28.3369 16.0156 28.6189 16.0156 28.9667C16.0156 29.3144 16.298 29.5964 16.6463 29.5964Z" fill="#FCC217"/>
<path d="M18.539 26.4482C18.1908 26.4482 17.9082 26.7303 17.9082 27.0779C17.9082 27.4258 18.1908 27.7077 18.539 27.7077C18.8871 27.7077 19.1698 27.4258 19.1698 27.0779C19.1698 26.7303 18.8871 26.4482 18.539 26.4482Z" fill="#FCC217"/>
<path d="M20.4315 29.5964C20.7798 29.5964 21.0622 29.3144 21.0622 28.9667C21.0622 28.6189 20.7798 28.3369 20.4315 28.3369C20.0831 28.3369 19.8008 28.6189 19.8008 28.9667C19.8008 29.3144 20.0831 29.5964 20.4315 29.5964Z" fill="#FCC217"/>
<path d="M22.3241 26.4482C21.976 26.4482 21.6934 26.7303 21.6934 27.0779C21.6934 27.4258 21.976 27.7077 22.3241 27.7077C22.673 27.7077 22.9549 27.4258 22.9549 27.0779C22.9549 26.7303 22.673 26.4482 22.3241 26.4482Z" fill="#FCC217"/>
<path d="M24.2166 29.5964C24.565 29.5964 24.8474 29.3144 24.8474 28.9667C24.8474 28.6189 24.565 28.3369 24.2166 28.3369C23.8684 28.3369 23.5859 28.6189 23.5859 28.9667C23.5859 29.3144 23.8684 29.5964 24.2166 29.5964Z" fill="#FCC217"/>
<path d="M26.1086 26.4482C25.7604 26.4482 25.4785 26.7303 25.4785 27.0779C25.4785 27.4258 25.7604 27.7077 26.1086 27.7077C26.4574 27.7077 26.7394 27.4258 26.7394 27.0779C26.7394 26.7303 26.4574 26.4482 26.1086 26.4482Z" fill="#FCC217"/>
<path d="M16.6464 32.1152C16.2983 32.1152 16.0156 32.3971 16.0156 32.7449C16.0156 33.0927 16.2983 33.3747 16.6464 33.3747C16.9953 33.3747 17.2772 33.0927 17.2772 32.7449C17.2772 32.3971 16.9953 32.1152 16.6464 32.1152Z" fill="#FCC217"/>
<path d="M18.539 30.2266C18.1908 30.2266 17.9082 30.5084 17.9082 30.8563C17.9082 31.2039 18.1908 31.486 18.539 31.486C18.8871 31.486 19.1698 31.2039 19.1698 30.8563C19.1698 30.5084 18.8871 30.2266 18.539 30.2266Z" fill="#FCC217"/>
<path d="M20.4316 32.1152C20.0827 32.1152 19.8008 32.3971 19.8008 32.7449C19.8008 33.0927 20.0827 33.3747 20.4316 33.3747C20.7798 33.3747 21.0624 33.0927 21.0624 32.7449C21.0624 32.3971 20.7798 32.1152 20.4316 32.1152Z" fill="#FCC217"/>
<path d="M22.3241 30.2266C21.976 30.2266 21.6934 30.5084 21.6934 30.8563C21.6934 31.2039 21.976 31.486 22.3241 31.486C22.673 31.486 22.9549 31.2039 22.9549 30.8563C22.9549 30.5084 22.673 30.2266 22.3241 30.2266Z" fill="#FCC217"/>
<path d="M24.2167 32.1152C23.8686 32.1152 23.5859 32.3971 23.5859 32.7449C23.5859 33.0927 23.8686 33.3747 24.2167 33.3747C24.5649 33.3747 24.8476 33.0927 24.8476 32.7449C24.8476 32.3971 24.5649 32.1152 24.2167 32.1152Z" fill="#FCC217"/>
<path d="M26.1086 30.2266C25.7604 30.2266 25.4785 30.5084 25.4785 30.8563C25.4785 31.2039 25.7604 31.486 26.1086 31.486C26.4574 31.486 26.7394 31.2039 26.7394 30.8563C26.7394 30.5084 26.4574 30.2266 26.1086 30.2266Z" fill="#FCC217"/>
<path d="M18.5389 35.2643C18.8873 35.2643 19.1696 34.9824 19.1696 34.6346C19.1696 34.2868 18.8873 34.0049 18.5389 34.0049C18.1906 34.0049 17.9082 34.2868 17.9082 34.6346C17.9082 34.9824 18.1906 35.2643 18.5389 35.2643Z" fill="#FCC217"/>
<path d="M20.4316 35.8936C20.0827 35.8936 19.8008 36.1754 19.8008 36.5234C19.8008 36.871 20.0827 37.153 20.4316 37.153C20.7798 37.153 21.0624 36.871 21.0624 36.5234C21.0624 36.1754 20.7798 35.8936 20.4316 35.8936Z" fill="#FCC217"/>
<path d="M22.3241 35.2643C22.6723 35.2643 22.9548 34.9824 22.9548 34.6346C22.9548 34.2868 22.6723 34.0049 22.3241 34.0049C21.9757 34.0049 21.6934 34.2868 21.6934 34.6346C21.6934 34.9824 21.9757 35.2643 22.3241 35.2643Z" fill="#FCC217"/>
<path d="M24.2167 35.8936C23.8686 35.8936 23.5859 36.1754 23.5859 36.5234C23.5859 36.871 23.8686 37.153 24.2167 37.153C24.5649 37.153 24.8476 36.871 24.8476 36.5234C24.8476 36.1754 24.5649 35.8936 24.2167 35.8936Z" fill="#FCC217"/>
<path d="M26.1086 34.0049C25.7604 34.0049 25.4785 34.2868 25.4785 34.6345C25.4785 34.9823 25.7604 35.2642 26.1086 35.2642C26.4574 35.2642 26.7394 34.9823 26.7394 34.6345C26.7394 34.2868 26.4574 34.0049 26.1086 34.0049Z" fill="#FCC217"/>
<path d="M20.4316 39.6719C20.0827 39.6719 19.8008 39.9537 19.8008 40.3015C19.8008 40.6492 20.0827 40.9313 20.4316 40.9313C20.7798 40.9313 21.0624 40.6492 21.0624 40.3015C21.0624 39.9537 20.7798 39.6719 20.4316 39.6719Z" fill="#FCC217"/>
<path d="M22.3241 39.0428C22.6725 39.0428 22.9549 38.7608 22.9549 38.413C22.9549 38.0652 22.6725 37.7832 22.3241 37.7832C21.9757 37.7832 21.6934 38.0652 21.6934 38.413C21.6934 38.7608 21.9757 39.0428 22.3241 39.0428Z" fill="#FCC217"/>
<path d="M24.2167 39.6719C23.8686 39.6719 23.5859 39.9537 23.5859 40.3015C23.5859 40.6492 23.8686 40.9313 24.2167 40.9313C24.5649 40.9313 24.8476 40.6492 24.8476 40.3015C24.8476 39.9537 24.5649 39.6719 24.2167 39.6719Z" fill="#FCC217"/>
<path d="M26.1086 37.7832C25.7604 37.7832 25.4785 38.065 25.4785 38.413C25.4785 38.7606 25.7604 39.0428 26.1086 39.0428C26.4574 39.0428 26.7394 38.7606 26.7394 38.413C26.7394 38.065 26.4574 37.7832 26.1086 37.7832Z" fill="#FCC217"/>
<path d="M26.1086 41.5615C25.7604 41.5615 25.4785 41.8434 25.4785 42.1912C25.4785 42.539 25.7604 42.8208 26.1086 42.8208C26.4574 42.8208 26.7394 42.539 26.7394 42.1912C26.7394 41.8434 26.4574 41.5615 26.1086 41.5615Z" fill="#FCC217"/>
<path d="M41.8761 14.4825C32.6499 14.4825 28.5241 9.71796 28.4843 9.66958C28.3633 9.52776 28.1867 9.44531 28.0009 9.44531C27.815 9.44531 27.637 9.52776 27.5167 9.66958C27.4762 9.71796 23.3511 14.4825 14.1249 14.4825C13.7761 14.4825 13.4941 14.764 13.4941 15.1122V27.1307C13.4941 33.7008 16.4523 39.9445 21.4068 43.8318C23.4045 45.3992 25.5624 46.5334 27.8214 47.2029C27.8799 47.2195 27.939 47.2284 27.9994 47.2284C28.0599 47.2284 28.1212 47.2195 28.1796 47.2029C30.4379 46.5334 32.5966 45.3992 34.5935 43.8318C39.5487 39.9445 42.5062 33.7008 42.5062 27.1307V15.1122C42.5062 14.764 42.2242 14.4825 41.8761 14.4825ZM41.2446 18.8902C40.8965 18.8902 40.6138 19.1722 40.6138 19.5198C40.6138 19.8674 40.8965 20.1494 41.2446 20.1494V22.6683C40.8965 22.6683 40.6138 22.9506 40.6138 23.2982C40.6138 23.6458 40.8965 23.928 41.2446 23.928V26.4469C40.8965 26.4469 40.6138 26.7289 40.6138 27.0765C40.6138 27.4186 40.8879 27.6944 41.2282 27.7031C41.204 28.5697 41.1278 29.4293 40.9976 30.2756C40.7719 30.3712 40.6138 30.5942 40.6138 30.8549C40.6138 31.0344 40.6907 31.1944 40.811 31.309C40.4814 32.9072 39.9716 34.4533 39.2875 35.9059C38.9714 35.9401 38.7215 36.1975 38.7215 36.5226C38.7215 36.639 38.762 36.7422 38.8175 36.8361C38.5748 37.2888 38.3121 37.7291 38.0366 38.1599C37.939 37.9375 37.7183 37.7819 37.4598 37.7819C37.1117 37.7819 36.8298 38.0641 36.8298 38.4117C36.8298 38.7529 37.1018 39.0269 37.4414 39.0376C36.5108 40.3305 35.4251 41.5011 34.202 42.5169C34.2625 42.4205 34.3066 42.3129 34.3066 42.1908C34.3066 41.8431 34.024 41.5611 33.6759 41.5611C33.3277 41.5611 33.045 41.8431 33.045 42.1908C33.045 42.5384 33.3277 42.8204 33.6759 42.8204C33.752 42.8204 33.824 42.8016 33.8908 42.7771C33.8645 42.7977 33.8396 42.8211 33.8132 42.8419C33.3426 43.2116 32.8614 43.5547 32.373 43.8722C32.2861 43.6278 32.059 43.4503 31.7842 43.4503C31.4361 43.4503 31.1541 43.7324 31.1541 44.08C31.1541 44.2443 31.2203 44.3911 31.3235 44.503C30.2485 45.1056 29.1386 45.5892 28.0009 45.9406C26.8632 45.5892 25.7525 45.1056 24.6768 44.503C24.78 44.3911 24.847 44.2443 24.847 44.08C24.847 43.7324 24.5643 43.4503 24.2161 43.4503C23.9421 43.4503 23.7142 43.6278 23.6274 43.8722C23.139 43.5547 22.6584 43.2116 22.1871 42.8419C22.1607 42.8211 22.1358 42.7977 22.1095 42.7771C22.1771 42.8016 22.2483 42.8204 22.3245 42.8204C22.6726 42.8204 22.9552 42.5384 22.9552 42.1908C22.9552 41.8431 22.6726 41.5611 22.3245 41.5611C21.9763 41.5611 21.6937 41.8431 21.6937 42.1908C21.6937 42.3129 21.7378 42.4205 21.7983 42.5169C20.5759 41.5011 19.4895 40.3305 18.5597 39.0376C18.8985 39.0269 19.1713 38.7529 19.1713 38.4117C19.1713 38.0641 18.8886 37.7819 18.5405 37.7819C18.2827 37.7819 18.0613 37.9375 17.9638 38.1599C17.6883 37.7291 17.4263 37.2888 17.1828 36.8361C17.2383 36.7422 17.2789 36.639 17.2789 36.5226C17.2789 36.1975 17.029 35.9401 16.7129 35.9059C16.0287 34.4533 15.5197 32.9072 15.1893 31.309C15.3104 31.1944 15.3872 31.0344 15.3872 30.8549C15.3872 30.5942 15.2285 30.3712 15.0028 30.2756C14.8732 29.4293 14.7963 28.5697 14.7721 27.7031C15.1124 27.6944 15.3872 27.4186 15.3872 27.0765C15.3872 26.7289 15.1046 26.4469 14.7564 26.4469V23.928C15.1046 23.928 15.3872 23.6458 15.3872 23.2982C15.3872 22.9506 15.1046 22.6683 14.7564 22.6683V20.1494C15.1046 20.1494 15.3872 19.8674 15.3872 19.5198C15.3872 19.1722 15.1046 18.8902 14.7564 18.8902V16.3712C15.1046 16.3712 15.3872 16.089 15.3872 15.7414C15.3872 15.7282 15.3808 15.7176 15.3794 15.7048C16.2999 15.6632 17.1686 15.5789 17.9851 15.4574C17.9403 15.5438 17.9096 15.6376 17.9096 15.7414C17.9096 16.089 18.1923 16.3712 18.5405 16.3712C18.8886 16.3712 19.1713 16.089 19.1713 15.7414C19.1713 15.5644 19.0965 15.4059 18.9797 15.291C20.7874 14.9428 22.3181 14.427 23.5875 13.8566C23.5896 14.2023 23.8709 14.4819 24.2169 14.4819C24.565 14.4819 24.8476 14.1999 24.8476 13.8522C24.8476 13.6518 24.748 13.4819 24.6027 13.3661C25.1125 13.0984 25.5667 12.8283 25.9725 12.5649C26.0181 12.5752 26.0608 12.5926 26.1092 12.5926C26.4282 12.5926 26.6809 12.3522 26.7229 12.0449C27.2811 11.6335 27.7104 11.2612 27.9994 10.9836C28.2892 11.2612 28.7193 11.6335 29.2774 12.0449C29.3194 12.3522 29.5729 12.5926 29.8918 12.5926C29.9395 12.5926 29.9822 12.5752 30.0278 12.5649C30.4336 12.8283 30.8886 13.0984 31.3976 13.3661C31.2531 13.4819 31.1534 13.6518 31.1534 13.8522C31.1534 14.1999 31.4361 14.4819 31.7835 14.4819C32.1302 14.4819 32.4107 14.2023 32.4136 13.8566C33.6823 14.427 35.213 14.9428 37.0213 15.291C36.9038 15.4059 36.8298 15.5644 36.8298 15.7414C36.8298 16.089 37.1117 16.3712 37.4598 16.3712C37.808 16.3712 38.0907 16.089 38.0907 15.7414C38.0907 15.6376 38.0601 15.5438 38.0152 15.4574C38.8318 15.5789 39.7004 15.6632 40.6209 15.7048C40.6202 15.7176 40.6138 15.7282 40.6138 15.7414C40.6138 16.089 40.8965 16.3712 41.2446 16.3712V18.8902Z" fill="#FCC217"/>
<path d="M28.5126 13.5059C28.4897 13.4733 28.4741 13.436 28.4463 13.4081C28.405 13.3671 28.3523 13.3391 28.3011 13.3105C28.2819 13.2997 28.2669 13.2821 28.2462 13.2734C28.1886 13.2489 28.1238 13.2418 28.0583 13.2354C28.0384 13.2334 28.0213 13.2236 28.0007 13.2236C27.9857 13.2236 27.9721 13.2311 27.9572 13.2322C27.8867 13.2371 27.8163 13.2469 27.7543 13.2734C27.7336 13.2821 27.7187 13.2997 27.6987 13.3104C27.6475 13.3391 27.5955 13.3669 27.5542 13.4081C27.5257 13.436 27.5101 13.4733 27.488 13.5059C27.4645 13.54 27.4353 13.5698 27.4189 13.6082C27.387 13.6836 27.3691 13.7664 27.3691 13.8533C27.3691 13.9402 27.387 14.023 27.4189 14.0984C27.4275 14.1181 27.4439 14.1323 27.4546 14.1509C27.483 14.2034 27.5122 14.2565 27.5542 14.2984C27.5955 14.3397 27.6475 14.3674 27.6987 14.3962C27.7187 14.4069 27.7336 14.4245 27.7543 14.4332C27.8163 14.4596 27.8867 14.4694 27.9572 14.4744C27.9721 14.4755 27.9843 14.483 27.9992 14.483C28.0198 14.483 28.0384 14.4732 28.0583 14.4712C28.1238 14.465 28.1886 14.4577 28.2462 14.4332C28.2669 14.4245 28.2819 14.4069 28.3011 14.3959C28.3523 14.3674 28.405 14.3395 28.4463 14.2984C28.4883 14.2565 28.5168 14.2034 28.5459 14.1509C28.5559 14.1323 28.5723 14.1181 28.5809 14.0984C28.6129 14.023 28.6307 13.9402 28.6307 13.8533C28.6307 13.7664 28.6129 13.6836 28.5809 13.6082C28.5645 13.5698 28.5353 13.54 28.5126 13.5059Z" fill="#FCC217"/>
<path d="M39.3535 18.2615C39.7018 18.2615 39.9843 17.9796 39.9843 17.6317C39.9843 17.2839 39.7018 17.002 39.3535 17.002C39.0051 17.002 38.7227 17.2839 38.7227 17.6317C38.7227 17.9796 39.0051 18.2615 39.3535 18.2615Z" fill="#FCC217"/>
<path d="M35.5683 18.2615C35.9166 18.2615 36.1991 17.9796 36.1991 17.6317C36.1991 17.2839 35.9166 17.002 35.5683 17.002C35.2199 17.002 34.9375 17.2839 34.9375 17.6317C34.9375 17.9796 35.2199 18.2615 35.5683 18.2615Z" fill="#FCC217"/>
<path d="M33.6757 15.1123C33.3276 15.1123 33.0449 15.3942 33.0449 15.7421C33.0449 16.0897 33.3276 16.3718 33.6757 16.3718C34.0238 16.3718 34.3065 16.0897 34.3065 15.7421C34.3065 15.3942 34.0238 15.1123 33.6757 15.1123Z" fill="#FCC217"/>
<path d="M31.7844 17.002C31.4363 17.002 31.1543 17.284 31.1543 17.6317C31.1543 17.9795 31.4363 18.2615 31.7844 18.2615C32.1332 18.2615 32.4152 17.9795 32.4152 17.6317C32.4152 17.284 32.1332 17.002 31.7844 17.002Z" fill="#FCC217"/>
<path d="M29.8926 15.1123C29.5437 15.1123 29.2617 15.3942 29.2617 15.7421C29.2617 16.0897 29.5437 16.3718 29.8926 16.3718C30.2407 16.3718 30.5233 16.0897 30.5233 15.7421C30.5233 15.3942 30.2407 15.1123 29.8926 15.1123Z" fill="#FCC217"/>
<path d="M28.5126 17.2842C28.4897 17.2515 28.4741 17.2141 28.4463 17.1864C28.3324 17.0725 28.1751 17.002 28.0007 17.002C27.8269 17.0021 27.6682 17.0723 27.5542 17.1864C27.5257 17.2141 27.5101 17.2515 27.488 17.2842C27.4645 17.3183 27.4353 17.3479 27.4189 17.3865C27.387 17.4617 27.3691 17.5445 27.3691 17.6314C27.3691 17.7183 27.387 17.8011 27.4189 17.8765C27.4275 17.8962 27.4439 17.9104 27.4546 17.9291C27.483 17.9815 27.5122 18.0344 27.5542 18.0764C27.5955 18.1176 27.6475 18.1457 27.6987 18.1742C27.7187 18.1852 27.7336 18.2026 27.7543 18.2115C27.8163 18.2378 27.8867 18.2475 27.9572 18.2525C27.9721 18.2536 27.9843 18.2611 27.9992 18.2611C28.0198 18.2611 28.0384 18.2513 28.0583 18.2493C28.1238 18.2431 28.1886 18.2356 28.2462 18.2115C28.2669 18.2026 28.2819 18.185 28.3011 18.1742C28.3523 18.1454 28.405 18.1176 28.4463 18.0764C28.4883 18.0344 28.5168 17.9815 28.5459 17.9291C28.5559 17.9104 28.5723 17.8962 28.5809 17.8765C28.6129 17.8011 28.6307 17.7183 28.6307 17.6314C28.6307 17.5445 28.6129 17.4617 28.5809 17.3865C28.5645 17.3479 28.5353 17.3183 28.5126 17.2842Z" fill="#FCC217"/>
<path d="M39.3534 22.0397C39.7016 22.0397 39.984 21.7578 39.984 21.41C39.984 21.0622 39.7016 20.7803 39.3534 20.7803C39.005 20.7803 38.7227 21.0622 38.7227 21.41C38.7227 21.7578 39.005 22.0397 39.3534 22.0397Z" fill="#FCC217"/>
<path d="M37.4609 18.8906C37.1127 18.8906 36.8301 19.1727 36.8301 19.5203C36.8301 19.8683 37.1127 20.1501 37.4609 20.1501C37.8097 20.1501 38.0916 19.8683 38.0916 19.5203C38.0916 19.1727 37.8097 18.8906 37.4609 18.8906Z" fill="#FCC217"/>
<path d="M35.5682 22.0397C35.9166 22.0397 36.1989 21.7578 36.1989 21.41C36.1989 21.0622 35.9166 20.7803 35.5682 20.7803C35.2199 20.7803 34.9375 21.0622 34.9375 21.41C34.9375 21.7578 35.2199 22.0397 35.5682 22.0397Z" fill="#FCC217"/>
<path d="M33.6757 18.8906C33.3276 18.8906 33.0449 19.1727 33.0449 19.5203C33.0449 19.8683 33.3276 20.1501 33.6757 20.1501C34.0238 20.1501 34.3065 19.8683 34.3065 19.5203C34.3065 19.1727 34.0238 18.8906 33.6757 18.8906Z" fill="#FCC217"/>
<path d="M31.7844 20.7803C31.4363 20.7803 31.1543 21.0622 31.1543 21.4099C31.1543 21.7577 31.4363 22.0396 31.7844 22.0396C32.1332 22.0396 32.4152 21.7577 32.4152 21.4099C32.4152 21.0622 32.1332 20.7803 31.7844 20.7803Z" fill="#FCC217"/>
<path d="M29.8926 18.8906C29.5437 18.8906 29.2617 19.1727 29.2617 19.5203C29.2617 19.8683 29.5437 20.1501 29.8926 20.1501C30.2407 20.1501 30.5233 19.8683 30.5233 19.5203C30.5233 19.1727 30.2407 18.8906 29.8926 18.8906Z" fill="#FCC217"/>
<path d="M28.5126 21.0625C28.4897 21.03 28.4741 20.9927 28.4463 20.9647C28.3324 20.8511 28.1751 20.7807 28.0007 20.7803C27.8269 20.7805 27.6682 20.8511 27.5542 20.9647C27.5257 20.9927 27.5101 21.03 27.488 21.0625C27.4645 21.0966 27.4353 21.1265 27.4189 21.1649C27.387 21.2402 27.3691 21.323 27.3691 21.4099C27.3691 21.4968 27.387 21.5797 27.4189 21.655C27.4275 21.6747 27.4439 21.689 27.4546 21.7076C27.483 21.76 27.5122 21.8132 27.5542 21.8551C27.5955 21.8964 27.6475 21.9241 27.6987 21.9528C27.7187 21.9635 27.7336 21.9811 27.7543 21.9898C27.8163 22.0163 27.8867 22.026 27.9572 22.031C27.9721 22.0321 27.9843 22.0396 27.9992 22.0396C28.0198 22.0396 28.0384 22.0298 28.0583 22.0279C28.1238 22.0217 28.1886 22.0144 28.2462 21.9898C28.2669 21.9811 28.2819 21.9635 28.3011 21.9525C28.3523 21.9241 28.405 21.8962 28.4463 21.8551C28.4883 21.8132 28.5168 21.76 28.5459 21.7076C28.5559 21.689 28.5723 21.6747 28.5809 21.655C28.6129 21.5797 28.6307 21.4968 28.6307 21.4099C28.6307 21.323 28.6129 21.2402 28.5809 21.1649C28.5645 21.1265 28.5353 21.0966 28.5126 21.0625Z" fill="#FCC217"/>
<path d="M39.3535 25.8182C39.7018 25.8182 39.9843 25.5362 39.9843 25.1884C39.9843 24.8406 39.7018 24.5586 39.3535 24.5586C39.0051 24.5586 38.7227 24.8406 38.7227 25.1884C38.7227 25.5362 39.0051 25.8182 39.3535 25.8182Z" fill="#FCC217"/>
<path d="M37.4609 22.6699C37.1127 22.6699 36.8301 22.9518 36.8301 23.2998C36.8301 23.6474 37.1127 23.9294 37.4609 23.9294C37.8097 23.9294 38.0916 23.6474 38.0916 23.2998C38.0916 22.9518 37.8097 22.6699 37.4609 22.6699Z" fill="#FCC217"/>
<path d="M35.5683 25.8182C35.9166 25.8182 36.1991 25.5362 36.1991 25.1884C36.1991 24.8406 35.9166 24.5586 35.5683 24.5586C35.2199 24.5586 34.9375 24.8406 34.9375 25.1884C34.9375 25.5362 35.2199 25.8182 35.5683 25.8182Z" fill="#FCC217"/>
<path d="M33.6757 22.6699C33.3276 22.6699 33.0449 22.9518 33.0449 23.2998C33.0449 23.6474 33.3276 23.9294 33.6757 23.9294C34.0238 23.9294 34.3065 23.6474 34.3065 23.2998C34.3065 22.9518 34.0238 22.6699 33.6757 22.6699Z" fill="#FCC217"/>
<path d="M31.7844 24.5586C31.4363 24.5586 31.1543 24.8406 31.1543 25.1884C31.1543 25.5362 31.4363 25.8182 31.7844 25.8182C32.1332 25.8182 32.4152 25.5362 32.4152 25.1884C32.4152 24.8406 32.1332 24.5586 31.7844 24.5586Z" fill="#FCC217"/>
<path d="M29.8926 22.6699C29.5437 22.6699 29.2617 22.9518 29.2617 23.2998C29.2617 23.6474 29.5437 23.9294 29.8926 23.9294C30.2407 23.9294 30.5233 23.6474 30.5233 23.2998C30.5233 22.9518 30.2407 22.6699 29.8926 22.6699Z" fill="#FCC217"/>
<path d="M28.5126 24.8408C28.4897 24.8081 28.4741 24.7708 28.4463 24.7431C28.3324 24.6292 28.1751 24.5586 28.0007 24.5586C27.8269 24.5588 27.6682 24.629 27.5542 24.7431C27.5257 24.7708 27.5101 24.8081 27.488 24.8408C27.4645 24.8749 27.4353 24.9046 27.4189 24.9432C27.387 25.0183 27.3691 25.1011 27.3691 25.188C27.3691 25.275 27.387 25.3578 27.4189 25.4331C27.4275 25.4528 27.4439 25.4671 27.4546 25.4857C27.483 25.5381 27.5122 25.5911 27.5542 25.6331C27.5955 25.6743 27.6475 25.7023 27.6987 25.7308C27.7187 25.7418 27.7336 25.7592 27.7543 25.7681C27.8163 25.7944 27.8867 25.8042 27.9572 25.8091C27.9721 25.8102 27.9843 25.8177 27.9992 25.8177C28.0198 25.8177 28.0384 25.8079 28.0583 25.806C28.1238 25.7998 28.1886 25.7923 28.2462 25.7681C28.2669 25.7592 28.2819 25.7416 28.3011 25.7308C28.3523 25.7022 28.405 25.6743 28.4463 25.6331C28.4883 25.5911 28.5168 25.5381 28.5459 25.4857C28.5559 25.4671 28.5723 25.4528 28.5809 25.4331C28.6129 25.3578 28.6307 25.275 28.6307 25.188C28.6307 25.1011 28.6129 25.0183 28.5809 24.9432C28.5645 24.9046 28.5353 24.8749 28.5126 24.8408Z" fill="#FCC217"/>
<path d="M39.3534 29.5964C39.7016 29.5964 39.984 29.3144 39.984 28.9667C39.984 28.6189 39.7016 28.3369 39.3534 28.3369C39.005 28.3369 38.7227 28.6189 38.7227 28.9667C38.7227 29.3144 39.005 29.5964 39.3534 29.5964Z" fill="#FCC217"/>
<path d="M37.4609 26.4482C37.1127 26.4482 36.8301 26.7303 36.8301 27.0779C36.8301 27.4258 37.1127 27.7077 37.4609 27.7077C37.8097 27.7077 38.0916 27.4258 38.0916 27.0779C38.0916 26.7303 37.8097 26.4482 37.4609 26.4482Z" fill="#FCC217"/>
<path d="M35.5682 29.5964C35.9166 29.5964 36.1989 29.3144 36.1989 28.9667C36.1989 28.6189 35.9166 28.3369 35.5682 28.3369C35.2199 28.3369 34.9375 28.6189 34.9375 28.9667C34.9375 29.3144 35.2199 29.5964 35.5682 29.5964Z" fill="#FCC217"/>
<path d="M33.6757 26.4482C33.3276 26.4482 33.0449 26.7303 33.0449 27.0779C33.0449 27.4258 33.3276 27.7077 33.6757 27.7077C34.0238 27.7077 34.3065 27.4258 34.3065 27.0779C34.3065 26.7303 34.0238 26.4482 33.6757 26.4482Z" fill="#FCC217"/>
<path d="M31.7844 28.3369C31.4363 28.3369 31.1543 28.6188 31.1543 28.9666C31.1543 29.3144 31.4363 29.5962 31.7844 29.5962C32.1332 29.5962 32.4152 29.3144 32.4152 28.9666C32.4152 28.6188 32.1332 28.3369 31.7844 28.3369Z" fill="#FCC217"/>
<path d="M29.8926 26.4482C29.5437 26.4482 29.2617 26.7303 29.2617 27.0779C29.2617 27.4258 29.5437 27.7077 29.8926 27.7077C30.2407 27.7077 30.5233 27.4258 30.5233 27.0779C30.5233 26.7303 30.2407 26.4482 29.8926 26.4482Z" fill="#FCC217"/>
<path d="M28.5126 28.6191C28.4897 28.5866 28.4741 28.5493 28.4463 28.5214C28.3324 28.4077 28.1751 28.3373 28.0007 28.3369C27.8269 28.3371 27.6682 28.4077 27.5542 28.5214C27.5257 28.5493 27.5101 28.5866 27.488 28.6191C27.4645 28.6533 27.4353 28.6831 27.4189 28.7215C27.387 28.7969 27.3691 28.8797 27.3691 28.9666C27.3691 29.0535 27.387 29.1363 27.4189 29.2117C27.4275 29.2314 27.4439 29.2456 27.4546 29.2642C27.483 29.3166 27.5122 29.3698 27.5542 29.4118C27.5955 29.453 27.6475 29.4807 27.6987 29.5095C27.7187 29.5201 27.7336 29.5377 27.7543 29.5464C27.8163 29.573 27.8867 29.5827 27.9572 29.5877C27.9721 29.5888 27.9843 29.5962 27.9992 29.5962C28.0198 29.5962 28.0384 29.5865 28.0583 29.5845C28.1238 29.5783 28.1886 29.571 28.2462 29.5464C28.2669 29.5377 28.2819 29.5201 28.3011 29.5091C28.3523 29.4807 28.405 29.4528 28.4463 29.4118C28.4883 29.3698 28.5168 29.3166 28.5459 29.2642C28.5559 29.2456 28.5723 29.2314 28.5809 29.2117C28.6129 29.1363 28.6307 29.0535 28.6307 28.9666C28.6307 28.8797 28.6129 28.7969 28.5809 28.7215C28.5645 28.6831 28.5353 28.6533 28.5126 28.6191Z" fill="#FCC217"/>
<path d="M39.3535 32.1152C39.0054 32.1152 38.7227 32.3971 38.7227 32.7449C38.7227 33.0927 39.0054 33.3747 39.3535 33.3747C39.7016 33.3747 39.9843 33.0927 39.9843 32.7449C39.9843 32.3971 39.7016 32.1152 39.3535 32.1152Z" fill="#FCC217"/>
<path d="M37.4609 30.2266C37.1127 30.2266 36.8301 30.5084 36.8301 30.8563C36.8301 31.2039 37.1127 31.486 37.4609 31.486C37.8097 31.486 38.0916 31.2039 38.0916 30.8563C38.0916 30.5084 37.8097 30.2266 37.4609 30.2266Z" fill="#FCC217"/>
<path d="M35.5683 32.1152C35.2194 32.1152 34.9375 32.3971 34.9375 32.7449C34.9375 33.0927 35.2194 33.3747 35.5683 33.3747C35.9164 33.3747 36.1991 33.0927 36.1991 32.7449C36.1991 32.3971 35.9164 32.1152 35.5683 32.1152Z" fill="#FCC217"/>
<path d="M33.6757 30.2266C33.3276 30.2266 33.0449 30.5084 33.0449 30.8563C33.0449 31.2039 33.3276 31.486 33.6757 31.486C34.0238 31.486 34.3065 31.2039 34.3065 30.8563C34.3065 30.5084 34.0238 30.2266 33.6757 30.2266Z" fill="#FCC217"/>
<path d="M31.7844 32.1152C31.4363 32.1152 31.1543 32.3971 31.1543 32.7449C31.1543 33.0927 31.4363 33.3747 31.7844 33.3747C32.1332 33.3747 32.4152 33.0927 32.4152 32.7449C32.4152 32.3971 32.1332 32.1152 31.7844 32.1152Z" fill="#FCC217"/>
<path d="M29.8926 30.2266C29.5437 30.2266 29.2617 30.5084 29.2617 30.8563C29.2617 31.2039 29.5437 31.486 29.8926 31.486C30.2407 31.486 30.5233 31.2039 30.5233 30.8563C30.5233 30.5084 30.2407 30.2266 29.8926 30.2266Z" fill="#FCC217"/>
<path d="M28.5459 32.4482C28.5168 32.3956 28.4883 32.3426 28.4463 32.3007C28.405 32.2594 28.3523 32.2314 28.3011 32.2029C28.2819 32.1919 28.2669 32.1745 28.2462 32.1658C28.1886 32.1414 28.1238 32.134 28.0583 32.1279C28.0384 32.1258 28.0213 32.1162 28.0007 32.1162C27.9857 32.1162 27.9721 32.1237 27.9572 32.1247C27.8867 32.1297 27.8163 32.1393 27.7543 32.1658C27.7336 32.1745 27.7187 32.1919 27.6995 32.2026C27.6475 32.2314 27.5955 32.2592 27.5542 32.3007C27.5122 32.3426 27.483 32.3956 27.4546 32.4482C27.4439 32.4668 27.4275 32.4809 27.4189 32.5008C27.387 32.5762 27.3691 32.6589 27.3691 32.7457C27.3691 32.8327 27.387 32.9154 27.4189 32.9908C27.4275 33.0105 27.4439 33.0247 27.4546 33.0432C27.483 33.0958 27.5122 33.1487 27.5542 33.1909C27.6112 33.2479 27.6788 33.2938 27.7543 33.3257C27.8298 33.3577 27.9123 33.3753 27.9992 33.3755C28.1737 33.3753 28.3324 33.3048 28.4463 33.1909C28.4883 33.1487 28.5168 33.0958 28.5459 33.0432C28.5559 33.0247 28.573 33.0105 28.5809 32.9908C28.6129 32.9154 28.6307 32.8327 28.6307 32.7457C28.6307 32.6589 28.6129 32.5762 28.5809 32.5008C28.573 32.4809 28.5559 32.4668 28.5459 32.4482Z" fill="#FCC217"/>
<path d="M37.4608 35.2643C37.8091 35.2643 38.0915 34.9824 38.0915 34.6346C38.0915 34.2868 37.8091 34.0049 37.4608 34.0049C37.1124 34.0049 36.8301 34.2868 36.8301 34.6346C36.8301 34.9824 37.1124 35.2643 37.4608 35.2643Z" fill="#FCC217"/>
<path d="M35.5683 35.8936C35.2194 35.8936 34.9375 36.1754 34.9375 36.5234C34.9375 36.871 35.2194 37.153 35.5683 37.153C35.9164 37.153 36.1991 36.871 36.1991 36.5234C36.1991 36.1754 35.9164 35.8936 35.5683 35.8936Z" fill="#FCC217"/>
<path d="M33.6756 35.2643C34.024 35.2643 34.3063 34.9824 34.3063 34.6346C34.3063 34.2868 34.024 34.0049 33.6756 34.0049C33.3274 34.0049 33.0449 34.2868 33.0449 34.6346C33.0449 34.9824 33.3274 35.2643 33.6756 35.2643Z" fill="#FCC217"/>
<path d="M31.7844 35.8936C31.4363 35.8936 31.1543 36.1754 31.1543 36.5234C31.1543 36.871 31.4363 37.153 31.7844 37.153C32.1332 37.153 32.4152 36.871 32.4152 36.5234C32.4152 36.1754 32.1332 35.8936 31.7844 35.8936Z" fill="#FCC217"/>
<path d="M29.8924 35.2643C30.2407 35.2643 30.5231 34.9824 30.5231 34.6346C30.5231 34.2868 30.2407 34.0049 29.8924 34.0049C29.5441 34.0049 29.2617 34.2868 29.2617 34.6346C29.2617 34.9824 29.5441 35.2643 29.8924 35.2643Z" fill="#FCC217"/>
<path d="M28.5459 36.2257C28.5168 36.1733 28.4883 36.1202 28.4463 36.0781C28.405 36.0368 28.3523 36.0091 28.3011 35.9803C28.2819 35.9697 28.2669 35.9521 28.2462 35.9433C28.1886 35.919 28.1238 35.9117 28.0583 35.9053C28.0384 35.9035 28.0213 35.8936 28.0007 35.8936C27.9857 35.8936 27.9721 35.901 27.9572 35.9021C27.8867 35.9071 27.8163 35.917 27.7543 35.9433C27.7336 35.9521 27.7187 35.9695 27.6995 35.9803C27.6475 36.0087 27.5955 36.0368 27.5542 36.0781C27.5122 36.1202 27.483 36.1733 27.4546 36.2257C27.4439 36.2444 27.4275 36.2586 27.4189 36.2781C27.387 36.3535 27.3691 36.4363 27.3691 36.5234C27.3691 36.6102 27.387 36.6929 27.4189 36.7683C27.4275 36.788 27.4439 36.802 27.4546 36.8209C27.483 36.8732 27.5122 36.9264 27.5542 36.9684C27.6682 37.0823 27.8255 37.1529 27.9992 37.1529C28.1737 37.1527 28.3324 37.0822 28.4463 36.9684C28.4883 36.9264 28.5168 36.8732 28.5459 36.8209C28.5559 36.802 28.573 36.788 28.5809 36.7683C28.6129 36.6929 28.6307 36.6102 28.6307 36.5234C28.6307 36.4363 28.6129 36.3535 28.5809 36.2781C28.573 36.2586 28.5559 36.2444 28.5459 36.2257Z" fill="#FCC217"/>
<path d="M35.5683 39.6719C35.2194 39.6719 34.9375 39.9537 34.9375 40.3015C34.9375 40.6492 35.2194 40.9313 35.5683 40.9313C35.9164 40.9313 36.1991 40.6492 36.1991 40.3015C36.1991 39.9537 35.9164 39.6719 35.5683 39.6719Z" fill="#FCC217"/>
<path d="M33.6757 39.0428C34.0241 39.0428 34.3065 38.7608 34.3065 38.413C34.3065 38.0652 34.0241 37.7832 33.6757 37.7832C33.3274 37.7832 33.0449 38.0652 33.0449 38.413C33.0449 38.7608 33.3274 39.0428 33.6757 39.0428Z" fill="#FCC217"/>
<path d="M31.7844 39.6719C31.4363 39.6719 31.1543 39.9537 31.1543 40.3015C31.1543 40.6492 31.4363 40.9313 31.7844 40.9313C32.1332 40.9313 32.4152 40.6492 32.4152 40.3015C32.4152 39.9537 32.1332 39.6719 31.7844 39.6719Z" fill="#FCC217"/>
<path d="M29.8926 39.0428C30.2409 39.0428 30.5233 38.7608 30.5233 38.413C30.5233 38.0652 30.2409 37.7832 29.8926 37.7832C29.5441 37.7832 29.2617 38.0652 29.2617 38.413C29.2617 38.7608 29.5441 39.0428 29.8926 39.0428Z" fill="#FCC217"/>
<path d="M28.5459 40.0048C28.5168 39.9522 28.4883 39.8993 28.4463 39.8573C28.405 39.8161 28.3523 39.788 28.3011 39.7596C28.2819 39.7486 28.2669 39.7311 28.2462 39.7224C28.1886 39.6981 28.1238 39.6907 28.0583 39.6846C28.0384 39.6824 28.0213 39.6729 28.0007 39.6729C27.9857 39.6729 27.9721 39.6803 27.9572 39.6814C27.8867 39.6863 27.8163 39.696 27.7543 39.7224C27.7336 39.7311 27.7187 39.7486 27.6995 39.7592C27.6475 39.788 27.5955 39.816 27.5542 39.8573C27.5122 39.8993 27.483 39.9522 27.4546 40.0048C27.4439 40.0235 27.4275 40.0375 27.4189 40.0574C27.387 40.1328 27.3691 40.2156 27.3691 40.3023C27.3691 40.3894 27.387 40.472 27.4189 40.5474C27.4275 40.5671 27.4439 40.5813 27.4546 40.5998C27.483 40.6524 27.5122 40.7054 27.5542 40.7475C27.6112 40.8045 27.6788 40.8504 27.7543 40.8824C27.8298 40.9144 27.9123 40.932 27.9992 40.9322C28.1737 40.932 28.3324 40.8614 28.4463 40.7475C28.4883 40.7054 28.5168 40.6524 28.5459 40.5998C28.5559 40.5813 28.573 40.5671 28.5809 40.5474C28.6129 40.472 28.6307 40.3894 28.6307 40.3023C28.6307 40.2156 28.6129 40.1328 28.5809 40.0574C28.573 40.0375 28.5559 40.0235 28.5459 40.0048Z" fill="#FCC217"/>
<path d="M29.8924 42.821C30.2407 42.821 30.5231 42.539 30.5231 42.1913C30.5231 41.8435 30.2407 41.5615 29.8924 41.5615C29.5441 41.5615 29.2617 41.8435 29.2617 42.1913C29.2617 42.539 29.5441 42.821 29.8924 42.821Z" fill="#FCC217"/>
<path d="M28.5574 43.8009C28.4904 43.6685 28.3837 43.5592 28.2462 43.5009C28.1886 43.4765 28.1238 43.4693 28.0583 43.4628C28.0384 43.4611 28.0213 43.4512 28.0007 43.4512C27.9857 43.4512 27.9721 43.4586 27.9572 43.4597C27.8867 43.4647 27.8163 43.4746 27.7543 43.5009C27.6169 43.5592 27.5094 43.6685 27.4425 43.8009C27.4361 43.8137 27.4247 43.8227 27.4189 43.8357C27.387 43.911 27.3691 43.9939 27.3691 44.0809C27.3691 44.1677 27.387 44.2505 27.4189 44.3259C27.4275 44.3456 27.4439 44.3596 27.4546 44.3785C27.483 44.4307 27.5122 44.484 27.5542 44.526C27.6682 44.6399 27.8255 44.7104 27.9992 44.7104C28.1737 44.7102 28.3324 44.6397 28.4463 44.526C28.4883 44.484 28.5168 44.4307 28.5459 44.3785C28.5559 44.3596 28.573 44.3456 28.5809 44.3259C28.6129 44.2505 28.6307 44.1677 28.6307 44.0809C28.6307 43.9939 28.6129 43.911 28.5809 43.8357C28.5752 43.8227 28.5638 43.8137 28.5574 43.8009Z" fill="#FCC217"/>
<path d="M27.9994 10.9836C27.7104 11.2612 27.2811 11.6335 26.7229 12.0449C26.6809 12.3522 26.4282 12.5926 26.1092 12.5926C26.0608 12.5926 26.0181 12.5752 25.9725 12.5649C25.5667 12.8283 25.1125 13.0984 24.6027 13.3661C24.748 13.4819 24.8476 13.6518 24.8476 13.8522C24.8476 14.1999 24.565 14.4819 24.2169 14.4819C23.8709 14.4819 23.5896 14.2023 23.5875 13.8566C22.3181 14.427 20.7874 14.9428 18.9797 15.291C19.0965 15.4059 19.1713 15.5644 19.1713 15.7414C19.1713 16.089 18.8886 16.3712 18.5405 16.3712C18.1923 16.3712 17.9096 16.089 17.9096 15.7414C17.9096 15.6376 17.9403 15.5438 17.9851 15.4574C17.1686 15.5789 16.2999 15.6632 15.3794 15.7048C15.3808 15.7176 15.3872 15.7282 15.3872 15.7414C15.3872 16.089 15.1046 16.3712 14.7564 16.3712V18.8902C15.1046 18.8902 15.3872 19.1722 15.3872 19.5198C15.3872 19.8674 15.1046 20.1494 14.7564 20.1494V22.6683C15.1046 22.6683 15.3872 22.9506 15.3872 23.2982C15.3872 23.6458 15.1046 23.928 14.7564 23.928V26.4469C15.1046 26.4469 15.3872 26.7289 15.3872 27.0765C15.3872 27.4186 15.1124 27.6944 14.7721 27.7031C14.7963 28.5697 14.8732 29.4293 15.0028 30.2756C15.2285 30.3712 15.3872 30.5942 15.3872 30.8549C15.3872 31.0344 15.3104 31.1944 15.1893 31.309C15.5197 32.9072 16.0287 34.4533 16.7129 35.9059C17.029 35.9401 17.2789 36.1975 17.2789 36.5226C17.2789 36.639 17.2383 36.7422 17.1828 36.8361C17.4263 37.2888 17.6883 37.7291 17.9638 38.1599C18.0613 37.9376 18.2827 37.7819 18.5405 37.7819C18.8886 37.7819 19.1713 38.0641 19.1713 38.4117C19.1713 38.7529 18.8985 39.0269 18.5597 39.0376C19.4895 40.3305 20.5759 41.5011 21.7983 42.5169C21.7378 42.4205 21.6937 42.3129 21.6937 42.1908C21.6937 41.8431 21.9763 41.5611 22.3245 41.5611C22.6726 41.5611 22.9552 41.8431 22.9552 42.1908C22.9552 42.5384 22.6726 42.8204 22.3245 42.8204C22.2483 42.8204 22.1771 42.8016 22.1095 42.7771C22.1358 42.7977 22.1607 42.8211 22.1871 42.8419C22.6584 43.2116 23.139 43.5547 23.6274 43.8722C23.7142 43.6278 23.9421 43.4503 24.2161 43.4503C24.5643 43.4503 24.847 43.7324 24.847 44.08C24.847 44.2443 24.78 44.3911 24.6768 44.503C25.7525 45.1056 26.8632 45.5892 28.0009 45.9406C29.1386 45.5892 30.2485 45.1056 31.3235 44.503C31.2203 44.3911 31.1541 44.2443 31.1541 44.08C31.1541 43.7324 31.4361 43.4503 31.7842 43.4503C32.059 43.4503 32.2861 43.6278 32.373 43.8722C32.8614 43.5547 33.3426 43.2116 33.8132 42.8419C33.8396 42.8211 33.8645 42.7977 33.8908 42.7771C33.824 42.8016 33.752 42.8204 33.6759 42.8204C33.3277 42.8204 33.0451 42.5384 33.0451 42.1908C33.0451 41.8431 33.3277 41.5611 33.6759 41.5611C34.024 41.5611 34.3066 41.8431 34.3066 42.1908C34.3066 42.3129 34.2625 42.4205 34.202 42.5169C35.4251 41.5011 36.5108 40.3305 37.4414 39.0376C37.1018 39.0269 36.8298 38.7529 36.8298 38.4117C36.8298 38.0641 37.1117 37.7819 37.4598 37.7819C37.7183 37.7819 37.939 37.9376 38.0366 38.1599C38.3121 37.7291 38.5748 37.2888 38.8175 36.8361C38.762 36.7422 38.7215 36.639 38.7215 36.5226C38.7215 36.1975 38.9714 35.9401 39.2875 35.9059C39.9716 34.4533 40.4814 32.9072 40.811 31.309C40.6907 31.1944 40.6138 31.0344 40.6138 30.8549C40.6138 30.5942 40.7719 30.3712 40.9976 30.2756C41.1278 29.4293 41.204 28.5697 41.2282 27.7031C40.8879 27.6944 40.6138 27.4186 40.6138 27.0765C40.6138 26.7289 40.8965 26.4469 41.2446 26.4469V23.928C40.8965 23.928 40.6138 23.6458 40.6138 23.2982C40.6138 22.9506 40.8965 22.6683 41.2446 22.6683V20.1494C40.8965 20.1494 40.6138 19.8674 40.6138 19.5198C40.6138 19.1722 40.8965 18.8902 41.2446 18.8902V16.3712C40.8965 16.3712 40.6138 16.089 40.6138 15.7414C40.6138 15.7282 40.6202 15.7176 40.6209 15.7048C39.7004 15.6632 38.8318 15.5789 38.0152 15.4574C38.0601 15.5438 38.0907 15.6376 38.0907 15.7414C38.0907 16.089 37.808 16.3712 37.4598 16.3712C37.1117 16.3712 36.8298 16.089 36.8298 15.7414C36.8298 15.5644 36.9038 15.4059 37.0213 15.291C35.213 14.9428 33.6823 14.427 32.4136 13.8566C32.4107 14.2023 32.1302 14.4819 31.7835 14.4819C31.4361 14.4819 31.1534 14.1999 31.1534 13.8522C31.1534 13.6518 31.2531 13.4819 31.3976 13.3661C30.8886 13.0984 30.4336 12.8283 30.0278 12.5649C29.9822 12.5752 29.9395 12.5926 29.8918 12.5926C29.5729 12.5926 29.3194 12.3522 29.2774 12.0449C28.7193 11.6335 28.2892 11.2612 27.9994 10.9836ZM27.9994 10.9836C27.9994 10.9838 28.0002 10.9834 27.9994 10.9836ZM17.2782 17.6312C17.2782 17.979 16.9958 18.261 16.6473 18.261C16.299 18.261 16.0166 17.979 16.0166 17.6312C16.0166 17.2834 16.299 17.0014 16.6473 17.0014C16.9958 17.0014 17.2782 17.2834 17.2782 17.6312ZM21.0629 17.6312C21.0629 17.979 20.7805 18.261 20.4321 18.261C20.0837 18.261 19.8013 17.979 19.8013 17.6312C19.8013 17.2834 20.0837 17.0014 20.4321 17.0014C20.7805 17.0014 21.0629 17.2834 21.0629 17.6312ZM22.3238 15.1122C21.9756 15.1122 21.693 15.3941 21.693 15.7421C21.693 16.0897 21.9756 16.3717 22.3238 16.3717C22.6726 16.3717 22.9546 16.0897 22.9546 15.7421C22.9546 15.3941 22.6726 15.1122 22.3238 15.1122ZM24.847 17.6312C24.847 17.979 24.5645 18.261 24.2161 18.261C23.8678 18.261 23.5853 17.979 23.5853 17.6312C23.5853 17.2834 23.8678 17.0014 24.2161 17.0014C24.5645 17.0014 24.847 17.2834 24.847 17.6312ZM26.1078 15.1122C25.7596 15.1122 25.4777 15.3941 25.4777 15.7421C25.4777 16.0897 25.7596 16.3717 26.1078 16.3717C26.4567 16.3717 26.7386 16.0897 26.7386 15.7421C26.7386 15.3941 26.4567 15.1122 26.1078 15.1122ZM17.2781 21.4095C17.2781 21.7574 16.9957 22.0393 16.6473 22.0393C16.2991 22.0393 16.0167 21.7574 16.0167 21.4095C16.0167 21.0618 16.2991 20.7798 16.6473 20.7798C16.9957 20.7798 17.2781 21.0618 17.2781 21.4095ZM18.5397 18.8906C18.1916 18.8906 17.909 19.1727 17.909 19.5203C17.909 19.8683 18.1916 20.1501 18.5397 20.1501C18.8879 20.1501 19.1705 19.8683 19.1705 19.5203C19.1705 19.1727 18.8879 18.8906 18.5397 18.8906ZM21.0628 21.4095C21.0628 21.7574 20.7804 22.0393 20.4321 22.0393C20.0838 22.0393 19.8014 21.7574 19.8014 21.4095C19.8014 21.0618 20.0838 20.7798 20.4321 20.7798C20.7804 20.7798 21.0628 21.0618 21.0628 21.4095ZM22.3238 18.8906C21.9756 18.8906 21.693 19.1727 21.693 19.5203C21.693 19.8683 21.9756 20.1501 22.3238 20.1501C22.6726 20.1501 22.9546 19.8683 22.9546 19.5203C22.9546 19.1727 22.6726 18.8906 22.3238 18.8906ZM24.8468 21.4095C24.8468 21.7574 24.5645 22.0393 24.2161 22.0393C23.8678 22.0393 23.5854 21.7574 23.5854 21.4095C23.5854 21.0618 23.8678 20.7798 24.2161 20.7798C24.5645 20.7798 24.8468 21.0618 24.8468 21.4095ZM26.1078 18.8906C25.7596 18.8906 25.4777 19.1727 25.4777 19.5203C25.4777 19.8683 25.7596 20.1501 26.1078 20.1501C26.4567 20.1501 26.7386 19.8683 26.7386 19.5203C26.7386 19.1727 26.4567 18.8906 26.1078 18.8906ZM17.2782 25.188C17.2782 25.5358 16.9958 25.8178 16.6473 25.8178C16.299 25.8178 16.0166 25.5358 16.0166 25.188C16.0166 24.8401 16.299 24.5582 16.6473 24.5582C16.9958 24.5582 17.2782 24.8401 17.2782 25.188ZM18.5397 22.669C18.1916 22.669 17.909 22.9509 17.909 23.2988C17.909 23.6464 18.1916 23.9285 18.5397 23.9285C18.8879 23.9285 19.1705 23.6464 19.1705 23.2988C19.1705 22.9509 18.8879 22.669 18.5397 22.669ZM21.0629 25.188C21.0629 25.5358 20.7805 25.8178 20.4321 25.8178C20.0837 25.8178 19.8013 25.5358 19.8013 25.188C19.8013 24.8401 20.0837 24.5582 20.4321 24.5582C20.7805 24.5582 21.0629 24.8401 21.0629 25.188ZM22.3238 22.669C21.9756 22.669 21.693 22.9509 21.693 23.2988C21.693 23.6464 21.9756 23.9285 22.3238 23.9285C22.6726 23.9285 22.9546 23.6464 22.9546 23.2988C22.9546 22.9509 22.6726 22.669 22.3238 22.669ZM24.847 25.188C24.847 25.5358 24.5645 25.8178 24.2161 25.8178C23.8678 25.8178 23.5853 25.5358 23.5853 25.188C23.5853 24.8401 23.8678 24.5582 24.2161 24.5582C24.5645 24.5582 24.847 24.8401 24.847 25.188ZM26.1078 22.669C25.7596 22.669 25.4777 22.9509 25.4777 23.2988C25.4777 23.6464 25.7596 23.9285 26.1078 23.9285C26.4567 23.9285 26.7386 23.6464 26.7386 23.2988C26.7386 22.9509 26.4567 22.669 26.1078 22.669ZM17.2781 28.9664C17.2781 29.3141 16.9957 29.5961 16.6473 29.5961C16.2991 29.5961 16.0167 29.3141 16.0167 28.9664C16.0167 28.6186 16.2991 28.3366 16.6473 28.3366C16.9957 28.3366 17.2781 28.6186 17.2781 28.9664ZM18.5397 26.4475C18.1916 26.4475 17.909 26.7295 17.909 27.0771C17.909 27.425 18.1916 27.7069 18.5397 27.7069C18.8879 27.7069 19.1705 27.425 19.1705 27.0771C19.1705 26.7295 18.8879 26.4475 18.5397 26.4475ZM21.0628 28.9664C21.0628 29.3141 20.7804 29.5961 20.4321 29.5961C20.0838 29.5961 19.8014 29.3141 19.8014 28.9664C19.8014 28.6186 20.0838 28.3366 20.4321 28.3366C20.7804 28.3366 21.0628 28.6186 21.0628 28.9664ZM22.3238 26.4475C21.9756 26.4475 21.693 26.7295 21.693 27.0771C21.693 27.425 21.9756 27.7069 22.3238 27.7069C22.6726 27.7069 22.9546 27.425 22.9546 27.0771C22.9546 26.7295 22.6726 26.4475 22.3238 26.4475ZM24.8468 28.9664C24.8468 29.3141 24.5645 29.5961 24.2161 29.5961C23.8678 29.5961 23.5854 29.3141 23.5854 28.9664C23.5854 28.6186 23.8678 28.3366 24.2161 28.3366C24.5645 28.3366 24.8468 28.6186 24.8468 28.9664ZM26.1078 26.4475C25.7596 26.4475 25.4777 26.7295 25.4777 27.0771C25.4777 27.425 25.7596 27.7069 26.1078 27.7069C26.4567 27.7069 26.7386 27.425 26.7386 27.0771C26.7386 26.7295 26.4567 26.4475 26.1078 26.4475ZM16.6473 32.1151C16.2992 32.1151 16.0166 32.3969 16.0166 32.7448C16.0166 33.0925 16.2992 33.3745 16.6473 33.3745C16.9962 33.3745 17.2782 33.0925 17.2782 32.7448C17.2782 32.3969 16.9962 32.1151 16.6473 32.1151ZM18.5397 30.2258C18.1916 30.2258 17.909 30.5077 17.909 30.8556C17.909 31.2032 18.1916 31.4853 18.5397 31.4853C18.8879 31.4853 19.1705 31.2032 19.1705 30.8556C19.1705 30.5077 18.8879 30.2258 18.5397 30.2258ZM20.4321 32.1151C20.0832 32.1151 19.8013 32.3969 19.8013 32.7448C19.8013 33.0925 20.0832 33.3745 20.4321 33.3745C20.7803 33.3745 21.0629 33.0925 21.0629 32.7448C21.0629 32.3969 20.7803 32.1151 20.4321 32.1151ZM22.3238 30.2258C21.9756 30.2258 21.693 30.5077 21.693 30.8556C21.693 31.2032 21.9756 31.4853 22.3238 31.4853C22.6726 31.4853 22.9546 31.2032 22.9546 30.8556C22.9546 30.5077 22.6726 30.2258 22.3238 30.2258ZM24.2161 32.1151C23.868 32.1151 23.5853 32.3969 23.5853 32.7448C23.5853 33.0925 23.868 33.3745 24.2161 33.3745C24.5643 33.3745 24.847 33.0925 24.847 32.7448C24.847 32.3969 24.5643 32.1151 24.2161 32.1151ZM26.1078 30.2258C25.7596 30.2258 25.4777 30.5077 25.4777 30.8556C25.4777 31.2032 25.7596 31.4853 26.1078 31.4853C26.4567 31.4853 26.7386 31.2032 26.7386 30.8556C26.7386 30.5077 26.4567 30.2258 26.1078 30.2258ZM19.1704 34.634C19.1704 34.9818 18.8881 35.2637 18.5397 35.2637C18.1914 35.2637 17.909 34.9818 17.909 34.634C17.909 34.2862 18.1914 34.0043 18.5397 34.0043C18.8881 34.0043 19.1704 34.2862 19.1704 34.634ZM20.4321 35.8934C20.0832 35.8934 19.8013 36.1753 19.8013 36.5233C19.8013 36.8709 20.0832 37.1529 20.4321 37.1529C20.7803 37.1529 21.0629 36.8709 21.0629 36.5233C21.0629 36.1753 20.7803 35.8934 20.4321 35.8934ZM22.9545 34.634C22.9545 34.9818 22.6721 35.2637 22.3238 35.2637C21.9754 35.2637 21.6931 34.9818 21.6931 34.634C21.6931 34.2862 21.9754 34.0043 22.3238 34.0043C22.6721 34.0043 22.9545 34.2862 22.9545 34.634ZM24.2161 35.8934C23.868 35.8934 23.5853 36.1753 23.5853 36.5233C23.5853 36.8709 23.868 37.1529 24.2161 37.1529C24.5643 37.1529 24.847 36.8709 24.847 36.5233C24.847 36.1753 24.5643 35.8934 24.2161 35.8934ZM26.1078 34.0043C25.7596 34.0043 25.4777 34.2862 25.4777 34.634C25.4777 34.9818 25.7596 35.2637 26.1078 35.2637C26.4567 35.2637 26.7386 34.9818 26.7386 34.634C26.7386 34.2862 26.4567 34.0043 26.1078 34.0043ZM20.4321 39.6719C20.0832 39.6719 19.8013 39.9537 19.8013 40.3015C19.8013 40.6493 20.0832 40.9313 20.4321 40.9313C20.7803 40.9313 21.0629 40.6493 21.0629 40.3015C21.0629 39.9537 20.7803 39.6719 20.4321 39.6719ZM22.9546 38.4124C22.9546 38.7602 22.6721 39.0422 22.3238 39.0422C21.9754 39.0422 21.693 38.7602 21.693 38.4124C21.693 38.0645 21.9754 37.7826 22.3238 37.7826C22.6721 37.7826 22.9546 38.0645 22.9546 38.4124ZM24.2161 39.6719C23.868 39.6719 23.5853 39.9537 23.5853 40.3015C23.5853 40.6493 23.868 40.9313 24.2161 40.9313C24.5643 40.9313 24.847 40.6493 24.847 40.3015C24.847 39.9537 24.5643 39.6719 24.2161 39.6719ZM26.1078 37.7826C25.7596 37.7826 25.4777 38.0644 25.4777 38.4124C25.4777 38.76 25.7596 39.0422 26.1078 39.0422C26.4567 39.0422 26.7386 38.76 26.7386 38.4124C26.7386 38.0644 26.4567 37.7826 26.1078 37.7826ZM26.1078 41.5611C25.7596 41.5611 25.4777 41.843 25.4777 42.1908C25.4777 42.5385 25.7596 42.8204 26.1078 42.8204C26.4567 42.8204 26.7386 42.5385 26.7386 42.1908C26.7386 41.843 26.4567 41.5611 26.1078 41.5611ZM41.8761 14.4825C32.6499 14.4825 28.5241 9.71796 28.4843 9.66958C28.3633 9.52776 28.1867 9.44531 28.0009 9.44531C27.815 9.44531 27.637 9.52776 27.5167 9.66958C27.4762 9.71796 23.3511 14.4825 14.1249 14.4825C13.7761 14.4825 13.4941 14.764 13.4941 15.1122V27.1307C13.4941 33.7008 16.4523 39.9445 21.4068 43.8318C23.4045 45.3992 25.5624 46.5334 27.8214 47.2029C27.8799 47.2195 27.939 47.2284 27.9994 47.2284C28.0599 47.2284 28.1212 47.2195 28.1796 47.2029C30.4379 46.5334 32.5966 45.3992 34.5935 43.8318C39.5487 39.9445 42.5062 33.7008 42.5062 27.1307V15.1122C42.5062 14.764 42.2242 14.4825 41.8761 14.4825ZM28.5128 13.5054C28.49 13.4729 28.4743 13.4355 28.4465 13.4076C28.4053 13.3666 28.3526 13.3387 28.3014 13.3101C28.2821 13.2992 28.2671 13.2816 28.2465 13.2729C28.1888 13.2484 28.124 13.2413 28.0585 13.2349C28.0386 13.2329 28.0216 13.2232 28.0009 13.2232C27.9859 13.2232 27.9724 13.2306 27.9575 13.2317C27.887 13.2366 27.8165 13.2464 27.7545 13.2729C27.7339 13.2816 27.719 13.2992 27.699 13.3099C27.6478 13.3387 27.5958 13.3664 27.5545 13.4076C27.526 13.4355 27.5103 13.4729 27.4883 13.5054C27.4648 13.5395 27.4356 13.5693 27.4192 13.6077C27.3872 13.6831 27.3694 13.7659 27.3694 13.8528C27.3694 13.9397 27.3872 14.0225 27.4192 14.0979C27.4278 14.1176 27.4441 14.1318 27.4548 14.1505C27.4833 14.2029 27.5125 14.2561 27.5545 14.2979C27.5958 14.3392 27.6478 14.3669 27.699 14.3957C27.719 14.4064 27.7339 14.424 27.7545 14.4327C27.8165 14.4591 27.887 14.4689 27.9575 14.4739C27.9724 14.475 27.9845 14.4825 27.9994 14.4825C28.0201 14.4825 28.0386 14.4727 28.0585 14.4707C28.124 14.4645 28.1888 14.4572 28.2465 14.4327C28.2671 14.424 28.2821 14.4064 28.3014 14.3954C28.3526 14.3669 28.4053 14.339 28.4465 14.2979C28.4886 14.2561 28.5171 14.2029 28.5462 14.1505C28.5562 14.1318 28.5726 14.1176 28.5811 14.0979C28.6131 14.0225 28.6309 13.9397 28.6309 13.8528C28.6309 13.7659 28.6131 13.6831 28.5811 13.6077C28.5648 13.5693 28.5355 13.5395 28.5128 13.5054ZM39.9838 17.6312C39.9838 17.979 39.7013 18.261 39.353 18.261C39.0046 18.261 38.7221 17.979 38.7221 17.6312C38.7221 17.2834 39.0046 17.0014 39.353 17.0014C39.7013 17.0014 39.9838 17.2834 39.9838 17.6312ZM36.1997 17.6312C36.1997 17.979 35.9173 18.261 35.5689 18.261C35.2205 18.261 34.9382 17.979 34.9382 17.6312C34.9382 17.2834 35.2205 17.0014 35.5689 17.0014C35.9173 17.0014 36.1997 17.2834 36.1997 17.6312ZM33.6765 15.1122C33.3284 15.1122 33.0458 15.3941 33.0458 15.7421C33.0458 16.0897 33.3284 16.3717 33.6765 16.3717C34.0247 16.3717 34.3073 16.0897 34.3073 15.7421C34.3073 15.3941 34.0247 15.1122 33.6765 15.1122ZM31.7842 17.0014C31.4361 17.0014 31.1541 17.2834 31.1541 17.6312C31.1541 17.979 31.4361 18.261 31.7842 18.261C32.133 18.261 32.415 17.979 32.415 17.6312C32.415 17.2834 32.133 17.0014 31.7842 17.0014ZM29.8926 15.1122C29.5437 15.1122 29.2617 15.3941 29.2617 15.7421C29.2617 16.0897 29.5437 16.3717 29.8926 16.3717C30.2407 16.3717 30.5233 16.0897 30.5233 15.7421C30.5233 15.3941 30.2407 15.1122 29.8926 15.1122ZM28.5128 17.284C28.49 17.2512 28.4743 17.2139 28.4465 17.1862C28.3327 17.0723 28.1753 17.0017 28.0009 17.0017C27.8272 17.0019 27.6684 17.0721 27.5545 17.1862C27.526 17.2139 27.5103 17.2512 27.4883 17.284C27.4648 17.318 27.4356 17.3477 27.4192 17.3863C27.3872 17.4615 27.3694 17.5443 27.3694 17.6312C27.3694 17.7181 27.3872 17.8009 27.4192 17.8763C27.4278 17.896 27.4441 17.9102 27.4548 17.9288C27.4833 17.9813 27.5125 18.0342 27.5545 18.0762C27.5958 18.1174 27.6478 18.1455 27.699 18.174C27.719 18.185 27.7339 18.2024 27.7545 18.2113C27.8165 18.2376 27.887 18.2473 27.9575 18.2523C27.9724 18.2534 27.9845 18.2609 27.9994 18.2609C28.0201 18.2609 28.0386 18.2511 28.0585 18.2491C28.124 18.2429 28.1888 18.2354 28.2465 18.2113C28.2671 18.2024 28.2821 18.1848 28.3014 18.174C28.3526 18.1451 28.4053 18.1174 28.4465 18.0762C28.4886 18.0342 28.5171 17.9813 28.5462 17.9288C28.5562 17.9102 28.5726 17.896 28.5811 17.8763C28.6131 17.8009 28.6309 17.7181 28.6309 17.6312C28.6309 17.5443 28.6131 17.4615 28.5811 17.3863C28.5648 17.3477 28.5355 17.318 28.5128 17.284ZM39.9836 21.4095C39.9836 21.7574 39.7013 22.0393 39.353 22.0393C39.0046 22.0393 38.7223 21.7574 38.7223 21.4095C38.7223 21.0618 39.0046 20.7798 39.353 20.7798C39.7013 20.7798 39.9836 21.0618 39.9836 21.4095ZM37.4606 18.8906C37.1124 18.8906 36.8298 19.1727 36.8298 19.5203C36.8298 19.8683 37.1124 20.1501 37.4606 20.1501C37.8094 20.1501 38.0914 19.8683 38.0914 19.5203C38.0914 19.1727 37.8094 18.8906 37.4606 18.8906ZM36.1996 21.4095C36.1996 21.7574 35.9173 22.0393 35.5689 22.0393C35.2206 22.0393 34.9382 21.7574 34.9382 21.4095C34.9382 21.0618 35.2206 20.7798 35.5689 20.7798C35.9173 20.7798 36.1996 21.0618 36.1996 21.4095ZM33.6765 18.8906C33.3284 18.8906 33.0458 19.1727 33.0458 19.5203C33.0458 19.8683 33.3284 20.1501 33.6765 20.1501C34.0247 20.1501 34.3073 19.8683 34.3073 19.5203C34.3073 19.1727 34.0247 18.8906 33.6765 18.8906ZM31.7842 20.7799C31.4361 20.7799 31.1541 21.0618 31.1541 21.4095C31.1541 21.7574 31.4361 22.0392 31.7842 22.0392C32.133 22.0392 32.415 21.7574 32.415 21.4095C32.415 21.0618 32.133 20.7799 31.7842 20.7799ZM29.8926 18.8906C29.5437 18.8906 29.2617 19.1727 29.2617 19.5203C29.2617 19.8683 29.5437 20.1501 29.8926 20.1501C30.2407 20.1501 30.5233 19.8683 30.5233 19.5203C30.5233 19.1727 30.2407 18.8906 29.8926 18.8906ZM28.5128 21.0621C28.49 21.0296 28.4743 20.9923 28.4465 20.9644C28.3327 20.8507 28.1753 20.7803 28.0009 20.7799C27.8272 20.7801 27.6684 20.8507 27.5545 20.9644C27.526 20.9923 27.5103 21.0296 27.4883 21.0621C27.4648 21.0963 27.4356 21.1261 27.4192 21.1645C27.3872 21.2399 27.3694 21.3226 27.3694 21.4095C27.3694 21.4964 27.3872 21.5793 27.4192 21.6547C27.4278 21.6744 27.4441 21.6886 27.4548 21.7072C27.4833 21.7596 27.5125 21.8128 27.5545 21.8548C27.5958 21.896 27.6478 21.9237 27.699 21.9525C27.719 21.9631 27.7339 21.9807 27.7545 21.9894C27.8165 22.016 27.887 22.0257 27.9575 22.0307C27.9724 22.0318 27.9845 22.0392 27.9994 22.0392C28.0201 22.0392 28.0386 22.0295 28.0585 22.0275C28.124 22.0213 28.1888 22.014 28.2465 21.9894C28.2671 21.9807 28.2821 21.9631 28.3014 21.9521C28.3526 21.9237 28.4053 21.8958 28.4465 21.8548C28.4886 21.8128 28.5171 21.7596 28.5462 21.7072C28.5562 21.6886 28.5726 21.6744 28.5811 21.6547C28.6131 21.5793 28.6309 21.4964 28.6309 21.4095C28.6309 21.3226 28.6131 21.2399 28.5811 21.1645C28.5648 21.1261 28.5355 21.0963 28.5128 21.0621ZM39.9838 25.188C39.9838 25.5358 39.7013 25.8178 39.353 25.8178C39.0046 25.8178 38.7221 25.5358 38.7221 25.188C38.7221 24.8401 39.0046 24.5582 39.353 24.5582C39.7013 24.5582 39.9838 24.8401 39.9838 25.188ZM37.4606 22.669C37.1124 22.669 36.8298 22.9509 36.8298 23.2988C36.8298 23.6464 37.1124 23.9285 37.4606 23.9285C37.8094 23.9285 38.0914 23.6464 38.0914 23.2988C38.0914 22.9509 37.8094 22.669 37.4606 22.669ZM36.1997 25.188C36.1997 25.5358 35.9173 25.8178 35.5689 25.8178C35.2205 25.8178 34.9382 25.5358 34.9382 25.188C34.9382 24.8401 35.2205 24.5582 35.5689 24.5582C35.9173 24.5582 36.1997 24.8401 36.1997 25.188ZM33.6765 22.669C33.3284 22.669 33.0458 22.9509 33.0458 23.2988C33.0458 23.6464 33.3284 23.9285 33.6765 23.9285C34.0247 23.9285 34.3073 23.6464 34.3073 23.2988C34.3073 22.9509 34.0247 22.669 33.6765 22.669ZM31.7842 24.5582C31.4361 24.5582 31.1541 24.8402 31.1541 25.188C31.1541 25.5357 31.4361 25.8178 31.7842 25.8178C32.133 25.8178 32.415 25.5357 32.415 25.188C32.415 24.8402 32.133 24.5582 31.7842 24.5582ZM29.8926 22.669C29.5437 22.669 29.2617 22.9509 29.2617 23.2988C29.2617 23.6464 29.5437 23.9285 29.8926 23.9285C30.2407 23.9285 30.5233 23.6464 30.5233 23.2988C30.5233 22.9509 30.2407 22.669 29.8926 22.669ZM28.5128 24.8407C28.49 24.808 28.4743 24.7707 28.4465 24.743C28.3327 24.6291 28.1753 24.5585 28.0009 24.5585C27.8272 24.5587 27.6684 24.6289 27.5545 24.743C27.526 24.7707 27.5103 24.808 27.4883 24.8407C27.4648 24.8748 27.4356 24.9045 27.4192 24.9431C27.3872 25.0182 27.3694 25.101 27.3694 25.188C27.3694 25.2749 27.3872 25.3577 27.4192 25.433C27.4278 25.4527 27.4441 25.467 27.4548 25.4856C27.4833 25.538 27.5125 25.591 27.5545 25.633C27.5958 25.6742 27.6478 25.7022 27.699 25.7307C27.719 25.7417 27.7339 25.7591 27.7545 25.768C27.8165 25.7943 27.887 25.8041 27.9575 25.8091C27.9724 25.8101 27.9845 25.8176 27.9994 25.8176C28.0201 25.8176 28.0386 25.8078 28.0585 25.8059C28.124 25.7997 28.1888 25.7922 28.2465 25.768C28.2671 25.7591 28.2821 25.7415 28.3014 25.7307C28.3526 25.7021 28.4053 25.6742 28.4465 25.633C28.4886 25.591 28.5171 25.538 28.5462 25.4856C28.5562 25.467 28.5726 25.4527 28.5811 25.433C28.6131 25.3577 28.6309 25.2749 28.6309 25.188C28.6309 25.101 28.6131 25.0182 28.5811 24.9431C28.5648 24.9045 28.5355 24.8748 28.5128 24.8407ZM39.9836 28.9664C39.9836 29.3141 39.7013 29.5961 39.353 29.5961C39.0046 29.5961 38.7223 29.3141 38.7223 28.9664C38.7223 28.6186 39.0046 28.3366 39.353 28.3366C39.7013 28.3366 39.9836 28.6186 39.9836 28.9664ZM37.4606 26.4475C37.1124 26.4475 36.8298 26.7295 36.8298 27.0771C36.8298 27.425 37.1124 27.7069 37.4606 27.7069C37.8094 27.7069 38.0914 27.425 38.0914 27.0771C38.0914 26.7295 37.8094 26.4475 37.4606 26.4475ZM36.1996 28.9664C36.1996 29.3141 35.9173 29.5961 35.5689 29.5961C35.2206 29.5961 34.9382 29.3141 34.9382 28.9664C34.9382 28.6186 35.2206 28.3366 35.5689 28.3366C35.9173 28.3366 36.1996 28.6186 36.1996 28.9664ZM33.6765 26.4475C33.3284 26.4475 33.0458 26.7295 33.0458 27.0771C33.0458 27.425 33.3284 27.7069 33.6765 27.7069C34.0247 27.7069 34.3073 27.425 34.3073 27.0771C34.3073 26.7295 34.0247 26.4475 33.6765 26.4475ZM31.7842 28.3367C31.4361 28.3367 31.1541 28.6186 31.1541 28.9664C31.1541 29.3141 31.4361 29.596 31.7842 29.596C32.133 29.596 32.415 29.3141 32.415 28.9664C32.415 28.6186 32.133 28.3367 31.7842 28.3367ZM29.8926 26.4475C29.5437 26.4475 29.2617 26.7295 29.2617 27.0771C29.2617 27.425 29.5437 27.7069 29.8926 27.7069C30.2407 27.7069 30.5233 27.425 30.5233 27.0771C30.5233 26.7295 30.2407 26.4475 29.8926 26.4475ZM28.5128 28.6189C28.49 28.5864 28.4743 28.5491 28.4465 28.5211C28.3327 28.4075 28.1753 28.3371 28.0009 28.3367C27.8272 28.3369 27.6684 28.4075 27.5545 28.5211C27.526 28.5491 27.5103 28.5864 27.4883 28.6189C27.4648 28.653 27.4356 28.6829 27.4192 28.7213C27.3872 28.7966 27.3694 28.8795 27.3694 28.9664C27.3694 29.0533 27.3872 29.1361 27.4192 29.2114C27.4278 29.2311 27.4441 29.2454 27.4548 29.264C27.4833 29.3164 27.5125 29.3696 27.5545 29.4115C27.5958 29.4528 27.6478 29.4805 27.699 29.5092C27.719 29.5199 27.7339 29.5375 27.7545 29.5462C27.8165 29.5727 27.887 29.5825 27.9575 29.5874C27.9724 29.5885 27.9845 29.596 27.9994 29.596C28.0201 29.596 28.0386 29.5862 28.0585 29.5843C28.124 29.5781 28.1888 29.5708 28.2465 29.5462C28.2671 29.5375 28.2821 29.5199 28.3014 29.5089C28.3526 29.4805 28.4053 29.4526 28.4465 29.4115C28.4886 29.3696 28.5171 29.3164 28.5462 29.264C28.5562 29.2454 28.5726 29.2311 28.5811 29.2114C28.6131 29.1361 28.6309 29.0533 28.6309 28.9664C28.6309 28.8795 28.6131 28.7966 28.5811 28.7213C28.5648 28.6829 28.5355 28.653 28.5128 28.6189ZM39.353 32.1151C39.0048 32.1151 38.7221 32.3969 38.7221 32.7448C38.7221 33.0925 39.0048 33.3745 39.353 33.3745C39.7011 33.3745 39.9838 33.0925 39.9838 32.7448C39.9838 32.3969 39.7011 32.1151 39.353 32.1151ZM37.4606 30.2258C37.1124 30.2258 36.8298 30.5077 36.8298 30.8556C36.8298 31.2032 37.1124 31.4853 37.4606 31.4853C37.8094 31.4853 38.0914 31.2032 38.0914 30.8556C38.0914 30.5077 37.8094 30.2258 37.4606 30.2258ZM35.5689 32.1151C35.22 32.1151 34.9382 32.3969 34.9382 32.7448C34.9382 33.0925 35.22 33.3745 35.5689 33.3745C35.9171 33.3745 36.1997 33.0925 36.1997 32.7448C36.1997 32.3969 35.9171 32.1151 35.5689 32.1151ZM33.6765 30.2258C33.3284 30.2258 33.0458 30.5077 33.0458 30.8556C33.0458 31.2032 33.3284 31.4853 33.6765 31.4853C34.0247 31.4853 34.3073 31.2032 34.3073 30.8556C34.3073 30.5077 34.0247 30.2258 33.6765 30.2258ZM31.7842 32.1151C31.4361 32.1151 31.1541 32.3969 31.1541 32.7448C31.1541 33.0925 31.4361 33.3745 31.7842 33.3745C32.133 33.3745 32.415 33.0925 32.415 32.7448C32.415 32.3969 32.133 32.1151 31.7842 32.1151ZM29.8926 30.2258C29.5437 30.2258 29.2617 30.5077 29.2617 30.8556C29.2617 31.2032 29.5437 31.4853 29.8926 31.4853C30.2407 31.4853 30.5233 31.2032 30.5233 30.8556C30.5233 30.5077 30.2407 30.2258 29.8926 30.2258ZM28.5462 32.4472C28.5171 32.3947 28.4886 32.3417 28.4465 32.2997C28.4053 32.2585 28.3526 32.2304 28.3014 32.202C28.2821 32.191 28.2671 32.1736 28.2465 32.1648C28.1888 32.1405 28.124 32.133 28.0585 32.127C28.0386 32.1248 28.0216 32.1153 28.0009 32.1153C27.9859 32.1153 27.9724 32.1227 27.9575 32.1238C27.887 32.1288 27.8165 32.1383 27.7545 32.1648C27.7339 32.1736 27.719 32.191 27.6997 32.2016C27.6478 32.2304 27.5958 32.2583 27.5545 32.2997C27.5125 32.3417 27.4833 32.3947 27.4548 32.4472C27.4441 32.4659 27.4278 32.4799 27.4192 32.4998C27.3872 32.5752 27.3694 32.658 27.3694 32.7448C27.3694 32.8318 27.3872 32.9144 27.4192 32.9898C27.4278 33.0095 27.4441 33.0237 27.4548 33.0422C27.4833 33.0949 27.5125 33.1478 27.5545 33.1899C27.6115 33.2469 27.6791 33.2928 27.7545 33.3248C27.83 33.3568 27.9126 33.3744 27.9994 33.3745C28.1739 33.3744 28.3327 33.3038 28.4465 33.1899C28.4886 33.1478 28.5171 33.0949 28.5462 33.0422C28.5562 33.0237 28.5733 33.0095 28.5811 32.9898C28.6131 32.9144 28.6309 32.8318 28.6309 32.7448C28.6309 32.658 28.6131 32.5752 28.5811 32.4998C28.5733 32.4799 28.5562 32.4659 28.5462 32.4472ZM38.0913 34.634C38.0913 34.9818 37.8089 35.2637 37.4606 35.2637C37.1122 35.2637 36.8299 34.9818 36.8299 34.634C36.8299 34.2862 37.1122 34.0043 37.4606 34.0043C37.8089 34.0043 38.0913 34.2862 38.0913 34.634ZM35.5689 35.8934C35.22 35.8934 34.9382 36.1753 34.9382 36.5233C34.9382 36.8709 35.22 37.1529 35.5689 37.1529C35.9171 37.1529 36.1997 36.8709 36.1997 36.5233C36.1997 36.1753 35.9171 35.8934 35.5689 35.8934ZM34.3072 34.634C34.3072 34.9818 34.0249 35.2637 33.6765 35.2637C33.3283 35.2637 33.0458 34.9818 33.0458 34.634C33.0458 34.2862 33.3283 34.0043 33.6765 34.0043C34.0249 34.0043 34.3072 34.2862 34.3072 34.634ZM31.7842 35.8934C31.4361 35.8934 31.1541 36.1753 31.1541 36.5233C31.1541 36.8709 31.4361 37.1529 31.7842 37.1529C32.133 37.1529 32.415 36.8709 32.415 36.5233C32.415 36.1753 32.133 35.8934 31.7842 35.8934ZM30.5232 34.634C30.5232 34.9818 30.2408 35.2637 29.8926 35.2637C29.5442 35.2637 29.2619 34.9818 29.2619 34.634C29.2619 34.2862 29.5442 34.0043 29.8926 34.0043C30.2408 34.0043 30.5232 34.2862 30.5232 34.634ZM28.5462 36.2256C28.5171 36.1732 28.4886 36.1201 28.4465 36.078C28.4053 36.0367 28.3526 36.009 28.3014 35.9802C28.2821 35.9695 28.2671 35.9519 28.2465 35.9432C28.1888 35.9189 28.124 35.9116 28.0585 35.9052C28.0386 35.9034 28.0216 35.8934 28.0009 35.8934C27.9859 35.8934 27.9724 35.9009 27.9575 35.902C27.887 35.907 27.8165 35.9169 27.7545 35.9432C27.7339 35.9519 27.719 35.9693 27.6997 35.9802C27.6478 36.0086 27.5958 36.0367 27.5545 36.078C27.5125 36.1201 27.4833 36.1732 27.4548 36.2256C27.4441 36.2443 27.4278 36.2585 27.4192 36.278C27.3872 36.3534 27.3694 36.4362 27.3694 36.5233C27.3694 36.61 27.3872 36.6928 27.4192 36.7682C27.4278 36.7879 27.4441 36.8019 27.4548 36.8208C27.4833 36.873 27.5125 36.9263 27.5545 36.9683C27.6684 37.0822 27.8258 37.1528 27.9994 37.1528C28.1739 37.1526 28.3327 37.0821 28.4465 36.9683C28.4886 36.9263 28.5171 36.873 28.5462 36.8208C28.5562 36.8019 28.5733 36.7879 28.5811 36.7682C28.6131 36.6928 28.6309 36.61 28.6309 36.5233C28.6309 36.4362 28.6131 36.3534 28.5811 36.278C28.5733 36.2585 28.5562 36.2443 28.5462 36.2256ZM35.5689 39.6719C35.22 39.6719 34.9382 39.9537 34.9382 40.3015C34.9382 40.6493 35.22 40.9313 35.5689 40.9313C35.9171 40.9313 36.1997 40.6493 36.1997 40.3015C36.1997 39.9537 35.9171 39.6719 35.5689 39.6719ZM34.3073 38.4124C34.3073 38.7602 34.025 39.0422 33.6765 39.0422C33.3282 39.0422 33.0458 38.7602 33.0458 38.4124C33.0458 38.0645 33.3282 37.7826 33.6765 37.7826C34.025 37.7826 34.3073 38.0645 34.3073 38.4124ZM31.7842 39.6719C31.4361 39.6719 31.1541 39.9537 31.1541 40.3015C31.1541 40.6493 31.4361 40.9313 31.7842 40.9313C32.133 40.9313 32.415 40.6493 32.415 40.3015C32.415 39.9537 32.133 39.6719 31.7842 39.6719ZM30.5233 38.4124C30.5233 38.7602 30.2409 39.0422 29.8926 39.0422C29.5441 39.0422 29.2617 38.7602 29.2617 38.4124C29.2617 38.0645 29.5441 37.7826 29.8926 37.7826C30.2409 37.7826 30.5233 38.0645 30.5233 38.4124ZM28.5462 40.004C28.5171 39.9514 28.4886 39.8984 28.4465 39.8565C28.4053 39.8153 28.3526 39.7872 28.3014 39.7588C28.2821 39.7477 28.2671 39.7303 28.2465 39.7216C28.1888 39.6973 28.124 39.6898 28.0585 39.6838C28.0386 39.6816 28.0216 39.672 28.0009 39.672C27.9859 39.672 27.9724 39.6795 27.9575 39.6806C27.887 39.6855 27.8165 39.6952 27.7545 39.7216C27.7339 39.7303 27.719 39.7477 27.6997 39.7584C27.6478 39.7872 27.5958 39.8151 27.5545 39.8565C27.5125 39.8984 27.4833 39.9514 27.4548 40.004C27.4441 40.0227 27.4278 40.0367 27.4192 40.0566C27.3872 40.132 27.3694 40.2147 27.3694 40.3015C27.3694 40.3885 27.3872 40.4712 27.4192 40.5466C27.4278 40.5663 27.4441 40.5805 27.4548 40.599C27.4833 40.6516 27.5125 40.7046 27.5545 40.7467C27.6115 40.8037 27.6791 40.8496 27.7545 40.8816C27.83 40.9135 27.9126 40.9311 27.9994 40.9313C28.1739 40.9311 28.3327 40.8606 28.4465 40.7467C28.4886 40.7046 28.5171 40.6516 28.5462 40.599C28.5562 40.5805 28.5733 40.5663 28.5811 40.5466C28.6131 40.4712 28.6309 40.3885 28.6309 40.3015C28.6309 40.2147 28.6131 40.132 28.5811 40.0566C28.5733 40.0367 28.5562 40.0227 28.5462 40.004ZM30.5232 42.1908C30.5232 42.5385 30.2408 42.8205 29.8926 42.8205C29.5442 42.8205 29.2619 42.5385 29.2619 42.1908C29.2619 41.843 29.5442 41.561 29.8926 41.561C30.2408 41.561 30.5232 41.843 30.5232 42.1908ZM28.5576 43.8C28.4907 43.6676 28.3839 43.5583 28.2465 43.5C28.1888 43.4756 28.124 43.4683 28.0585 43.4619C28.0386 43.4602 28.0216 43.4503 28.0009 43.4503C27.9859 43.4503 27.9724 43.4577 27.9575 43.4588C27.887 43.4638 27.8165 43.4737 27.7545 43.5C27.6171 43.5583 27.5097 43.6676 27.4427 43.8C27.4363 43.8128 27.4249 43.8218 27.4192 43.8348C27.3872 43.9101 27.3694 43.993 27.3694 44.08C27.3694 44.1668 27.3872 44.2496 27.4192 44.3249C27.4278 44.3446 27.4441 44.3587 27.4548 44.3776C27.4833 44.4298 27.5125 44.4831 27.5545 44.5251C27.6684 44.639 27.8258 44.7095 27.9994 44.7095C28.1739 44.7093 28.3327 44.6388 28.4465 44.5251C28.4886 44.4831 28.5171 44.4298 28.5462 44.3776C28.5562 44.3587 28.5733 44.3446 28.5811 44.3249C28.6131 44.2496 28.6309 44.1668 28.6309 44.08C28.6309 43.993 28.6131 43.9101 28.5811 43.8348C28.5754 43.8218 28.564 43.8128 28.5576 43.8Z" stroke="#FCC217" stroke-width="0.25" stroke-miterlimit="10"/>
<path d="M27.9991 55.3254C43.0905 55.3254 55.3244 43.0915 55.3244 28.0001C55.3244 12.9088 43.0905 0.674805 27.9991 0.674805C12.9078 0.674805 0.673828 12.9088 0.673828 28.0001C0.673828 43.0915 12.9078 55.3254 27.9991 55.3254Z" stroke="#FCC21D" stroke-width="2"/>
</g>
<defs>
<clipPath id="clip0_26_14407">
<rect width="56" height="56" fill="white"/>
</clipPath>
</defs>
</svg>
