<svg width="56" height="56" viewBox="0 0 56 56" fill="none" xmlns="http://www.w3.org/2000/svg">
<g clip-path="url(#clip0_26_14511)">
<path d="M42.5066 16.107C42.5082 15.7497 42.366 15.4067 42.1118 15.1554L40.8454 13.8888C40.5952 13.636 40.2543 13.4939 39.8985 13.4941H39.8942C39.5406 13.4943 39.202 13.6366 38.9543 13.8888L33.2093 19.6338H21.8946V14.8098C21.8946 14.0832 21.3055 13.4941 20.5789 13.4941H19.7018C17.7651 13.4963 16.1955 15.0658 16.1934 17.0026V36.4089C16.3031 38.3309 17.904 39.8272 19.829 39.8072H41.191C41.9176 39.8072 42.5066 39.2182 42.5066 38.4916V20.9495C42.5066 20.2229 41.9176 19.6338 41.191 19.6338H39.5244L42.1119 17.0464C42.3637 16.7986 42.5058 16.4603 42.5066 16.107ZM31.8848 24.4579C31.792 24.4706 31.6987 24.438 31.634 24.3702C31.5687 24.3054 31.5365 24.2144 31.5463 24.1229L31.7125 22.6318C31.7195 22.6006 31.7282 22.5699 31.7388 22.5398L33.4663 24.2672C33.4378 24.2733 33.4119 24.2874 33.3821 24.2909L31.8848 24.4579ZM34.1824 23.7417L32.2633 21.8222L37.0435 17.042L38.9617 18.9598L34.1824 23.7417ZM37.6619 16.4215L38.3123 15.7715L40.2296 17.6893L39.5797 18.3396L37.6619 16.4215ZM17.0705 17.0026C17.072 15.5499 18.2492 14.3727 19.7018 14.3712H20.5789C20.8211 14.3712 21.0175 14.5676 21.0175 14.8098V32.3518C21.0175 32.594 20.8211 32.7903 20.5789 32.7903H19.7018C18.6943 32.7901 17.7355 33.2237 17.0705 33.9806V17.0026ZM41.191 20.5109C41.4332 20.5109 41.6295 20.7073 41.6295 20.9496V38.4916C41.6295 38.7337 41.4332 38.9301 41.191 38.9301H19.829C18.3812 38.9544 17.1684 37.84 17.0705 36.3953V36.2988C17.072 34.8462 18.2492 33.669 19.7018 33.6675H20.5789C21.3055 33.6675 21.8946 33.0785 21.8946 32.3518V20.5109H32.3321L31.3362 21.5069C31.0581 21.7809 30.8832 22.1424 30.8411 22.5304L30.6748 24.0246C30.6611 24.1703 30.675 24.3173 30.7156 24.4579H23.2102C22.968 24.4579 22.7717 24.6542 22.7717 24.8965C22.7717 25.1386 22.968 25.335 23.2102 25.335H24.5259V37.1759C24.5259 37.4181 24.7222 37.6145 24.9645 37.6145C25.2067 37.6145 25.4031 37.4181 25.4031 37.1759V31.0362H30.2271V34.5446H27.1572C26.9151 34.5446 26.7187 34.7409 26.7187 34.9831C26.7187 35.2253 26.9151 35.4217 27.1572 35.4217H35.9283C36.4127 35.4217 36.8054 35.029 36.8054 34.5446V27.9664C36.8054 27.7241 36.6091 27.5277 36.3669 27.5277C36.1247 27.5277 35.9283 27.7241 35.9283 27.9664V30.1591H25.403V25.335H31.8533C31.896 25.3351 31.9388 25.3328 31.9813 25.328L33.4799 25.1575C33.8602 25.1143 34.2152 24.9453 34.4886 24.6772L38.6496 20.511L41.191 20.5109ZM35.9283 31.0362V34.5446H31.1042V31.0362H35.9283ZM41.4936 16.4245L40.8498 17.0688L38.9324 15.1514L39.5766 14.5072C39.6609 14.4207 39.7764 14.3717 39.8972 14.3712C40.0202 14.3715 40.1379 14.4212 40.2239 14.509L41.4923 15.7746C41.5805 15.8615 41.6299 15.9802 41.6295 16.1039C41.6292 16.2248 41.5801 16.3403 41.4936 16.4245Z" fill="#FCC217" stroke="#FCC217" stroke-width="0.5" stroke-miterlimit="10"/>
<path d="M27.9991 55.3254C43.0905 55.3254 55.3244 43.0915 55.3244 28.0001C55.3244 12.9088 43.0905 0.674805 27.9991 0.674805C12.9078 0.674805 0.673828 12.9088 0.673828 28.0001C0.673828 43.0915 12.9078 55.3254 27.9991 55.3254Z" stroke="#FCC21D" stroke-width="2"/>
</g>
<defs>
<clipPath id="clip0_26_14511">
<rect width="56" height="56" fill="white"/>
</clipPath>
</defs>
</svg>
