<svg width="22" height="19" viewBox="0 0 22 19" fill="none" xmlns="http://www.w3.org/2000/svg">
    <g opacity="0.5">
        <path d="M22 1.00029C21.0424 1.67577 19.9821 2.1924 18.86 2.53029C18.2577 1.8378 17.4573 1.34698 16.567 1.12422C15.6767 0.90145 14.7395 0.957486 13.8821 1.28474C13.0247 1.612 12.2884 2.19469 11.773 2.95401C11.2575 3.71332 10.9877 4.61263 11 5.53029V6.53029C9.24263 6.57586 7.50127 6.1861 5.93101 5.39574C4.36074 4.60537 3.01032 3.43893 2 2.00029C2 2.00029 -2 11.0003 7 15.0003C4.94053 16.3983 2.48716 17.0992 0 17.0003C9 22.0003 20 17.0003 20 5.50029C19.9991 5.22174 19.9723 4.94388 19.92 4.67029C20.9406 3.66378 21.6608 2.393 22 1.00029Z"
              fill="#475467"/>
    </g>
</svg>
